<?xml version="1.0" encoding="utf-8"?>
<!-- Generator: Adobe Illustrator 15.0.0, SVG Export Plug-In  -->
<!DOCTYPE svg PUBLIC "-//W3C//DTD SVG 1.1//EN" "http://www.w3.org/Graphics/SVG/1.1/DTD/svg11.dtd" [
	<!ENTITY ns_flows "http://ns.adobe.com/Flows/1.0/">
]>
<svg version="1.1"
	 xmlns="http://www.w3.org/2000/svg" xmlns:xlink="http://www.w3.org/1999/xlink" xmlns:a="http://ns.adobe.com/AdobeSVGViewerExtensions/3.0/"
	 x="0px" y="0px" width="124px" height="124px" viewBox="-8.955 -16.593 124 124"
	 overflow="visible" enable-background="new -8.955 -16.593 124 124" xml:space="preserve">
<defs>
</defs>
<path fill="#352D2B" d="M27.484,22.306L8.579,4.889l4.086-4.485c0,0,1.845-0.854,2.701-0.077
	c0.854,0.781,15.302,14.129,15.302,14.129s1.172,1.25,0.206,2.662C30.412,17.795,27.484,22.306,27.484,22.306L27.484,22.306
	L27.484,22.306z"/>
<path fill="#352D2B" d="M63.608,89.765c19.529,6.315,23.009,0.5,23.009,0.5l5.642-6.2L73.304,66.697c0,0-10.653,10.838-14.789,9.362
	l-39.879-36.7c-1.856-3.984,7.701-15.34,7.701-15.34l-19-17.317l-5.698,6.263c0,0-5.097,3.863,2.685,22.877
	C17.996,69.258,51.986,86,63.608,89.765L63.608,89.765L63.608,89.765z"/>
<path fill="#352D2B" d="M74.871,65.482l18.706,17.141l4.116-4.525c0,0,0.649-1.88-0.207-2.664
	c-0.855-0.778-14.481-13.288-14.481-13.288s-2.021-1.509-3.333-0.413C79.044,62.262,74.871,65.482,74.871,65.482L74.871,65.482
	L74.871,65.482z"/>
<path fill="#352D2B" d="M93.155,1.721c-11.216,5.302-26.57,10.472-38.4,11.415l12.242,5.571l-16.15,16.516l9.763,9.545l16.15-16.516
	l5.847,12.117C83.283,28.522,88.108,13.055,93.155,1.721z"/>
</svg>
