<?xml version="1.0" encoding="utf-8"?>
<!-- Generator: Adobe Illustrator 15.0.0, SVG Export Plug-In  -->
<!DOCTYPE svg PUBLIC "-//W3C//DTD SVG 1.1//EN" "http://www.w3.org/Graphics/SVG/1.1/DTD/svg11.dtd" [
	<!ENTITY ns_flows "http://ns.adobe.com/Flows/1.0/">
]>
<svg version="1.1"
	 xmlns="http://www.w3.org/2000/svg" xmlns:xlink="http://www.w3.org/1999/xlink" xmlns:a="http://ns.adobe.com/AdobeSVGViewerExtensions/3.0/"
	 x="0px" y="0px" width="124px" height="124px" viewBox="-2.771 -15.72 124 124"
	 overflow="visible" enable-background="new -2.771 -15.72 124 124" xml:space="preserve">
<defs>
</defs>
<g id="photo-camera-4-icon_1_">
	<g>
		<path fill="#352D2B" d="M83.562,52.101c0,8.48-6.897,15.377-15.379,15.377c-8.477,0-15.375-6.896-15.375-15.377
			c0-8.475,6.898-15.373,15.375-15.373C76.665,36.728,83.562,43.625,83.562,52.101z M118.858,14.788v77.024H0V14.787h32.661
			c3.247,0,6.22-1.816,7.7-4.708L45.533,0h44.332l5.716,10.323c1.524,2.754,4.426,4.464,7.572,4.464L118.858,14.788z M30.244,31.59
			c0-3.269-2.648-5.917-5.918-5.917c-3.266,0-5.91,2.647-5.91,5.917c0,3.265,2.645,5.914,5.91,5.914
			C27.596,37.504,30.244,34.855,30.244,31.59z M96.789,52.101c0-15.77-12.831-27.94-28.605-27.94c-15.771,0-28.6,12.17-28.6,27.94
			c0,15.773,12.828,28.604,28.6,28.604C83.958,80.705,96.789,67.874,96.789,52.101z M26.637,2.234H7.74v7.79h18.896V2.234z"/>
	</g>
</g>
</svg>
