<?xml version="1.0" encoding="utf-8"?>
<!-- Generator: Adobe Illustrator 15.0.0, SVG Export Plug-In . SVG Version: 6.00 Build 0)  -->
<!DOCTYPE svg PUBLIC "-//W3C//DTD SVG 1.1//EN" "http://www.w3.org/Graphics/SVG/1.1/DTD/svg11.dtd" [
	<!ENTITY ns_extend "http://ns.adobe.com/Extensibility/1.0/">
	<!ENTITY ns_ai "http://ns.adobe.com/AdobeIllustrator/10.0/">
	<!ENTITY ns_graphs "http://ns.adobe.com/Graphs/1.0/">
	<!ENTITY ns_vars "http://ns.adobe.com/Variables/1.0/">
	<!ENTITY ns_imrep "http://ns.adobe.com/ImageReplacement/1.0/">
	<!ENTITY ns_sfw "http://ns.adobe.com/SaveForWeb/1.0/">
	<!ENTITY ns_custom "http://ns.adobe.com/GenericCustomNamespace/1.0/">
	<!ENTITY ns_adobe_xpath "http://ns.adobe.com/XPath/1.0/">
]>
<svg version="1.1" id="Layer_1" xmlns:x="&ns_extend;" xmlns:i="&ns_ai;" xmlns:graph="&ns_graphs;"
	 xmlns="http://www.w3.org/2000/svg" xmlns:xlink="http://www.w3.org/1999/xlink" x="0px" y="0px" width="518px" height="518px"
	 viewBox="29 29 518 518" enable-background="new 29 29 518 518" xml:space="preserve">
<metadata>
	<sfw  xmlns="&ns_sfw;">
		<slices></slices>
		<sliceSourceBounds  x="100.26" y="392.271" width="517.687" height="507.059" bottomLeftOrigin="true"></sliceSourceBounds>
	</sfw>
</metadata>
<path fill="#F2EFDE" d="M446.04,98.71c0.16-3.804,3.37-6.739,7.171-6.582c3.801,0.161,6.744,3.359,6.584,7.159
	c-0.16,3.802-3.357,6.752-7.164,6.591C448.829,105.715,445.884,102.509,446.04,98.71"/>
<path fill="#F2EFDE" d="M455.121,107.974c0,0,6.083-0.333,5.805,6.318c-0.115-0.004-0.758,18.069-0.758,18.069
	s0.098,3.04-4.244,3.556c0.127-0.107-19.301,3.396-19.301,3.396s-1.404,0.059-1.928,1.444c-0.004,0.108-6.188,19.475-6.188,19.475
	s-0.714,3.131-4.524,2.026c0.351,0.016-3.957-0.401-2.706-5.017c0.104,0.125,6.138-21.234,6.138-21.234s0.762-4.051,5.575-4.788
	c0.118,0.003,13.06-2.025,13.06-2.025s1.174-0.295,0.862-1.244c0.008-0.113-1.751-5.561-1.751-5.561s-0.54-0.956-1.848-0.312
	c0.117,0.009-13.099,5.754-13.099,5.754s-3.444,1.375-4.708-1.831c0.113,0.006-2.068-3.59,1.635-5.66
	c0.135-0.112,23.385-11.625,23.385-11.625S452.324,107.734,455.121,107.974"/>
<path fill="#F2EFDE" d="M371.674,153.401c-9.527-0.396-17.576,7-17.98,16.529c-0.398,9.53,6.997,17.583,16.533,17.986
	c9.531,0.397,17.584-7.002,17.986-16.533C388.611,161.85,381.214,153.803,371.674,153.401z M370.656,177.654
	c-3.866-0.162-6.861-3.424-6.694-7.293c0.161-3.866,3.419-6.86,7.282-6.697c3.868,0.162,6.863,3.42,6.701,7.29
	C377.779,174.819,374.525,177.816,370.656,177.654z"/>
<path fill="#F2EFDE" d="M459.922,138.188c-15.195-0.642-28.043,11.169-28.682,26.357c-0.641,15.208,11.173,28.04,26.367,28.675
	c15.196,0.643,28.04-11.15,28.673-26.359C486.922,151.67,475.115,138.823,459.922,138.188z M458.32,176.312
	c-5.865-0.247-10.415-5.201-10.172-11.054c0.247-5.858,5.197-10.406,11.06-10.159s10.413,5.189,10.168,11.051
	C469.13,172.006,464.175,176.556,458.32,176.312z"/>
<path fill="#F2EFDE" d="M425.284,129.438l-8.027-8.728c-0.55-0.6-1.554-0.641-2.154-0.09l-1.719,1.571
	c-0.294,0.279-0.47,0.655-0.483,1.06c-0.021,0.412,0.123,0.804,0.4,1.104l1.671,1.817c0.481,0.52,0.44,1.333-0.077,1.815
	l-1.374,1.267c-0.485,0.443-0.99,0.284-1.134-0.363l-0.688-3.18c-0.181-0.806-0.994-1.494-1.82-1.528l-52.242-2.197
	c-0.42-0.018-0.771,0.127-1.004,0.405c-0.231,0.277-0.314,0.652-0.229,1.057l5.95,27.417c0.176,0.811,0.993,1.494,1.823,1.532
	l52.238,2.195c0.416,0.018,0.77-0.125,0.999-0.405c0.235-0.279,0.321-0.654,0.231-1.058l-3.654-16.851
	c-0.156-0.707,0.168-1.718,0.7-2.207l3.14-2.889c0.502-0.463,1.348-0.429,1.809,0.075l1.676,1.82c0.551,0.6,1.561,0.64,2.162,0.093
	l1.708-1.576c0.298-0.276,0.474-0.652,0.489-1.06C425.699,130.125,425.557,129.737,425.284,129.438z"/>
<path fill="#F2EFDE" d="M419.635,162.22l-1.039-4.821c-0.177-0.801-0.993-1.492-1.816-1.522l-32.74-1.378
	c-0.42-0.019-0.719,0.1-0.839,0.339c-0.118,0.243-0.032,0.553,0.243,0.875l4.711,5.618c0.516,0.616,1.592,1.145,2.4,1.177
	l27.852,1.17c0.416,0.017,0.77-0.125,1.002-0.403C419.64,162.997,419.729,162.624,419.635,162.22z"/>
<path fill="#F2EFDE" d="M446.04,98.71c0.16-3.804,3.37-6.739,7.171-6.582c3.801,0.161,6.744,3.359,6.584,7.159
	c-0.16,3.802-3.357,6.752-7.164,6.591C448.829,105.715,445.884,102.509,446.04,98.71"/>
<path fill="#F2EFDE" d="M455.121,107.974c0,0,6.083-0.333,5.805,6.318c-0.115-0.004-0.758,18.069-0.758,18.069
	s0.098,3.04-4.244,3.556c0.127-0.107-19.301,3.396-19.301,3.396s-1.404,0.059-1.928,1.444c-0.004,0.108-6.188,19.475-6.188,19.475
	s-0.714,3.131-4.524,2.026c0.351,0.016-3.957-0.401-2.706-5.017c0.104,0.125,6.138-21.234,6.138-21.234s0.762-4.051,5.575-4.788
	c0.118,0.003,13.06-2.025,13.06-2.025s1.174-0.295,0.862-1.244c0.008-0.113-1.751-5.561-1.751-5.561s-0.54-0.956-1.848-0.312
	c0.117,0.009-13.099,5.754-13.099,5.754s-3.444,1.375-4.708-1.831c0.113,0.006-2.068-3.59,1.635-5.66
	c0.135-0.112,23.385-11.625,23.385-11.625S452.324,107.734,455.121,107.974"/>
<path fill="#F2EFDE" d="M371.674,153.401c-9.527-0.396-17.576,7-17.98,16.529c-0.398,9.53,6.997,17.583,16.533,17.986
	c9.531,0.397,17.584-7.002,17.986-16.533C388.611,161.85,381.214,153.803,371.674,153.401z M370.656,177.654
	c-3.866-0.162-6.861-3.424-6.694-7.293c0.161-3.866,3.419-6.86,7.282-6.697c3.868,0.162,6.863,3.42,6.701,7.29
	C377.779,174.819,374.525,177.816,370.656,177.654z"/>
<path fill="#F2EFDE" d="M459.922,138.188c-15.195-0.642-28.043,11.169-28.682,26.357c-0.641,15.208,11.173,28.04,26.367,28.675
	c15.196,0.643,28.04-11.15,28.673-26.359C486.922,151.67,475.115,138.823,459.922,138.188z M458.32,176.312
	c-5.865-0.247-10.415-5.201-10.172-11.054c0.247-5.858,5.197-10.406,11.06-10.159s10.413,5.189,10.168,11.051
	C469.13,172.006,464.175,176.556,458.32,176.312z"/>
<path fill="#F2EFDE" d="M425.284,129.438l-8.027-8.728c-0.55-0.6-1.554-0.641-2.154-0.09l-1.719,1.571
	c-0.294,0.279-0.47,0.655-0.483,1.06c-0.021,0.412,0.123,0.804,0.4,1.104l1.671,1.817c0.481,0.52,0.44,1.333-0.077,1.815
	l-1.374,1.267c-0.485,0.443-0.99,0.284-1.134-0.363l-0.688-3.18c-0.181-0.806-0.994-1.494-1.82-1.528l-52.242-2.197
	c-0.42-0.018-0.771,0.127-1.004,0.405c-0.231,0.277-0.314,0.652-0.229,1.057l5.95,27.417c0.176,0.811,0.993,1.494,1.823,1.532
	l52.238,2.195c0.416,0.018,0.77-0.125,0.999-0.405c0.235-0.279,0.321-0.654,0.231-1.058l-3.654-16.851
	c-0.156-0.707,0.168-1.718,0.7-2.207l3.14-2.889c0.502-0.463,1.348-0.429,1.809,0.075l1.676,1.82c0.551,0.6,1.561,0.64,2.162,0.093
	l1.708-1.576c0.298-0.276,0.474-0.652,0.489-1.06C425.699,130.125,425.557,129.737,425.284,129.438z"/>
<path fill="#F2EFDE" d="M419.635,162.22l-1.039-4.821c-0.177-0.801-0.993-1.492-1.816-1.522l-32.74-1.378
	c-0.42-0.019-0.719,0.1-0.839,0.339c-0.118,0.243-0.032,0.553,0.243,0.875l4.711,5.618c0.516,0.616,1.592,1.145,2.4,1.177
	l27.852,1.17c0.416,0.017,0.77-0.125,1.002-0.403C419.64,162.997,419.729,162.624,419.635,162.22z"/>
<path id="picture-multi-4-icon_4_" fill="#F2EFDE" d="M533.729,41.716l-13.137,225.161l-214.977-12.546l2.313-39.646l10.822-185.514
	l143.382,8.366L533.729,41.716z M318.751,29.171l119.929,6.994 M509.509,63.265l-169.201-9.871l-8.794,150.691l169.194,9.869
	L509.509,63.265z"/>
<path id="picture-multi-4-icon_2_" fill="#F2EFDE" d="M244.957,161.158l39.302,226.444L68.062,425.12l-6.922-39.873L28.76,198.68
	l144.19-25.027L244.957,161.158z M28.76,198.68l120.604-20.931 M225.931,188.171L55.775,217.698l26.304,151.555l170.156-29.533
	L225.931,188.171z"/>
<path fill="#F2EFDE" d="M158.42,328.646c2.261-17.507,4.489-34.854,4.431-34.765c0.307-2.486-0.148-4.045-1.46-5.096
	c-5.924-4.723-30.112-7.455-50.415-5.943c-20.222,1.511-38.39,7.111-44.547,10.611c-1.725,0.984-5.125,2.928-4.178,6.688
	c0.042,0.186,4.818,17.531,9.584,34.855C98.075,349.54,134.266,346.885,158.42,328.646z M77.052,301.61
	c-1.775-0.418-3.554-0.916-5.313-1.536c9.313-6.109,27.809-9.229,40.26-10.128c12.89-0.929,37.531,0.785,42.025,3.686
	c-2.437,1.389-4.979,2.464-7.535,3.396c-7.865,2.864-16.031,4.375-24.185,5.387C107.476,304.261,91.975,305.122,77.052,301.61z"/>
<path fill="#F2EFDE" d="M116.258,348.864c-14.723,1.079-29.667-1.41-42.693-7.59c4.142,15.044,7.833,28.445,7.833,28.445
	c1.575,4.039,5.372,6.925,9.075,8.893c5.694,3.033,12.198,4.41,18.591,4.842c7.904,0.539,16.037-0.256,23.645-2.518
	c5.696-1.693,11.347-4.297,15.767-8.342c2.395-2.188,4.572-4.955,5.307-8.18c0,0,1.804-13.866,3.801-29.303
	C145.471,343.14,130.981,347.784,116.258,348.864z"/>
<path fill="#F2EFDE" d="M206.254,295.84c3.5,3.054,8.341,8.842,10.536,12.473c-2.569-2.62-7.047-6.568-10.913-8.985
	c2.579,3.18,2.056,6.309,0.076,9.129c2.321,2.454,6.787,4.26,14.975,4.116C221.883,292.159,210.043,294.558,206.254,295.84z"/>
<path fill="#F2EFDE" d="M202.125,297.511c-0.365,2.982-1.221,5.851-2.536,8.561c0.63-2.834,0.683-5.709,0.281-8.568
	c-3.112,1.104-9.135,4.745-1.158,15.333C210.825,304.872,204.385,299.092,202.125,297.511z"/>
<path fill="#F2EFDE" d="M146.847,245.598c3.569-0.86,9.259-2.668,13.321-4.74c-4.057,0.579-6.47-1.479-7.868-4.628
	c-3.299,0.729-7.14,3.632-11.23,10.729c17.015,11.312,21.044-0.077,21.898-3.984C158.55,244.408,151.094,245.584,146.847,245.598z"
	/>
<path fill="#F2EFDE" d="M163.658,238.574c-2.369-1.848-4.391-4.054-6.044-6.575c2.113,1.998,4.547,3.52,7.208,4.646
	c0.657-3.243,0.628-10.275-12.555-8.875C152.869,242.25,161.14,239.694,163.658,238.574z"/>
<polygon fill="#F2EFDE" points="221.449,281.13 219.973,278.747 205.292,287.527 208.413,271.779 224.094,261.715 222.721,259.408 
	209.54,266.108 215.493,236.094 212.3,235.423 208.955,250.408 204.662,244.229 202.07,245.792 207.596,256.498 199.953,290.718 
	176.634,304.661 184.69,266.278 177.999,256.515 185.008,233.984 185.008,233.984 199.189,223.872 197.884,221.745 187.033,227.473 
	191.608,212.765 188.722,211.815 180.933,234.106 168.196,216.65 166.148,217.985 179.108,239.342 174.762,251.788 165.955,238.93 
	164.099,240.097 179.771,267.158 167.369,326.266 171.903,327.22 175.307,310.989 "/>
<path fill="#F2EFDE" d="M223.576,237.582c-1.969,1.159-3.65,2.669-5.082,4.434c2.309,1.202,7.635,2.711,9.446-7.554
	c-11.075-2.698-10.945,4.105-10.646,6.253C219.205,239.326,221.313,238.28,223.576,237.582z"/>
<path fill="#F2EFDE" d="M206.058,235.466c0.3-2.343,0.984-4.595,2.028-6.725c-0.507,2.233-0.56,4.49-0.258,6.742
	c2.459-0.858,7.207-3.696,0.974-12.056C199.248,229.643,204.288,234.213,206.058,235.466z"/>
<path fill="#F2EFDE" d="M179.604,221.309c-1.432-1.985-2.505-4.168-3.22-6.514c1.195,2.043,2.748,3.787,4.568,5.274
	c1.251-2.38,2.835-7.882-7.78-9.797C170.345,221.717,177.38,221.609,179.604,221.309z"/>
<path fill="#F2EFDE" d="M162.504,264.658c3.134-1.466,5.875-3.506,8.277-5.962c-3.306-2.136-11.113-5.16-15.285,10.052
	c16.307,5.621,17.065-4.648,16.918-7.926C169.333,262.648,166.016,263.926,162.504,264.658z"/>
<path fill="#F2EFDE" d="M202.655,243.933c1.136-1.847,3.988-8.028-7.238-10.009c-2.467,10.129,3.015,10.888,5.614,10.716
	c-0.601-2.191-1.535-4.251-2.869-6.104C199.953,240.087,201.466,241.892,202.655,243.933z"/>
<path fill="#F2EFDE" d="M188.173,256.701c10.41,8.046,14.096,2.118,15.228-0.965c-2.828-0.433-5.683-0.412-8.508,0.176
	c2.71-1.273,5.566-2.082,8.529-2.412C201.879,251.243,196.224,244.781,188.173,256.701z"/>
<path fill="#F2EFDE" d="M221.818,275.835c2.664-0.195,5.312,0.055,7.9,0.734c-2.583-0.06-5.094,0.385-7.519,1.228
	c1.501,2.529,5.71,7.15,13.565-1.627C226.738,266.983,222.804,273.596,221.818,275.835z"/>
<path fill="#F2EFDE" d="M214.643,250.273c0.465,2.932,2.699,8.831,13.327,3.517c-5.053-11.969-11.193-7.233-12.953-5.502
	c2.569,0.811,4.958,2.03,7.134,3.629C219.752,250.9,217.227,250.387,214.643,250.273z"/>
<path fill="#F2EFDE" d="M420.931,404.124c-0.956-0.27-1.515-1.283-1.238-2.248l12.132-42.071c0.74-2.576-0.736-5.265-3.318-6.01
	c-2.578-0.741-5.265,0.741-6.006,3.32l-12.135,42.067c-0.278,0.963-1.287,1.521-2.246,1.246l-1.545-0.446
	c-0.955-0.275-1.514-1.282-1.236-2.247l11.602-40.233c0.662-2.296-0.664-4.698-2.962-5.359c-2.298-0.657-4.698,0.665-5.356,2.96
	l-11.602,40.234c-0.279,0.962-1.294,1.516-2.248,1.243l-0.964-0.278c-0.955-0.276-1.513-1.289-1.235-2.248l10.58-36.689
	c0.615-2.136-0.614-4.371-2.754-4.988c-2.136-0.617-4.369,0.613-4.986,2.755l-10.858,37.642l-0.007-0.004l-9.942,34.461
	c-0.967,3.35-0.64,8.734,0.723,11.95l3.905,9.204c1.368,3.211,1.764,8.324,0.893,11.357l-0.334,1.15l-1.43,4.972l34.535,9.96
	l1.428-4.975l0.295-0.749c0.817-2.833,4.167-6.154,7.443-7.368l2.982-1.112c3.276-1.222,7.93-4.278,10.352-6.8l29.967-31.234
	c2.418-2.518,2.325-5.061-0.217-5.647c-2.531-0.58-6.939,0.596-9.793,2.614l-18.701,13.251c-2.852,2.009-4.395,0.923-3.425-2.431
	l6.311-21.881L420.931,404.124z"/>
<polygon fill="#F2EFDE" points="448.318,386.575 435.45,389.136 446.65,392.362 "/>
<polygon fill="#F2EFDE" points="431.473,379.138 429.67,385.393 443.526,382.634 "/>
<polygon fill="#F2EFDE" points="427.791,391.927 445.319,396.979 443.003,405.036 425.465,399.976 "/>
<polygon fill="#F2EFDE" points="447.335,369.438 435.271,365.96 433.476,372.199 "/>
<path fill="#F2EFDE" d="M454.088,366.388c1.09-4.691-1.637-9.469-6.32-10.814c-4.686-1.355-9.537,1.24-11.112,5.789L454.088,366.388
	z"/>
<polygon fill="#F2EFDE" points="438.318,376.134 450.336,379.595 452.129,373.382 "/>
<path id="picture-multi-4-icon_1_" fill="#F2EFDE" d="M546.447,327.052l-41.115,209.178l-199.701-39.26l7.236-36.829l33.869-172.338
	l133.193,26.173L546.447,327.052z M346.736,287.802l111.406,21.894 M521.002,344.135l-157.18-30.896L336.31,453.233l157.181,30.893
	L521.002,344.135z"/>
</svg>
