<?xml version="1.0" encoding="utf-8"?>
<!-- Generator: Adobe Illustrator 15.0.0, SVG Export Plug-In . SVG Version: 6.00 Build 0)  -->
<!DOCTYPE svg PUBLIC "-//W3C//DTD SVG 1.1//EN" "http://www.w3.org/Graphics/SVG/1.1/DTD/svg11.dtd" [
	<!ENTITY ns_extend "http://ns.adobe.com/Extensibility/1.0/">
	<!ENTITY ns_ai "http://ns.adobe.com/AdobeIllustrator/10.0/">
	<!ENTITY ns_graphs "http://ns.adobe.com/Graphs/1.0/">
	<!ENTITY ns_vars "http://ns.adobe.com/Variables/1.0/">
	<!ENTITY ns_imrep "http://ns.adobe.com/ImageReplacement/1.0/">
	<!ENTITY ns_sfw "http://ns.adobe.com/SaveForWeb/1.0/">
	<!ENTITY ns_custom "http://ns.adobe.com/GenericCustomNamespace/1.0/">
	<!ENTITY ns_adobe_xpath "http://ns.adobe.com/XPath/1.0/">
]>
<svg version="1.1" id="Layer_1" xmlns:x="&ns_extend;" xmlns:i="&ns_ai;" xmlns:graph="&ns_graphs;"
	 xmlns="http://www.w3.org/2000/svg" xmlns:xlink="http://www.w3.org/1999/xlink" x="0px" y="0px" width="576px" height="288px"
	 viewBox="0 0 576 288" enable-background="new 0 0 576 288" xml:space="preserve">
<metadata>
	<sfw  xmlns="&ns_sfw;">
		<slices></slices>
		<sliceSourceBounds  x="220.5" y="505.612" width="259.102" height="262.632" bottomLeftOrigin="true"></sliceSourceBounds>
	</sfw>
</metadata>
<path fill="#FFFFFF" stroke="#EC4136" stroke-miterlimit="10" d="M407.602,113.385c0-27.771-15.095-54.578-30.693-54.578
	l-0.009-0.008c-15.604,0-30.698,26.815-30.69,54.586c0,12.244,9.125,22.488,21.646,25.941c-0.093,0.797-0.156,1.602-0.156,2.438
	v120.623c0,8.111,4.135,14.742,9.203,14.734c5.073,0.008,9.214-6.629,9.214-14.734V141.764c0-0.836-0.066-1.641-0.155-2.438
	C398.456,135.875,407.602,125.63,407.602,113.385z"/>
<path fill="#FFFFFF" stroke="#EC4136" stroke-miterlimit="10" d="M328.76,133.857v-13.647V106.56V62.21
	c0-1.879-1.334-3.41-2.981-3.41s-2.983,1.531-2.983,3.41v44.35c0,2.51-1.782,4.557-3.982,4.557c-2.199-0.004-3.98-2.041-3.98-4.557
	V62.21c0.004-1.879-1.336-3.41-2.98-3.41c-1.644,0-2.982,1.523-2.982,3.416v44.361c-0.013,2.504-1.781,4.539-3.979,4.539
	c-2.203,0-3.982-2.041-3.982-4.558v-44.35c0-1.879-1.332-3.41-2.986-3.41c-1.646,0-2.98,1.531-2.98,3.41v44.35
	c0,2.511-1.781,4.558-3.98,4.554c-2.193,0-3.973-2.037-3.984-4.554v-44.35c0-1.879-1.328-3.41-2.98-3.41
	c-1.65,0-2.984,1.531-2.984,3.41v44.35L281,120.213v13.644c0.01,2.864,6.238,5.312,15.027,6.319
	c-0.033,0.533-0.104,1.05-0.098,1.588v120.623c-0.008,8.111,4.029,14.734,8.957,14.734c4.917,0.008,8.951-6.629,8.951-14.734
	V141.764c0-0.543-0.062-1.055-0.096-1.588C322.527,139.169,328.754,136.721,328.76,133.857z"/>
<rect x="222.674" y="74.215" fill="#FFFFFF" stroke="#EC4136" stroke-miterlimit="10" width="14.643" height="40.679"/>
<path fill="#FFFFFF" stroke="#EC4136" stroke-miterlimit="10" d="M173.785,45.451c0,0-1.629-13.84,0.441-17.766
	c2.305-4.373,14.719-9.812,17.184-10.058c1.594-0.16,16.242,1.617,19.801,6.086c3.205,4.026,2.184,18.926,2.184,18.926"/>
<path fill="none" stroke="#FFFFFF" stroke-width="2" stroke-miterlimit="10" d="M183.004,41.623
	c-0.301-11.686,3.707-17.562,8.406-23.994c0,0,10.242,6.994,12.246,10.727c1.516,2.822,2.168,12.844,2.168,12.844"/>
<path fill="#FFFFFF" d="M175.457,46.917c0.754,7.414,2.207,14.766,3.016,16.344c2.445,4.768,7.672,6.375,16.193,6.283
	c8.521,0.092,13.748-1.516,16.195-6.283c0.783-1.527,2.17-8.465,2.939-15.629c0.168-1.57,0.305-3.148,0.404-4.682"/>
<g>
	<path fill="#FFFFFF" d="M170.326,49.314c1.818-8.347,18.103-9.248,25.021-9.248c9.574,0,22.884,1.821,22.974,5.24l0.015,0.572
		l-0.568-0.062c-4.878-0.526-9.622-0.795-14.101-0.795c-13.16,0-22.136,2.246-29.348,4.051c-1.176,0.295-2.302,0.576-3.388,0.834
		l-0.773,0.183L170.326,49.314z"/>
	<g>
		<path fill="#EC4136" d="M195.346,40.566c11.375,0,22.409,2.269,22.474,4.754c-5.202-0.562-9.894-0.799-14.155-0.799
			c-15.383,0-25.137,3.07-32.851,4.897C172.249,42.833,183.968,40.566,195.346,40.566 M195.346,39.566
			c-7.039,0-23.613,0.939-25.509,9.641l-0.338,1.552l1.546-0.366c1.088-0.258,2.216-0.539,3.394-0.835
			c7.186-1.798,16.128-4.036,29.227-4.036c4.461,0,9.187,0.268,14.047,0.793l1.137,0.123l-0.03-1.145
			C218.706,40.965,202.956,39.566,195.346,39.566L195.346,39.566z"/>
	</g>
</g>
<path fill="#FFFFFF" stroke="#EC4136" stroke-miterlimit="10" d="M155.293,74.215c-2.457-0.017-4.473,1.942-4.484,4.404
	c-0.328,20.805-0.086,41.254-0.086,61.965v10.583c0,2.457,2.027,4.4,4.488,4.4h5.926c2.457,0,4.398-1.943,4.398-4.4v-12.529
	c-0.043-20.024-0.004-41.948,0.086-59.938c0.016-2.457-1.941-4.386-4.402-4.398L155.293,74.215z"/>
<path fill="#FFFFFF" stroke="#EC4136" stroke-miterlimit="10" d="M174.338,72.777c-3.275,0-5.924,2.646-5.924,5.924v69.5
	l3.129,14.824c0.016,2.645-0.039,49.684,0,52.311c0.004,0.17,0.076,0.336,0.086,0.508c-0.102,0.551-0.164,1.117-0.166,1.689v45.971
	c2.287-3.133,5.9-5.154,9.904-4.992c3.875,0.146,7.213,2.336,9.309,5.5v-46.479c0-0.344-0.043-0.676-0.082-1.016
	c0.062-0.449,0.168-0.889,0.168-1.354c-0.023-2.57,0.016-31.311,0-33.898h7.363c0.018,2.646-0.043,31.439,0,34.066
	c0.004,0.17,0.074,0.336,0.086,0.508c-0.1,0.553-0.164,1.117-0.17,1.691v46.73c2.24-3.58,6.1-5.926,10.416-5.754
	c3.59,0.141,6.688,2.039,8.803,4.824v-45.803c0-0.232-0.064-0.447-0.088-0.676c0.102-0.557,0.172-1.109,0.172-1.689
	c-0.027-2.57,0.012-49.561,0-52.143l2.877-14.824v-69.5c0-3.276-2.643-5.924-5.924-5.924h-4.062c1.791,2.533,1.5,9.779,1.438,12.104
	c-0.066,2.414-0.195,4.233-1.777,5.844s-7.025,2.285-7.025,2.285l-3.725,0.252l3.215,4.062l-3.977,0.937l-1.949,4.736l-0.086,44.361
	c0,1.902-0.416,5.443,1.863,6.771c2.531,1.477,6.434,2.289,6.434,2.289l-20.23,0.172c3.523-0.586,7.023-0.457,9.143-3.139
	c0.578-0.783,0.904-4.076,0.93-5.672l-0.17-44.441l-2.539-5.078l-3.977-0.937l3.217-4.062l-3.725-0.252c0,0-5.449-0.676-7.027-2.285
	c-1.582-1.608-1.711-3.43-1.777-5.844c-0.062-2.369-0.062-9.713,1.863-12.104h-6.016V72.777L174.338,72.777z"/>
<path fill="#FFFFFF" stroke="#EC4136" stroke-miterlimit="10" d="M181.367,260.625c-4.559-0.186-8.48,2.896-9.904,7.279v5.926
	c0,2.461,2.025,0.672,4.486,0.672h10.326c1.537,0,4.197,0.578,4.318,0.172c0.02-0.074-0.021-0.176,0-0.254
	c0.027-0.205,0.082-0.377,0.082-0.59v-5.246C189.572,264.123,185.908,260.805,181.367,260.625L181.367,260.625z"/>
<rect x="171.463" y="272.199" fill="#FFFFFF" stroke="#EC4136" stroke-miterlimit="10" width="19.213" height="3.508"/>
<rect x="185.34" y="274.885" fill="#FFFFFF" stroke="#EC4136" stroke-miterlimit="10" width="5.336" height="3.504"/>
<rect x="178.398" y="274.885" fill="#FFFFFF" stroke="#EC4136" stroke-miterlimit="10" width="5.34" height="3.504"/>
<rect x="171.463" y="274.885" fill="#FFFFFF" stroke="#EC4136" stroke-miterlimit="10" width="5.338" height="3.504"/>
<line fill="none" stroke="#FFFFFF" stroke-width="1.5" stroke-miterlimit="10" x1="170.527" y1="273.027" x2="191.611" y2="273.027"/>
<path fill="#FFFFFF" stroke="#EC4136" stroke-miterlimit="10" d="M208.371,260.625c-4.555-0.186-8.477,2.896-9.898,7.279v5.926
	c0,2.461,2.023,0.672,4.484,0.672h10.328c1.535,0,4.195,0.578,4.318,0.172c0.021-0.074-0.023-0.176,0-0.254
	c0.025-0.205,0.08-0.377,0.08-0.59v-5.246C216.58,264.123,212.916,260.805,208.371,260.625L208.371,260.625z"/>
<rect x="198.471" y="272.199" fill="#FFFFFF" stroke="#EC4136" stroke-miterlimit="10" width="19.213" height="3.508"/>
<rect x="212.348" y="274.885" fill="#FFFFFF" stroke="#EC4136" stroke-miterlimit="10" width="5.336" height="3.504"/>
<rect x="205.408" y="274.885" fill="#FFFFFF" stroke="#EC4136" stroke-miterlimit="10" width="5.342" height="3.504"/>
<rect x="198.473" y="274.885" fill="#FFFFFF" stroke="#EC4136" stroke-miterlimit="10" width="5.34" height="3.504"/>
<line fill="none" stroke="#FFFFFF" stroke-width="1.5" stroke-miterlimit="10" x1="197.539" y1="273.027" x2="218.619" y2="273.027"/>
<polyline fill="none" stroke="#000000" stroke-miterlimit="10" points="202.361,73.801 204.113,85.812 194.602,98.496 
	185.344,85.812 187.094,73.801 "/>
<g>
	<polygon fill="#FFFFFF" points="220.625,169.629 168.578,169.629 168.578,71.924 178.59,71.924 190.02,98.621 198.828,99.003 
		208.613,71.924 220.625,71.924 	"/>
	<polygon fill="none" stroke="#EC4136" stroke-miterlimit="10" points="220.625,169.629 168.578,169.629 168.578,71.924 
		178.59,71.924 190.02,98.621 198.828,99.003 208.613,71.924 220.625,71.924 	"/>
</g>
<polygon fill="#FFFFFF" stroke="#EC4136" stroke-miterlimit="10" points="187.094,73.801 185.344,85.812 196.605,100.822 
	196.605,169.629 192.477,169.629 192.477,103.324 181.59,88.312 170.082,87.812 179.338,69.546 "/>
<polygon fill="#FFFFFF" stroke="#EC4136" stroke-miterlimit="10" points="202.361,73.801 204.113,85.812 192.852,100.822 
	192.852,169.629 196.979,169.629 196.979,103.324 207.867,88.312 219.377,87.812 210.119,69.546 "/>
<ellipse fill="#FFFFFF" stroke="#EC4136" stroke-miterlimit="10" cx="194.833" cy="62.371" rx="7.901" ry="4.816"/>
<path fill="#010101" stroke="#EC4136" stroke-miterlimit="10" d="M216.504,88.057l-18.883,5.729
	c-1.332,0.404-2.383,0.383-3.113-0.064c-0.609-0.373-0.785-0.918-0.826-1.086l-3.322-10.951c-0.863-2.846-0.234-4.361,0.254-5.041
	c-1.525-2.123-1.68-4.383-0.434-6.567c1.387-2.822,4.496-5.236,8.33-6.46l0.484-0.147c3.908-1.127,7.861-0.838,10.592,0.771
	c1.891,0.968,2.961,2.502,3.184,4.554c0.035,0.28,0.053,0.573,0.043,0.867c0,0.081,0,0.166-0.004,0.25
	c0.781,0.291,2.148,1.202,3.012,4.051l3.322,10.949c0.061,0.166,0.217,0.713-0.08,1.36
	C218.703,87.049,217.844,87.652,216.504,88.057z M194.82,92.381c0,0,0.062,0.211,0.32,0.358c0.432,0.242,1.191,0.216,2.145-0.071
	l18.881-5.731c0.953-0.289,1.6-0.689,1.82-1.127c0.139-0.275,0.064-0.484,0.062-0.494l-0.016-0.031l-0.002-0.016l-3.327-10.974
	c-0.973-3.199-2.521-3.354-2.535-3.354l-0.625-0.017l0.07-0.621c0.02-0.219,0.031-0.44,0.031-0.664
	c0.006-0.243-0.004-0.479-0.035-0.711c-0.184-1.676-1.023-2.866-2.57-3.655l-0.035-0.019c-2.455-1.459-6.072-1.705-9.68-0.666
	l-0.465,0.142c-3.535,1.129-6.395,3.327-7.641,5.875l-0.02,0.034c-1.102,1.927-0.895,3.779,0.625,5.673l0.391,0.483l-0.508,0.356
	c0,0.002-1.203,0.99-0.23,4.193L194.82,92.381L194.82,92.381z"/>
<path fill="#FFFFFF" stroke="#EC4136" stroke-miterlimit="10" d="M194.82,92.381c0,0,0.062,0.211,0.32,0.358
	c0.432,0.242,1.191,0.216,2.145-0.071l18.881-5.731c0.953-0.289,1.6-0.689,1.82-1.127c0.139-0.275,0.064-0.484,0.062-0.494
	l-0.016-0.031l-0.002-0.016l-3.327-10.974c-0.973-3.199-2.521-3.354-2.535-3.354l-0.625-0.017l0.07-0.621
	c0.02-0.219,0.031-0.44,0.031-0.664c0.006-0.243-0.004-0.479-0.035-0.711c-0.184-1.676-1.023-2.866-2.57-3.655l-0.035-0.019
	c-2.455-1.459-6.072-1.705-9.68-0.666l-0.465,0.142c-3.535,1.129-6.395,3.327-7.641,5.875l-0.02,0.034
	c-1.102,1.927-0.895,3.779,0.625,5.673l0.391,0.483l-0.508,0.356c0,0.002-1.203,0.99-0.23,4.193L194.82,92.381L194.82,92.381z"/>
<rect x="212.053" y="84.717" transform="matrix(-0.8199 0.5725 -0.5725 -0.8199 459.3838 65.5893)" fill="#FFFFFF" stroke="#EC4136" stroke-miterlimit="10" width="14.643" height="40.676"/>
<rect x="149.5" y="135.717" fill="#FFFFFF" stroke="#EC4136" stroke-miterlimit="10" width="17.262" height="9.353"/>
<rect x="202.127" y="88.232" transform="matrix(0.8509 -0.5254 0.5254 0.8509 -17.3795 124.5891)" fill="#FFFFFF" stroke="#EC4136" stroke-miterlimit="10" width="17.26" height="9.349"/>
</svg>
