<?xml version="1.0" encoding="utf-8"?>
<!-- Generator: Adobe Illustrator 15.0.0, SVG Export Plug-In . SVG Version: 6.00 Build 0)  -->
<!DOCTYPE svg PUBLIC "-//W3C//DTD SVG 1.1//EN" "http://www.w3.org/Graphics/SVG/1.1/DTD/svg11.dtd" [
	<!ENTITY ns_extend "http://ns.adobe.com/Extensibility/1.0/">
	<!ENTITY ns_ai "http://ns.adobe.com/AdobeIllustrator/10.0/">
	<!ENTITY ns_graphs "http://ns.adobe.com/Graphs/1.0/">
	<!ENTITY ns_vars "http://ns.adobe.com/Variables/1.0/">
	<!ENTITY ns_imrep "http://ns.adobe.com/ImageReplacement/1.0/">
	<!ENTITY ns_sfw "http://ns.adobe.com/SaveForWeb/1.0/">
	<!ENTITY ns_custom "http://ns.adobe.com/GenericCustomNamespace/1.0/">
	<!ENTITY ns_adobe_xpath "http://ns.adobe.com/XPath/1.0/">
]>
<svg version="1.1" id="Layer_1" xmlns:x="&ns_extend;" xmlns:i="&ns_ai;" xmlns:graph="&ns_graphs;"
	 xmlns="http://www.w3.org/2000/svg" xmlns:xlink="http://www.w3.org/1999/xlink" x="0px" y="0px" width="576px" height="576px"
	 viewBox="0 0 576 576" enable-background="new 0 0 576 576" xml:space="preserve">
<metadata>
	<sfw  xmlns="&ns_sfw;">
		<slices></slices>
		<sliceSourceBounds  x="201.499" y="358.053" width="417.41" height="420.447" bottomLeftOrigin="true"></sliceSourceBounds>
	</sfw>
</metadata>
<rect x="213.458" y="415.751" fill="#FAF6DD" width="31.242" height="4.696"/>
<g>
	<path fill="#FAF6DD" d="M244.698,408.873c-1.799-7.257-7.755-12.649-15.14-12.941c-7.405-0.298-13.783,4.708-16.098,11.837v5.188
		h31.238V408.873z"/>
</g>
<rect x="169.839" y="415.751" fill="#FAF6DD" width="31.242" height="4.696"/>
<g>
	<path fill="#FAF6DD" d="M201.08,408.873c-1.799-7.257-7.755-12.649-15.14-12.941c-7.405-0.298-13.783,4.708-16.098,11.837v5.188
		h31.238V408.873z"/>
</g>
<polyline fill="#FAF6DD" points="219.799,116.6 207.789,132.61 191.95,110.914 194.844,91.084 196.343,91.304 193.539,110.521 
	207.806,130.062 218.651,115.606 "/>
<path fill="#FAF6DD" d="M245.546,46.4c-0.348-2.621-3.656-5.693-7.109-7.491c0.043-0.583,0.041-0.783,0.041-0.783
	c0.26-6.283,0.531-23.081-3.679-28.367C229.964,3.686,212.55,0.676,205.44,0c4.584,3.266,15.681,11.5,18.413,16.588
	c2.546,4.74,3.589,19.796,3.699,21.497l-3.022,0.196c-0.289-4.44-1.453-16.737-3.346-20.26
	c-2.329-4.338-13.005-12.399-18.225-16.069c-6.799,9.337-12.977,18.568-12.505,36.885l-3.028,0.079
	c-0.492-19.138,6.135-29.184,12.904-38.498c-6.643,2.093-22.394,9.599-25.662,15.801c-2.849,5.403-1.389,22.352-0.873,27.428
	c-2.746,2.365-4.422,5.215-4.629,8.574C175.54,48.058,207.339,42.982,245.546,46.4z"/>
<path fill="#FAF6DD" d="M177.632,54.32c1.261,9.004,2.918,14.703,3.942,16.703c3.979,7.75,12.475,10.362,26.33,10.217
	c13.855,0.145,22.351-2.467,26.33-10.217c1.153-2.249,3.104-9.704,4.392-20.116C210.692,49.064,188.466,51.723,177.632,54.32z"/>
<polyline fill="#FAF6DD" points="220.985,116.156 207.78,133.284 191.155,111.123 194.095,90.975 197.093,91.413 194.335,110.312 
	207.813,128.279 217.175,116.134 "/>
<rect x="226.198" y="136.242" fill="#009144" width="20.234" height="3.673"/>
<polygon fill="#009144" points="226.198,152.985 236.649,157.64 246.433,152.985 246.433,142.944 226.198,142.944 "/>
<line fill="none" x1="262.856" y1="103.133" x2="264.976" y2="105.526"/>
<g>
	<path fill="#FAF6DD" d="M204.954,156.828v-16.121l-18.311-25.922l-2.142-0.093c2.785,7.198,10.225,26.398,15.602,40.274
		C201.689,155.632,203.31,156.25,204.954,156.828z"/>
	<path fill="#FAF6DD" d="M189.02,139.915h-17.912v-3.673h16.489c-4.404-11.367-7.212-18.617-8.402-21.694l-11.264-0.576
		l13.095-25.831c0,0-21.867-2.21-21.867,12.149c0,27.48,4.547,136.691,4.547,136.691h41.248v-16.723l-2.002-44.389
		C202.952,175.87,190.925,144.832,189.02,139.915z M191.341,152.985l-9.781,4.655l-10.452-4.655v-10.041h19.085l1.148,2.96V152.985z
		"/>
	<path fill="#FAF6DD" d="M246.409,111.734l1.135,2.238l-18.712,0.813l-18.311,25.922v17.877c8.654,2.435,17.911,3.706,27.297,3.708
		c5.688,0,11.329-0.467,16.873-1.324c0.683-19.462,1.28-38.45,1.517-51.199C253.13,110.44,249.849,111.11,246.409,111.734z"/>
	<path fill="#FAF6DD" d="M237.763,171.509c-9.416,0-18.537-1.138-27.242-3.354v13.699l6.685,17.246
		c2.004,3.864,6.066,7.067,12.078,9.525c6.09,2.488,13.261,3.75,21.314,3.75c0.724,0,1.444-0.018,2.166-0.037
		c0.468-11.858,1.043-26.787,1.594-42.008C248.841,171.109,243.277,171.509,237.763,171.509z"/>
	<path fill="#FAF6DD" d="M228.14,213.432c-6.738-2.756-11.486-6.347-13.729-10.159c-1.365-2.319-3.89-10.037-3.89-10.037v29.025
		v14.721h41.248c0,0,0.359-6.618,0.875-19.612c-0.681,0.018-1.362,0.036-2.044,0.036
		C242.151,217.406,234.593,216.069,228.14,213.432z"/>
</g>
<g>
	<path fill="#FAF6DD" d="M167.331,242.256c-0.013,23.529,2.952,75.324,3.004,78.524c0.003,0.278,0.119,0.551,0.135,0.827
		c-0.164,0.895-0.268,1.814-0.271,2.748v74.736c3.717-5.094,9.595-8.377,16.099-8.117c6.302,0.248,11.729,3.801,15.139,8.945
		v-75.564c0-0.555-0.074-1.097-0.135-1.646c0.102-0.733,0.274-1.446,0.274-2.201c-0.042-4.178,0.024-50.907,0-55.11h11.972
		c0.024,4.298-0.066,51.115,0,55.382c0.008,0.277,0.121,0.551,0.14,0.828c-0.165,0.894-0.267,1.813-0.276,2.748v75.977
		c3.639-5.818,9.917-9.637,16.932-9.357c5.835,0.23,10.873,3.316,14.312,7.849v-74.468c0-0.379-0.106-0.729-0.14-1.097
		c0.164-0.905,0.278-1.808,0.278-2.751c-0.034-3.129,2.998-54.777,3.005-78.253H167.331z"/>
</g>
<path fill="#FAF6DD" d="M308.335,335.396c3.578,2.002,8.815,6.129,11.367,8.867c-2.696-1.797-7.281-4.397-11.06-5.787
	c2.806,2.279,2.921,5.082,1.72,7.875c2.453,1.7,6.639,2.451,13.69,0.842C321.175,329.38,311.378,333.604,308.335,335.396z"/>
<path fill="#FAF6DD" d="M305.066,337.588c0.226,2.646,0.009,5.277-0.637,7.86c0.029-2.567-0.445-5.06-1.311-7.458
	c-2.496,1.521-7.035,5.761,1.779,13.462C313.923,342.373,307.306,338.547,305.066,337.588z"/>
<path fill="#FAF6DD" d="M247.884,302.75c2.926-1.393,7.516-3.984,10.646-6.514c-3.397,1.236-5.857-0.104-7.637-2.571
	c-2.721,1.228-5.514,4.435-7.762,11.31c16.76,6.689,18.176-3.883,18.203-7.414C257.776,299.6,251.544,301.968,247.884,302.75z"/>
<path fill="#FAF6DD" d="M261.134,293.63c-2.387-1.168-4.531-2.708-6.415-4.588c2.188,1.347,4.569,2.219,7.07,2.711
	c-0.02-2.924-1.321-8.997-12.46-5.396C252.476,298.766,259.16,295.057,261.134,293.63z"/>
<polygon fill="#FAF6DD" points="318.798,319.928 317.091,318.135 305.993,328.386 305.837,314.212 317.562,302.667 315.956,300.923 
	305.779,309.104 305.48,282.085 302.602,282.085 302.43,295.643 297.6,291.079 295.645,292.9 302.355,301.15 301.958,332.111 
	284.335,348.393 284.335,313.759 276.784,306.534 278.755,285.793 278.755,285.793 289.175,274.479 287.661,272.879 
	279.323,279.798 280.609,266.255 277.94,265.959 275.255,286.636 261.077,273.856 259.554,275.386 274.625,291.493 273.128,303.036 
	263.183,293.521 261.789,294.867 280.245,315.41 280.245,368.745 284.335,368.745 284.335,354.104 "/>
<path fill="#FAF6DD" d="M312.741,281.905c-1.494,1.356-2.673,2.971-3.59,4.752c2.215,0.622,7.089,0.961,6.793-8.24
	c-10.062-0.323-8.718,5.534-8.066,7.336C309.278,284.206,310.909,282.92,312.741,281.905z"/>
<path fill="#FAF6DD" d="M297.214,283.255c-0.164-2.082,0.019-4.15,0.534-6.18c-0.033,2.02,0.329,3.98,1,5.871
	c1.97-1.188,5.559-4.502-1.346-10.594C290.271,279.456,295.46,282.493,297.214,283.255z"/>
<path fill="#FAF6DD" d="M271.782,275.817c-1.595-1.457-2.92-3.148-3.96-5.047c1.4,1.55,3.06,2.777,4.9,3.73
	c0.652-2.285,1.022-7.327-8.495-7.057C263.853,277.85,269.917,276.479,271.782,275.817z"/>
<path fill="#FAF6DD" d="M264.868,316.384c2.441-1.836,4.443-4.096,6.074-6.653c-3.246-1.246-10.541-2.443-11.389,11.459
	c15.113,1.9,13.905-7.111,13.182-9.918C270.407,313.405,267.769,315.114,264.868,316.384z"/>
<path fill="#FAF6DD" d="M295.811,291.188c0.647-1.803,1.994-7.66-8.067-7.336c-0.294,9.202,4.579,8.862,6.793,8.241
	c-0.917-1.781-2.097-3.395-3.588-4.753C292.777,288.354,294.408,289.641,295.811,291.188z"/>
<path fill="#FAF6DD" d="M285.61,304.85c10.455,5.065,12.566-0.727,12.984-3.597c-2.523,0.14-4.986,0.674-7.318,1.696
	c2.107-1.592,4.429-2.811,6.933-3.631C296.464,297.646,290.402,293.089,285.61,304.85z"/>
<path fill="#FAF6DD" d="M318.157,315.284c2.268-0.652,4.599-0.916,6.959-0.798c-2.24,0.416-4.332,1.258-6.273,2.425
	c1.754,1.915,6.23,5.144,11.429-3.865C320.803,306.743,318.606,313.169,318.157,315.284z"/>
<path fill="#FAF6DD" d="M307.319,294.494c0.936,2.449,3.932,7.142,12.153,0.624c-6.533-9.432-10.982-4.224-12.19-2.406
	c2.367,0.233,4.652,0.854,6.824,1.842C311.849,294.109,309.573,294.124,307.319,294.494z"/>
<path fill="#FAF6DD" d="M395.472,335.396c3.579,2.002,8.816,6.129,11.369,8.867c-2.697-1.797-7.283-4.397-11.06-5.787
	c2.804,2.279,2.921,5.082,1.72,7.875c2.452,1.7,6.639,2.451,13.688,0.842C408.312,329.38,398.515,333.604,395.472,335.396z"/>
<path fill="#FAF6DD" d="M392.206,337.588c0.225,2.646,0.006,5.277-0.637,7.86c0.027-2.567-0.446-5.06-1.312-7.458
	c-2.497,1.521-7.036,5.761,1.779,13.462C401.06,342.373,394.444,338.547,392.206,337.588z"/>
<path fill="#FAF6DD" d="M335.021,302.75c2.928-1.393,7.518-3.984,10.647-6.514c-3.397,1.236-5.859-0.104-7.638-2.571
	c-2.722,1.228-5.516,4.435-7.762,11.31c16.76,6.689,18.175-3.883,18.202-7.414C344.914,299.6,338.683,301.968,335.021,302.75z"/>
<path fill="#FAF6DD" d="M348.271,293.63c-2.387-1.168-4.531-2.708-6.416-4.588c2.188,1.347,4.569,2.219,7.07,2.711
	c-0.02-2.924-1.32-8.997-12.461-5.396C339.614,298.766,346.298,295.057,348.271,293.63z"/>
<polygon fill="#FAF6DD" points="405.935,319.928 404.229,318.135 393.132,328.386 392.975,314.212 404.7,302.667 403.095,300.923 
	392.919,309.104 392.62,282.085 389.739,282.085 389.565,295.643 384.735,291.079 382.782,292.9 389.493,301.15 389.096,332.111 
	371.472,348.393 371.472,313.759 363.922,306.534 365.895,285.793 365.895,285.793 376.312,274.479 374.8,272.879 366.462,279.798 
	367.747,266.255 365.077,265.959 362.395,286.636 348.215,273.856 346.69,275.386 361.763,291.493 360.266,303.036 350.321,293.521 
	348.927,294.867 367.383,315.41 367.383,368.745 371.472,368.745 371.472,354.104 "/>
<path fill="#FAF6DD" d="M399.878,281.905c-1.494,1.356-2.672,2.971-3.589,4.752c2.214,0.622,7.089,0.961,6.792-8.24
	c-10.062-0.323-8.715,5.534-8.066,7.336C396.417,284.206,398.047,282.92,399.878,281.905z"/>
<path fill="#FAF6DD" d="M384.354,283.255c-0.166-2.082,0.016-4.15,0.532-6.18c-0.032,2.02,0.33,3.98,1,5.871
	c1.972-1.188,5.56-4.502-1.346-10.594C377.409,279.456,382.597,282.493,384.354,283.255z"/>
<path fill="#FAF6DD" d="M358.921,275.817c-1.596-1.457-2.92-3.148-3.961-5.047c1.4,1.55,3.06,2.777,4.9,3.73
	c0.651-2.285,1.021-7.327-8.496-7.057C350.991,277.85,357.054,276.479,358.921,275.817z"/>
<path fill="#FAF6DD" d="M352.007,316.384c2.439-1.836,4.441-4.096,6.072-6.653c-3.244-1.246-10.541-2.443-11.39,11.459
	c15.113,1.9,13.906-7.111,13.185-9.918C357.546,313.405,354.907,315.114,352.007,316.384z"/>
<path fill="#FAF6DD" d="M382.948,291.188c0.647-1.803,1.994-7.66-8.068-7.336c-0.295,9.202,4.579,8.862,6.793,8.241
	c-0.916-1.781-2.097-3.395-3.588-4.753C379.915,288.354,381.546,289.641,382.948,291.188z"/>
<path fill="#FAF6DD" d="M372.747,304.85c10.455,5.065,12.565-0.727,12.986-3.597c-2.525,0.14-4.987,0.674-7.32,1.696
	c2.108-1.592,4.428-2.811,6.932-3.631C383.604,297.646,377.541,293.089,372.747,304.85z"/>
<path fill="#FAF6DD" d="M405.294,315.284c2.269-0.652,4.601-0.916,6.961-0.798c-2.242,0.416-4.334,1.258-6.273,2.425
	c1.754,1.915,6.229,5.144,11.428-3.865C407.94,306.743,405.743,313.169,405.294,315.284z"/>
<path fill="#FAF6DD" d="M394.456,294.494c0.936,2.449,3.934,7.142,12.156,0.624c-6.535-9.432-10.984-4.224-12.192-2.406
	c2.368,0.233,4.653,0.854,6.824,1.842C398.986,294.109,396.712,294.124,394.456,294.494z"/>
<path fill="#FAF6DD" d="M109.073,335.396c-3.578,2.002-8.814,6.129-11.369,8.867c2.697-1.797,7.284-4.397,11.061-5.787
	c-2.805,2.279-2.921,5.082-1.72,7.875c-2.452,1.7-6.639,2.451-13.69,0.842C96.233,329.38,106.03,333.604,109.073,335.396z"/>
<path fill="#FAF6DD" d="M112.339,337.588c-0.225,2.646-0.006,5.277,0.638,7.86c-0.028-2.567,0.446-5.06,1.311-7.458
	c2.497,1.521,7.036,5.761-1.778,13.462C103.485,342.373,110.101,338.547,112.339,337.588z"/>
<path fill="#FAF6DD" d="M169.525,302.75c-2.928-1.393-7.518-3.984-10.648-6.514c3.397,1.236,5.858-0.104,7.637-2.571
	c2.722,1.228,5.515,4.435,7.761,11.31c-16.758,6.689-18.174-3.883-18.201-7.414C159.631,299.6,165.863,301.968,169.525,302.75z"/>
<path fill="#FAF6DD" d="M156.274,293.63c2.386-1.168,4.531-2.708,6.414-4.588c-2.186,1.347-4.568,2.219-7.07,2.711
	c0.02-2.924,1.322-8.997,12.461-5.396C164.933,298.766,158.248,295.057,156.274,293.63z"/>
<polygon fill="#FAF6DD" points="98.61,319.928 100.317,318.135 111.413,328.386 111.571,314.212 99.845,302.667 101.45,300.923 
	111.626,309.104 111.925,282.085 114.807,282.085 114.979,295.643 119.809,291.079 121.763,292.9 115.052,301.15 115.45,332.111 
	133.073,348.393 133.073,313.759 140.623,306.534 138.653,285.793 138.653,285.793 128.232,274.479 129.746,272.879 
	138.084,279.798 136.798,266.255 139.468,265.959 142.151,286.636 156.331,273.856 157.854,275.386 142.782,291.493 144.28,303.036 
	154.226,293.521 155.618,294.867 137.162,315.41 137.162,368.745 133.073,368.745 133.073,354.104 "/>
<path fill="#FAF6DD" d="M104.667,281.905c1.494,1.356,2.672,2.971,3.59,4.752c-2.215,0.622-7.089,0.961-6.793-8.24
	c10.062-0.323,8.717,5.534,8.066,7.336C108.128,284.206,106.499,282.92,104.667,281.905z"/>
<path fill="#FAF6DD" d="M120.192,283.255c0.166-2.082-0.016-4.15-0.533-6.18c0.033,2.02-0.33,3.98-1,5.871
	c-1.97-1.188-5.559-4.502,1.346-10.594C127.136,279.456,121.948,282.493,120.192,283.255z"/>
<path fill="#FAF6DD" d="M145.626,275.817c1.594-1.457,2.92-3.148,3.959-5.047c-1.398,1.55-3.06,2.777-4.9,3.73
	c-0.652-2.285-1.021-7.327,8.496-7.057C153.554,277.85,147.491,276.479,145.626,275.817z"/>
<path fill="#FAF6DD" d="M152.538,316.384c-2.439-1.836-4.441-4.096-6.072-6.653c3.246-1.246,10.541-2.443,11.389,11.459
	c-15.112,1.9-13.906-7.111-13.184-9.918C147,313.405,149.638,315.114,152.538,316.384z"/>
<path fill="#FAF6DD" d="M121.597,291.188c-0.648-1.803-1.994-7.66,8.068-7.336c0.296,9.202-4.578,8.862-6.793,8.241
	c0.916-1.781,2.097-3.395,3.59-4.753C124.63,288.354,122.999,289.641,121.597,291.188z"/>
<path fill="#FAF6DD" d="M131.798,304.85c-10.455,5.065-12.566-0.727-12.986-3.597c2.525,0.14,4.987,0.674,7.32,1.696
	c-2.109-1.592-4.428-2.811-6.932-3.631C120.943,297.646,127.004,293.089,131.798,304.85z"/>
<path fill="#FAF6DD" d="M99.251,315.284c-2.268-0.652-4.6-0.916-6.961-0.798c2.242,0.416,4.334,1.258,6.275,2.425
	c-1.755,1.915-6.23,5.144-11.428-3.865C96.604,306.743,98.802,313.169,99.251,315.284z"/>
<path fill="#FAF6DD" d="M110.089,294.494c-0.936,2.449-3.932,7.142-12.155,0.624c6.534-9.432,10.984-4.224,12.192-2.406
	c-2.367,0.233-4.652,0.854-6.824,1.842C105.56,294.109,107.833,294.124,110.089,294.494z"/>
<path fill="#FAF6DD" d="M21.937,335.396c-3.579,2.002-8.816,6.129-11.369,8.867c2.696-1.797,7.283-4.397,11.059-5.787
	c-2.804,2.279-2.92,5.082-1.719,7.875c-2.451,1.7-6.639,2.451-13.691,0.842C9.096,329.38,18.893,333.604,21.937,335.396z"/>
<path fill="#FAF6DD" d="M25.202,337.588c-0.225,2.646-0.007,5.277,0.637,7.86c-0.029-2.567,0.445-5.06,1.311-7.458
	c2.496,1.521,7.037,5.761-1.779,13.462C16.348,342.373,22.964,338.547,25.202,337.588z"/>
<path fill="#FAF6DD" d="M82.388,302.75c-2.928-1.393-7.518-3.984-10.648-6.514c3.398,1.236,5.858-0.104,7.637-2.571
	c2.721,1.228,5.516,4.435,7.762,11.31c-16.759,6.689-18.175-3.883-18.203-7.414C72.493,299.6,78.726,301.968,82.388,302.75z"/>
<path fill="#FAF6DD" d="M69.137,293.63c2.386-1.168,4.53-2.708,6.415-4.588c-2.188,1.347-4.569,2.219-7.071,2.711
	c0.021-2.924,1.322-8.997,12.462-5.396C77.794,298.766,71.11,295.057,69.137,293.63z"/>
<polygon fill="#FAF6DD" points="11.473,319.928 13.179,318.135 24.276,328.386 24.433,314.212 12.706,302.667 14.313,300.923 
	24.489,309.104 24.788,282.085 27.669,282.085 27.841,295.643 32.671,291.079 34.626,292.9 27.914,301.15 28.312,332.111 
	45.936,348.393 45.936,313.759 53.485,306.534 51.516,285.793 51.516,285.793 41.095,274.479 42.608,272.879 50.946,279.798 
	49.661,266.255 52.331,265.959 55.015,286.636 69.192,273.856 70.716,275.386 55.646,291.493 57.143,303.036 67.087,293.521 
	68.48,294.867 50.024,315.41 50.024,368.745 45.936,368.745 45.936,354.104 "/>
<path fill="#FAF6DD" d="M17.529,281.905c1.494,1.356,2.672,2.971,3.589,4.752c-2.214,0.622-7.088,0.961-6.793-8.24
	c10.062-0.323,8.717,5.534,8.068,7.336C20.991,284.206,19.361,282.92,17.529,281.905z"/>
<path fill="#FAF6DD" d="M33.056,283.255c0.166-2.082-0.016-4.15-0.533-6.18c0.033,2.02-0.33,3.98-1.001,5.871
	c-1.97-1.188-5.558-4.502,1.346-10.594C39.998,279.456,34.811,282.493,33.056,283.255z"/>
<path fill="#FAF6DD" d="M58.487,275.817c1.595-1.457,2.92-3.148,3.961-5.047c-1.4,1.55-3.061,2.777-4.901,3.73
	c-0.652-2.285-1.021-7.327,8.497-7.057C66.417,277.85,60.353,276.479,58.487,275.817z"/>
<path fill="#FAF6DD" d="M65.401,316.384c-2.439-1.836-4.443-4.096-6.073-6.653c3.245-1.246,10.542-2.443,11.388,11.459
	c-15.111,1.9-13.904-7.111-13.182-9.918C59.862,313.405,62.501,315.114,65.401,316.384z"/>
<path fill="#FAF6DD" d="M34.46,291.188c-0.648-1.803-1.995-7.66,8.068-7.336c0.295,9.202-4.58,8.862-6.793,8.241
	c0.916-1.781,2.096-3.395,3.588-4.753C37.492,288.354,35.862,289.641,34.46,291.188z"/>
<path fill="#FAF6DD" d="M44.66,304.85c-10.455,5.065-12.565-0.727-12.985-3.597c2.525,0.14,4.986,0.674,7.319,1.696
	c-2.108-1.592-4.428-2.811-6.931-3.631C33.806,297.646,39.866,293.089,44.66,304.85z"/>
<path fill="#FAF6DD" d="M12.113,315.284c-2.268-0.652-4.6-0.916-6.96-0.798c2.241,0.416,4.333,1.258,6.273,2.425
	c-1.754,1.915-6.23,5.144-11.427-3.865C9.467,306.743,11.664,313.169,12.113,315.284z"/>
<path fill="#FAF6DD" d="M22.952,294.494c-0.936,2.449-3.933,7.142-12.156,0.624c6.535-9.432,10.984-4.224,12.191-2.406
	c-2.367,0.233-4.652,0.854-6.824,1.842C18.421,294.109,20.696,294.124,22.952,294.494z"/>
<g>
	<path fill="#FAF6DD" d="M154.62,99.441c0-4.165-3.408-7.573-7.573-7.573h-9.218c-4.165,0-7.572,3.408-7.572,7.573v92.522h24.363
		V99.441z"/>
	<path fill="#FAF6DD" d="M130.257,216.561c0,4.165,3.407,7.573,7.572,7.573h9.218c4.165,0,7.573-3.408,7.573-7.573v-6.617h-24.363
		V216.561z"/>
	<rect x="130.257" y="195.963" fill="#FAF6DD" width="24.363" height="9.981"/>
</g>
<g>
	<path fill="#FAF6DD" d="M288.691,203.276c-1.156,4.002,1.172,8.222,5.174,9.377l8.318,2.405c4.001,1.156,8.222-1.171,9.376-5.174
		l2.352-8.139l-22.873-6.592L288.691,203.276z"/>
	<polygon fill="#FAF6DD" points="292.147,191.311 315.021,197.902 317.792,188.312 294.918,181.72 	"/>
	<path fill="#FAF6DD" d="M323.381,143.457l-13.01-14.707l-7.938,26.954l-6.405,22.174l22.874,6.591l6.81-23.57
		C329.3,150.082,323.381,143.457,323.381,143.457z"/>
</g>
<g>
	<path fill="#FAF6DD" d="M258.132,168.207c-18.887,3.325-38.518,2.066-56.156-4.211c7.322,18.892,13.848,35.727,13.848,35.727
		c2.562,5.01,7.846,8.243,12.888,10.305c7.753,3.167,16.339,4.094,24.655,3.815c10.231-0.342,20.583-2.417,30.071-6.295
		l15.593-54.881C286.678,160.386,272.636,165.652,258.132,168.207z"/>
	<g>
		<path fill="#FAF6DD" d="M323.381,143.457l-13.324-15.061l-7.623,27.306l-13.742,47.572c-1.156,4.002,1.172,8.222,5.174,9.377
			l8.318,2.405c4.001,1.156,8.222-1.171,9.376-5.174l14.152-48.984C329.3,150.082,323.381,143.457,323.381,143.457z"/>
	</g>
</g>
<g>
	<path fill="#FAF6DD" d="M310.605,112.354c0.33-12.386,0.556-21.371,0.519-21.294c0.07-3.249-0.723-5.206-2.555-6.386
		c-8.271-5.331-39.877-5.692-65.917-1.077c-25.929,4.603-48.666,14.221-56.166,19.553c-2.102,1.491-6.236,4.449-4.523,9.179
		c0.086,0.237,8.527,22.024,16.957,43.781c32.545,13.954,73.855,8.467,102.748-12.722l8.826-31.065L310.605,112.354z M290.395,97.27
		c-9.785,4.736-20.141,7.756-30.54,10.134c-18.918,4.325-38.833,7.473-58.578,4.889c-2.346-0.31-4.708-0.716-7.062-1.294
		c11.232-9.106,34.716-15.563,50.688-18.355c16.534-2.89,48.595-3.905,54.783-0.746C296.717,94.01,293.574,95.733,290.395,97.27z"/>
	<path fill="#FAF6DD" d="M310.187,127.946l-3.193,11.238c1.004-0.854,1.992-1.725,2.958-2.62
		C310.03,133.673,310.109,130.785,310.187,127.946z"/>
</g>
</svg>
