<?xml version="1.0" encoding="utf-8"?>
<!-- Generator: Adobe Illustrator 15.0.0, SVG Export Plug-In . SVG Version: 6.00 Build 0)  -->
<!DOCTYPE svg PUBLIC "-//W3C//DTD SVG 1.1//EN" "http://www.w3.org/Graphics/SVG/1.1/DTD/svg11.dtd" [
	<!ENTITY ns_extend "http://ns.adobe.com/Extensibility/1.0/">
	<!ENTITY ns_ai "http://ns.adobe.com/AdobeIllustrator/10.0/">
	<!ENTITY ns_graphs "http://ns.adobe.com/Graphs/1.0/">
	<!ENTITY ns_vars "http://ns.adobe.com/Variables/1.0/">
	<!ENTITY ns_imrep "http://ns.adobe.com/ImageReplacement/1.0/">
	<!ENTITY ns_sfw "http://ns.adobe.com/SaveForWeb/1.0/">
	<!ENTITY ns_custom "http://ns.adobe.com/GenericCustomNamespace/1.0/">
	<!ENTITY ns_adobe_xpath "http://ns.adobe.com/XPath/1.0/">
]>
<svg version="1.1" id="Layer_1" xmlns:x="&ns_extend;" xmlns:i="&ns_ai;" xmlns:graph="&ns_graphs;"
	 xmlns="http://www.w3.org/2000/svg" xmlns:xlink="http://www.w3.org/1999/xlink" x="0px" y="0px" width="576px" height="288px"
	 viewBox="0 0 576 288" enable-background="new 0 0 576 288" xml:space="preserve">
<metadata>
	<sfw  xmlns="&ns_sfw;">
		<slices></slices>
		<sliceSourceBounds  height="264.575" width="260.812" y="467.379" x="348.289" bottomLeftOrigin="true"></sliceSourceBounds>
	</sfw>
</metadata>
<path fill="#FAF6DD" d="M407.602,113.385c0-27.771-15.095-54.578-30.692-54.578l-0.009-0.008c-15.604,0-30.698,26.815-30.69,54.586
	c0,12.244,9.125,22.488,21.646,25.941c-0.093,0.797-0.155,1.602-0.155,2.438v120.623c0,8.111,4.135,14.742,9.203,14.734
	c5.072,0.008,9.214-6.629,9.214-14.734V141.764c0-0.836-0.066-1.641-0.155-2.438C398.456,135.875,407.602,125.63,407.602,113.385z"
	/>
<path fill="#FAF6DD" d="M328.76,133.857V120.21v-13.65V62.21c0-1.879-1.334-3.41-2.98-3.41c-1.647,0-2.983,1.531-2.983,3.41v44.35
	c0,2.51-1.782,4.557-3.981,4.557c-2.199-0.004-3.98-2.041-3.98-4.557V62.21c0.004-1.879-1.336-3.41-2.98-3.41
	c-1.644,0-2.981,1.523-2.981,3.416v44.361c-0.013,2.504-1.781,4.539-3.979,4.539c-2.203,0-3.981-2.041-3.981-4.558v-44.35
	c0-1.879-1.332-3.41-2.986-3.41c-1.646,0-2.979,1.531-2.979,3.41v44.35c0,2.511-1.781,4.558-3.98,4.554
	c-2.193,0-3.973-2.037-3.984-4.554v-44.35c0-1.879-1.328-3.41-2.98-3.41c-1.65,0-2.984,1.531-2.984,3.41v44.35L281,120.213v13.644
	c0.01,2.864,6.238,5.312,15.027,6.319c-0.033,0.533-0.104,1.05-0.098,1.588v120.623c-0.009,8.111,4.028,14.734,8.957,14.734
	c4.916,0.008,8.95-6.629,8.95-14.734V141.764c0-0.543-0.062-1.055-0.096-1.588C322.527,139.169,328.754,136.721,328.76,133.857z"/>
<rect x="198.696" y="271.928" fill="#FAF6DD" width="19.492" height="2.93"/>
<g>
	<path fill="#FAF6DD" d="M218.188,267.637c-1.123-4.526-4.839-7.892-9.446-8.074c-4.62-0.186-8.6,2.938-10.043,7.386v3.236h19.49
		V267.637L218.188,267.637z"/>
</g>
<rect x="171.483" y="271.928" fill="#FAF6DD" width="19.491" height="2.93"/>
<g>
	<path fill="#FAF6DD" d="M190.974,267.637c-1.122-4.526-4.838-7.892-9.446-8.074c-4.62-0.186-8.598,2.938-10.042,7.386v3.236h19.489
		V267.637z"/>
</g>
<path fill="#FAF6DD" d="M218.716,41.494c-0.217-1.635-2.28-3.552-4.435-4.673c0.026-0.364,0.025-0.488,0.025-0.488
	c0.162-3.92,0.331-14.4-2.296-17.699c-3.016-3.789-13.88-5.666-18.316-6.088c2.86,2.038,9.782,7.175,11.488,10.349
	c1.588,2.957,2.239,12.35,2.308,13.412l-1.885,0.122c-0.181-2.77-0.907-10.442-2.088-12.64c-1.453-2.707-8.114-7.735-11.37-10.025
	c-4.242,5.825-8.096,11.584-7.802,23.013l-1.889,0.049c-0.308-11.939,3.828-18.208,8.051-24.019
	c-4.145,1.306-13.971,5.99-16.01,9.858c-1.777,3.371-0.867,13.946-0.545,17.112c-1.713,1.475-2.759,3.253-2.887,5.349
	C175.04,42.529,194.879,39.362,218.716,41.494z"/>
<g>
	<path fill="#FAF6DD" d="M169.918,163.686c-0.008,14.68,1.842,46.994,1.875,48.991c0.002,0.173,0.074,0.344,0.084,0.516
		c-0.102,0.559-0.167,1.132-0.169,1.715v46.626c2.319-3.178,5.986-5.226,10.044-5.064c3.932,0.156,7.317,2.372,9.445,5.581v-47.143
		c0-0.347-0.046-0.686-0.084-1.027c0.063-0.457,0.171-0.901,0.171-1.373c-0.026-2.607,0.015-31.76,0-34.382h7.47
		c0.015,2.683-0.042,31.89,0,34.552c0.005,0.173,0.076,0.344,0.087,0.517c-0.103,0.559-0.166,1.131-0.172,1.714v47.402
		c2.271-3.63,6.188-6.015,10.564-5.838c3.641,0.145,6.784,2.069,8.929,4.898v-46.461c0-0.236-0.065-0.455-0.087-0.685
		c0.102-0.564,0.174-1.129,0.174-1.716c-0.022-1.953,1.87-34.176,1.874-48.822L169.918,163.686L169.918,163.686z"/>
</g>
<g>
	<path fill="#FAF6DD" d="M161.988,74.586c0-2.598-2.126-4.724-4.725-4.724h-5.751c-2.599,0-4.724,2.126-4.724,4.724v57.724h15.2
		V74.586z"/>
	<path fill="#FAF6DD" d="M146.789,143.528v4.128c0,2.598,2.125,4.725,4.724,4.725h5.751c2.598,0,4.725-2.127,4.725-4.725v-4.128
		H146.789z"/>
	<rect x="146.789" y="134.805" fill="#FAF6DD" width="15.2" height="6.228"/>
</g>
<path fill="#FAF6DD" d="M242.944,74.586c0-2.598-2.126-4.724-4.725-4.724h-5.751c-2.599,0-4.724,2.126-4.724,4.724v50.194h15.2
	V74.586z"/>
<g>
	<path fill="#FAF6DD" d="M229.671,129.554c1.423,2.174,4.367,2.787,6.542,1.364l4.811-3.152c2.174-1.424,2.786-4.367,1.363-6.54
		L214.42,77.905l-12.715,8.329L229.671,129.554z"/>
	<path fill="#FAF6DD" d="M214.528,78.151l-2.261-3.453c-1.424-2.174-4.367-2.788-6.541-1.365l-4.811,3.15
		c-2.174,1.424-2.788,4.369-1.364,6.542l2.262,3.452L214.528,78.151z"/>
</g>
<path fill="#FAF6DD" d="M176.345,46.436c0.787,5.617,1.821,9.173,2.46,10.42c2.482,4.835,7.783,6.465,16.427,6.375
	c8.644,0.09,13.945-1.54,16.427-6.375c0.72-1.402,1.937-6.054,2.741-12.549C196.971,43.156,183.104,44.815,176.345,46.436z
	 M195.372,60.195c-3.989,0-7.222-1.972-7.222-4.402c0-2.432,3.233-4.403,7.222-4.403s7.222,1.971,7.222,4.403
	C202.594,58.223,199.361,60.195,195.372,60.195z"/>
<path fill="#FAF6DD" d="M194.025,88.946c-0.505,0-0.939-0.099-1.288-0.294c-0.566-0.321-0.742-0.797-0.783-0.935l-3.565-11.77
	c-0.881-2.9-0.252-4.426,0.205-5.082v-0.149l0.125-0.088c-1.675-2.24-1.858-4.539-0.544-6.838c1.432-2.926,4.688-5.449,8.702-6.731
	l0.507-0.156c4.098-1.181,8.269-0.87,11.081,0.801c1.912,0.974,3.005,2.532,3.233,4.623c0.035,0.26,0.05,0.557,0.043,0.882
	c0,0.159-0.005,0.325-0.016,0.493c0.686,0.189,2.263,0.97,3.239,4.181l3.585,11.818c0.101,0.333,0.054,0.774-0.141,1.162
	c-0.36,0.718-1.204,1.282-2.507,1.679l-20.147,6.115C195.111,88.849,194.53,88.946,194.025,88.946z M193.705,87.041
	c0.145,0.041,0.521,0.121,1.508-0.177l20.146-6.114c0.86-0.261,1.233-0.547,1.345-0.681l-3.53-11.643
	c-0.74-2.434-1.747-2.861-1.917-2.917l-1.604-0.044l0.189-1.675c0.016-0.183,0.028-0.392,0.028-0.604
	c0.005-0.247-0.004-0.447-0.029-0.633c-0.163-1.488-0.874-2.494-2.24-3.192l-0.062-0.033c-1.412-0.838-3.212-1.273-5.236-1.273
	c-1.432,0-2.907,0.216-4.384,0.641l-0.48,0.147c-3.527,1.127-6.367,3.291-7.586,5.785l-0.034,0.061
	c-1.003,1.756-0.823,3.298,0.568,5.033l1.045,1.292l-1.292,0.906c-0.099,0.13-0.698,1.047,0.042,3.484L193.705,87.041z
	 M193.705,87.041c0.145,0.041,0.521,0.121,1.508-0.177l20.146-6.114c0.86-0.261,1.233-0.547,1.345-0.681l-3.53-11.643
	c-0.74-2.434-1.747-2.861-1.917-2.917l-1.604-0.044l0.189-1.675c0.016-0.183,0.028-0.392,0.028-0.604
	c0.005-0.247-0.004-0.447-0.029-0.633c-0.163-1.488-0.874-2.494-2.24-3.192l-0.062-0.033c-1.412-0.838-3.212-1.273-5.236-1.273
	c-1.432,0-2.907,0.216-4.384,0.641l-0.48,0.147c-3.527,1.127-6.367,3.291-7.586,5.785l-0.034,0.061
	c-1.003,1.756-0.823,3.298,0.568,5.033l1.045,1.292l-1.292,0.906c-0.099,0.13-0.698,1.047,0.042,3.484L193.705,87.041z"/>
<path fill="#FAF6DD" d="M193.705,87.041c0.145,0.041,0.521,0.121,1.508-0.177l20.146-6.114c0.86-0.261,1.233-0.547,1.345-0.681
	l-3.53-11.643c-0.74-2.434-1.747-2.861-1.917-2.917l-1.604-0.044l0.189-1.675c0.016-0.183,0.028-0.392,0.028-0.604
	c0.005-0.247-0.004-0.447-0.029-0.633c-0.163-1.488-0.874-2.494-2.24-3.192l-0.062-0.033c-1.412-0.838-3.212-1.273-5.236-1.273
	c-1.432,0-2.907,0.216-4.384,0.641l-0.48,0.147c-3.527,1.127-6.367,3.291-7.586,5.785l-0.034,0.061
	c-1.003,1.756-0.823,3.298,0.568,5.033l1.045,1.292l-1.292,0.906c-0.099,0.13-0.698,1.047,0.042,3.484L193.705,87.041z"/>
<g>
	<path fill="#FFFFFF" d="M202.301,61.055c1.484,0,2.765,0.295,3.704,0.853l0.061,0.036l0.063,0.034l0.106,0.056
		c0.518,0.264,0.576,0.423,0.622,0.846l0.006,0.053l0.003,0.026c0,0,0.005,0.042,0.002,0.163l0,0.032v0.033
		c0,0.107-0.006,0.213-0.014,0.308l-0.184,1.634l-0.366,3.246l3.265,0.089l0.423,0.011c0.091,0.192,0.199,0.459,0.309,0.821
		l2.736,9.022l-17.254,5.236l-2.733-9.023c-0.109-0.358-0.169-0.639-0.201-0.85l0.302-0.212l2.632-1.846l-2.022-2.499l-1.037-1.281
		c-0.734-0.915-0.608-1.135-0.287-1.697l0.034-0.061l0.039-0.069l0.035-0.071c0.855-1.748,3.079-3.375,5.772-4.235l0.454-0.14
		C199.972,61.229,201.16,61.055,202.301,61.055 M202.301,58.055c-1.432,0-2.907,0.216-4.384,0.641l-0.48,0.147
		c-3.527,1.127-6.367,3.291-7.586,5.785l-0.034,0.061c-1.003,1.756-0.823,3.298,0.568,5.033l1.045,1.292l-1.292,0.906
		c-0.099,0.13-0.698,1.047,0.042,3.484l3.525,11.636c0.061,0.017,0.163,0.041,0.334,0.041c0.235,0,0.603-0.045,1.174-0.218
		l20.146-6.114c0.86-0.261,1.233-0.547,1.345-0.681l-3.53-11.643c-0.74-2.434-1.747-2.861-1.917-2.917l-1.604-0.044l0.189-1.675
		c0.016-0.183,0.028-0.392,0.028-0.604c0.005-0.247-0.004-0.447-0.029-0.633c-0.163-1.488-0.874-2.494-2.24-3.192l-0.062-0.033
		C206.125,58.49,204.325,58.055,202.301,58.055L202.301,58.055z"/>
</g>
<g>
	<g>
		<path fill="#FAF6DD" d="M188.375,99.837h-5.855h-9.62v-2.292h14.862c-2.748-7.091-4.5-11.614-5.242-13.534l-11.602-0.359
			l8.169-16.116c0,0-13.642-1.379-13.642,7.58c0,17.144,2.836,85.279,2.836,85.279h25.734v-10.433l-1.249-40.659
			C192.767,109.305,189.563,102.905,188.375,99.837z M185.522,107.992l-6.103,2.904l-6.52-2.904v-6.265h12.608l0.014,1.846V107.992z
			"/>
	</g>
	<path fill="#FAF6DD" d="M187.095,97.545"/>
	<polyline fill="#FAF6DD" points="188.375,99.837 187.762,97.545 185.511,97.545 185.511,101.618 188.958,101.618 	"/>
</g>
<g>
	<g>
		<path fill="#FAF6DD" d="M196.981,116.648l-1.249,33.315v10.433h25.734c0,0,2.837-68.136,2.837-85.279
			c0-8.958-10.823-7.893-10.823-7.893l4.158,13.757l-10.41,3.03c-0.743,1.919-2.495,6.443-5.242,13.534h14.862v2.292h-9.62h-5.855
			C200.185,102.905,196.981,116.649,196.981,116.648z M204.225,103.573l0.015-1.846h12.609v6.265l-6.521,2.904l-6.103-2.904V103.573
			z"/>
	</g>
	<path fill="#FAF6DD" d="M202.653,97.545"/>
	<polyline fill="#FAF6DD" points="201.373,99.837 201.986,97.545 204.237,97.545 204.237,101.618 200.79,101.618 	"/>
</g>
<path fill="#FAF6DD" d="M197.037,116.795c-0.167-1.676,0-25.814,0-25.814l12.338-4.101L197.037,116.795z"/>
<polygon fill="#FAF6DD" points="182.52,84.011 184.684,84.011 192.767,109.304 187.643,103.463 185.511,95.146 "/>
</svg>
