<?xml version="1.0" encoding="utf-8"?>
<!-- Generator: Adobe Illustrator 15.0.0, SVG Export Plug-In . SVG Version: 6.00 Build 0)  -->
<!DOCTYPE svg PUBLIC "-//W3C//DTD SVG 1.1//EN" "http://www.w3.org/Graphics/SVG/1.1/DTD/svg11.dtd" [
	<!ENTITY ns_extend "http://ns.adobe.com/Extensibility/1.0/">
	<!ENTITY ns_ai "http://ns.adobe.com/AdobeIllustrator/10.0/">
	<!ENTITY ns_graphs "http://ns.adobe.com/Graphs/1.0/">
	<!ENTITY ns_vars "http://ns.adobe.com/Variables/1.0/">
	<!ENTITY ns_imrep "http://ns.adobe.com/ImageReplacement/1.0/">
	<!ENTITY ns_sfw "http://ns.adobe.com/SaveForWeb/1.0/">
	<!ENTITY ns_custom "http://ns.adobe.com/GenericCustomNamespace/1.0/">
	<!ENTITY ns_adobe_xpath "http://ns.adobe.com/XPath/1.0/">
]>
<svg version="1.1" id="Layer_1" xmlns:x="&ns_extend;" xmlns:i="&ns_ai;" xmlns:graph="&ns_graphs;"
	 xmlns="http://www.w3.org/2000/svg" xmlns:xlink="http://www.w3.org/1999/xlink" x="0px" y="0px" width="576px" height="576px"
	 viewBox="0 0 576 576" enable-background="new 0 0 576 576" xml:space="preserve">
<metadata>
	<sfw  xmlns="&ns_sfw;">
		<slices></slices>
		<sliceSourceBounds  x="201.5" y="369.034" width="423.367" height="409.467" bottomLeftOrigin="true"></sliceSourceBounds>
	</sfw>
</metadata>
<path fill="#FAF6DD" d="M196.873,229.453l-23.764,18.536l52.42,64.524v68.461h32.057c0,0,4.929-67.785,0-83.891
	C253.23,282.856,196.873,229.453,196.873,229.453z"/>
<path fill="#FAF6DD" d="M183.316,221.722l-33.973,4.756l12.054,83.133l-20.081,62.926l32.663,10.467c0,0,21.156-55.729,22.721-70.92
	C198.658,293.038,183.316,221.722,183.316,221.722z"/>
<path fill="#FAF6DD" d="M252.843,81.625c0.144,9.134,6.865,15.46,19.858,21.62c12.856,6.435,21.982,7.829,29.266,2.311
	c2.266-1.714,8.82-9.616,15.207-19.714l-59.473-23.405C254.554,71.916,252.804,79.187,252.843,81.625z"/>
<path fill="#FAF6DD" d="M347.747,87.176L325.37,76.841c3.866-7.163,10.018-19.853,8.789-25.997
	c-1.646-8.193-16.839-19.641-23.315-23.784c2.785,5.38,9.357,18.724,9.473,24.938c0.103,5.453-5.57,19.001-6.844,21.971
	l-3.041-1.182c1.99-4.633,6.703-16.518,6.623-20.728c-0.097-5.301-6.353-18.27-9.546-24.35
	c-11.101,5.595-21.556,11.394-30.115,29.167l-2.936-1.414c8.939-18.567,20.224-24.927,31.289-30.515
	c-7.392-1.264-26.166-1.823-32.344,2.508c-4.611,3.228-10.355,16.104-13.174,22.956l-2.528,6.041c0,0,76.47,32.526,88.456,33.794"/>
<path fill="#FAF6DD" d="M272.881,396.812v-2.924v-0.197c0-4.484-3.668-8.152-8.152-8.152h-34.312c-4.482,0-8.151,3.668-8.151,8.152
	v0.197v2.924v8.149l0,0v4.504h15.479v-4.504h26.984h8.152V396.812z"/>
<path fill="#FAF6DD" d="M181.749,401.712l0.901-2.783l0.061-0.188c1.382-4.267-0.975-8.886-5.242-10.269l-32.644-10.576
	c-4.267-1.381-8.884,0.979-10.267,5.246l-0.063,0.185l-0.901,2.782l-2.512,7.755h0.003l-1.388,4.287l14.727,4.77l1.389-4.283
	l25.67,8.314l7.754,2.514L181.749,401.712z"/>
<circle fill="#FAF6DD" cx="126.792" cy="36.097" r="16.397"/>
<polygon fill="#FAF6DD" points="279.18,138.386 243.338,95.495 251.775,90.441 283.788,118.265 "/>
<path fill="#FAF6DD" d="M131.499,323.986c4.837-24.202,9.617-48.181,9.527-48.062c0.669-3.438,0.185-5.656-1.544-7.246
	c-7.805-7.158-41.273-13.299-69.739-13.146c-28.349,0.162-54.225,6.223-63.15,10.512c-2.5,1.205-7.429,3.588-6.471,8.92
	c0.045,0.266,5.034,24.918,10.012,49.537C45.325,347.311,96.057,347.093,131.499,323.986z M20.62,278.44
	c-2.433-0.754-4.866-1.619-7.261-2.656c13.579-7.621,39.668-10.191,57.123-10.246c18.068-0.055,52.268,4.709,58.258,9.189
	c-3.533,1.697-7.184,2.955-10.836,4.008c-11.244,3.24-22.781,4.559-34.248,5.188C62.799,285.067,41.096,284.776,20.62,278.44z"/>
<path fill="#FAF6DD" d="M70.752,348.116c-20.641,0.09-41.241-4.824-58.812-14.695c4.327,21.381,8.183,40.431,8.183,40.431
	c1.809,5.782,6.822,10.174,11.799,13.274c7.646,4.776,16.588,7.324,25.463,8.545c10.971,1.51,22.393,1.185,33.216-1.235
	c8.104-1.812,16.241-4.9,22.798-10.117c3.551-2.824,6.85-6.473,8.19-10.896c0,0,3.85-19.164,8.117-40.5
	C112.041,342.946,91.387,348.03,70.752,348.116z"/>
<path fill="#FAF6DD" d="M388.642,348.136c5.664,3.171,13.953,9.703,17.994,14.037c-4.267-2.844-11.526-6.961-17.508-9.157
	c4.443,3.608,4.624,8.045,2.723,12.467c3.883,2.69,10.51,3.879,21.675,1.332C408.967,338.611,393.459,345.296,388.642,348.136z"/>
<path fill="#FAF6DD" d="M383.47,351.607c0.356,4.188,0.011,8.353-1.01,12.441c0.048-4.064-0.703-8.01-2.073-11.805
	c-3.951,2.404-11.139,9.117,2.815,21.309C397.487,359.182,387.014,353.124,383.47,351.607z"/>
<path fill="#FAF6DD" d="M292.939,296.454c4.637-2.201,11.899-6.31,16.858-10.309c-5.38,1.955-9.276-0.168-12.093-4.074
	c-4.305,1.943-8.729,7.02-12.285,17.903c26.529,10.592,28.771-6.145,28.815-11.735C308.604,291.468,298.738,295.216,292.939,296.454
	z"/>
<path fill="#FAF6DD" d="M313.918,282.019c-3.775-1.85-7.174-4.289-10.154-7.264c3.461,2.129,7.231,3.512,11.192,4.289
	c-0.03-4.625-2.092-14.242-19.728-8.543C300.213,290.146,310.795,284.274,313.918,282.019z"/>
<polygon fill="#FAF6DD" points="405.204,323.646 402.502,320.811 384.934,337.038 384.686,314.6 403.252,296.325 400.707,293.562 
	384.597,306.516 384.126,263.741 379.565,263.741 379.291,285.202 371.646,277.978 368.55,280.862 379.177,293.925 378.546,342.938 
	350.646,368.708 350.646,313.882 338.693,302.446 341.814,269.61 341.814,269.61 358.31,251.7 355.914,249.165 342.715,260.118 
	344.75,238.681 340.524,238.21 336.273,270.944 313.83,250.714 311.415,253.136 335.276,278.634 332.903,296.907 317.164,281.845 
	314.956,283.976 344.174,316.497 344.174,400.931 350.646,400.931 350.646,377.749 "/>
<path fill="#FAF6DD" d="M395.615,263.458c-2.363,2.148-4.229,4.699-5.682,7.521c3.507,0.982,11.222,1.521,10.754-13.047
	c-15.929-0.51-13.799,8.762-12.772,11.615C390.135,267.097,392.717,265.062,395.615,263.458z"/>
<path fill="#FAF6DD" d="M371.038,265.593c-0.262-3.297,0.024-6.572,0.844-9.783c-0.054,3.197,0.522,6.303,1.582,9.295
	c3.118-1.881,8.799-7.129-2.13-16.771C360.045,259.579,368.258,264.386,371.038,265.593z"/>
<path fill="#FAF6DD" d="M330.776,253.817c-2.524-2.305-4.623-4.982-6.271-7.988c2.216,2.453,4.844,4.395,7.757,5.906
	c1.032-3.619,1.618-11.602-13.45-11.172C318.224,257.036,327.822,254.866,330.776,253.817z"/>
<path fill="#FAF6DD" d="M319.832,318.038c3.862-2.906,7.031-6.484,9.613-10.533c-5.14-1.975-16.688-3.869-18.03,18.14
	c23.926,3.01,22.015-11.259,20.871-15.699C328.599,313.323,324.424,316.027,319.832,318.038z"/>
<path fill="#FAF6DD" d="M368.814,278.151c1.025-2.854,3.155-12.125-12.772-11.613c-0.468,14.566,7.248,14.029,10.754,13.047
	c-1.452-2.824-3.317-5.375-5.681-7.525C364.013,273.667,366.595,275.702,368.814,278.151z"/>
<path fill="#FAF6DD" d="M352.667,299.777c16.549,8.021,19.893-1.147,20.555-5.692c-3.996,0.222-7.895,1.065-11.587,2.685
	c3.34-2.517,7.012-4.447,10.974-5.746C369.85,288.376,360.256,281.159,352.667,299.777z"/>
<path fill="#FAF6DD" d="M404.19,316.296c3.589-1.03,7.278-1.448,11.018-1.26c-3.55,0.655-6.858,1.989-9.932,3.838
	c2.776,3.028,9.861,8.142,18.091-6.121C408.378,302.773,404.9,312.948,404.19,316.296z"/>
<path fill="#FAF6DD" d="M387.033,283.386c1.479,3.877,6.225,11.306,19.243,0.986c-10.347-14.93-17.392-6.684-19.301-3.809
	c3.748,0.369,7.365,1.35,10.802,2.916C394.204,282.776,390.604,282.798,387.033,283.386z"/>
<path fill="#FAF6DD" d="M85.977,26.637c5.127,0.169,13.468-0.149,19.706-1.43c-5.675-0.729-8.165-4.404-8.874-9.165
	c-4.721-0.248-10.979,2.232-19.131,10.276c18.723,21.578,28.391,7.732,30.992,2.783C102.183,29.389,91.696,28.196,85.977,26.637z"/>
<path fill="#FAF6DD" d="M111.24,23.427c-2.51-3.375-4.41-7.1-5.694-11.11c2.098,3.479,4.817,6.436,7.98,8.945
	c2.091-4.127,4.671-13.616-13.614-16.639C95.33,24.367,107.428,24,111.24,23.427z"/>
<g>
	<polygon fill="#FAF6DD" points="313.434,198.554 301.705,224.953 311.885,229.453 323.613,203.055 	"/>
	<path fill="#FAF6DD" d="M334.427,207.836l-7.155-3.164l-11.728,26.398l7.205,3.185c1.25,0.553,2.57,0.834,3.934,0.834
		c3.885,0,7.404-2.285,8.971-5.825l3.768-8.526C341.603,215.804,339.36,210.016,334.427,207.836z"/>
	<path fill="#FAF6DD" d="M286.497,186.644l-9.02-59.488l-0.334-1.568l-0.271-1.817c-0.709-4.749-4.871-8.33-9.676-8.33
		c-0.478,0-0.967,0.035-1.453,0.108l-9.214,1.382c-5.333,0.8-9.021,5.789-8.221,11.133l3.76,24.466l0.332,1.58l6.413,42.714
		c0.06,0.425,1.646,10.456,13.737,15.24l25.496,11.271l11.729-26.399L286.497,186.644z"/>
</g>
<g>
	<path fill="#FAF6DD" d="M149.369,228.155c2.963,18.918,57.891,23.842,57.891,23.842s6.024-9.997,10.631-15.817l-59.75-35.392
		C155.486,207.06,148.974,225.63,149.369,228.155z"/>
	<path fill="#FAF6DD" d="M267.246,163.442c8.224-16.77,13.186-32.494,10.839-43.524c-2.56-12.027-16.487-21.802-28.5-28.164
		l-6.246,3.741l16.761,20.113l-2.305,1.921L238.79,94.723l7.65-4.582c-8.432-4.188-15.221-6.509-15.221-6.509
		s-52.518,72.553-71.09,112.687L221,232.221c10.535-13.52,23.83-29.111,36.962-51.584l-8.204-0.034l-7.966-9.393l4.687-9.742
		l17.485,8.411c0.514-0.97,1.017-1.937,1.511-2.902l-17.566-8.449l1.713-3.562L267.246,163.442z"/>
</g>
<g>
	<polygon fill="#FAF6DD" points="180.539,4.437 172.074,28.623 181.743,31.965 190.208,7.778 	"/>
	<path fill="#FAF6DD" d="M168.986,0.445c-4.238-1.467-8.903,0.806-10.368,5.041l-3.044,8.812c-1.462,4.238,0.806,8.903,5.044,10.366
		l7.675,2.652l8.465-24.186L168.986,0.445z"/>
	<path fill="#FAF6DD" d="M245.186,74.829l-0.089,0.025l-10.334-43.615c0,0-2.156-9.318-13.899-12.869l-26.875-9.286l-8.465,24.187
		l25.475,8.804l14.16,59.397l0.093-0.022l0.794,3.351c1.031,4.361,5.448,7.087,9.813,6.052l-0.176-14.663L248.199,89L245.186,74.829
		z"/>
</g>
</svg>
