<?xml version="1.0" encoding="utf-8"?>
<!-- Generator: Adobe Illustrator 15.0.0, SVG Export Plug-In  -->
<!DOCTYPE svg PUBLIC "-//W3C//DTD SVG 1.1//EN" "http://www.w3.org/Graphics/SVG/1.1/DTD/svg11.dtd" [
	<!ENTITY ns_flows "http://ns.adobe.com/Flows/1.0/">
]>
<svg version="1.1"
	 xmlns="http://www.w3.org/2000/svg" xmlns:xlink="http://www.w3.org/1999/xlink" xmlns:a="http://ns.adobe.com/AdobeSVGViewerExtensions/3.0/"
	 x="0px" y="0px" width="576px" height="576px" viewBox="-79.296 -57.433 576 576"
	 overflow="visible" enable-background="new -79.296 -57.433 576 576" xml:space="preserve">
<defs>
</defs>
<path fill="#FFFFFF" d="M165.243,211.641l5.092,24.096c0.02,4.298-0.07,80.775,0,85.043c0.003,0.278,0.119,0.551,0.135,0.828
	c-0.164,0.894-0.268,1.814-0.271,2.748v74.736c3.717-5.094,9.595-8.377,16.099-8.117c6.302,0.248,11.729,3.801,15.139,8.945v-75.564
	c0-0.555-0.074-1.097-0.135-1.646c0.102-0.734,0.274-1.447,0.274-2.201c-0.042-4.178,0.024-50.907,0-55.11h11.972
	c0.024,4.298-0.066,51.114,0,55.382c0.008,0.278,0.121,0.551,0.14,0.828c-0.165,0.894-0.267,1.814-0.276,2.748v75.977
	c3.639-5.819,9.917-9.636,16.932-9.357c5.835,0.23,10.873,3.316,14.312,7.848v-74.467c0-0.379-0.106-0.73-0.14-1.097
	c0.164-0.905,0.278-1.808,0.278-2.751c-0.046-4.178,0.021-80.568,0-84.771l4.677-24.096"/>
<path fill="#FFFFFF" d="M185.647,395.931c-7.406-0.297-13.785,4.709-16.099,11.838v9.635c0,3.997,3.294,1.092,7.294,1.092h16.788
	c2.499,0,6.827,0.935,7.021,0.278c0.035-0.121-0.033-0.287,0-0.411c0.045-0.338,0.135-0.615,0.135-0.959v-8.531
	C198.989,401.616,193.032,396.224,185.647,395.931L185.647,395.931z"/>
<rect x="169.547" y="414.75" fill="#FFFFFF" width="31.242" height="5.697"/>
<rect x="192.109" y="419.113" fill="#FFFFFF" width="8.68" height="5.7"/>
<rect x="180.827" y="419.113" fill="#FFFFFF" width="8.681" height="5.7"/>
<rect x="169.549" y="419.113" fill="#FFFFFF" width="8.681" height="5.7"/>
<rect x="168.03" y="414.958" fill="#009144" width="34.275" height="2.271"/>
<path fill="#FFFFFF" d="M229.558,395.931c-7.405-0.297-13.783,4.709-16.098,11.838v9.635c0,3.997,3.293,1.092,7.294,1.092h16.788
	c2.498,0,6.826,0.935,7.021,0.278c0.035-0.121-0.034-0.287,0-0.411c0.044-0.338,0.135-0.615,0.135-0.959v-8.531
	C242.899,401.616,236.943,396.224,229.558,395.931L229.558,395.931z"/>
<rect x="213.458" y="414.75" fill="#FFFFFF" width="31.242" height="5.697"/>
<rect x="236.021" y="419.113" fill="#FFFFFF" width="8.68" height="5.7"/>
<rect x="224.739" y="419.113" fill="#FFFFFF" width="8.68" height="5.7"/>
<rect x="213.46" y="419.113" fill="#FFFFFF" width="8.68" height="5.7"/>
<rect x="211.941" y="414.958" fill="#009144" width="34.274" height="2.271"/>
<polygon fill="#FFFFFF" points="207.789,132.61 191.95,110.914 194.844,91.084 196.343,91.304 193.539,110.521 207.806,130.062 
	222.47,110.515 219.667,91.304 221.166,91.084 224.06,110.92 "/>
<path fill="#FFFFFF" d="M245.546,46.4c-0.348-2.621-3.656-5.693-7.109-7.491c0.043-0.583,0.041-0.783,0.041-0.783
	c0.26-6.283,0.531-23.081-3.679-28.367C229.964,3.686,212.55,0.676,205.44,0c4.584,3.266,15.681,11.5,18.413,16.588
	c2.546,4.74,3.589,19.796,3.699,21.497l-3.022,0.196c-0.289-4.44-1.453-16.737-3.346-20.26
	c-2.329-4.338-13.005-12.399-18.225-16.069c-6.799,9.337-12.977,18.568-12.505,36.885l-3.028,0.079
	c-0.492-19.138,6.135-29.184,12.904-38.498c-6.643,2.093-22.394,9.599-25.662,15.801c-2.849,5.403-1.389,22.352-0.873,27.428
	c-2.746,2.365-4.422,5.215-4.629,8.574C175.54,48.058,207.339,42.982,245.546,46.4z"/>
<path fill="#FFFFFF" d="M177.632,52.318c1.261,9.004,2.918,16.705,3.942,18.705c3.979,7.75,12.475,10.362,26.33,10.217
	c13.855,0.145,22.351-2.467,26.33-10.217c1.153-2.249,3.104-11.706,4.392-22.118C210.692,47.062,188.466,49.721,177.632,52.318z"/>
<path fill="#FFFFFF" d="M154.62,216.561c0,4.165-3.408,7.573-7.573,7.573h-9.218c-4.165,0-7.572-3.408-7.572-7.573V99.441
	c0-4.165,3.407-7.573,7.572-7.573h9.218c4.165,0,7.573,3.408,7.573,7.573V216.561z"/>
<path fill="#FFFFFF" d="M323.381,143.457l-27.59-31.187l0.069-0.053l-15.176-17.279c-2.762-3.121-7.572-3.414-10.691-0.654
	l-6.481,5.736c-3.12,2.761-3.415,7.573-0.655,10.69l2.119,2.395l-0.066,0.059l37.524,42.538l-13.743,47.572
	c-1.156,4.002,1.172,8.222,5.174,9.377l8.318,2.405c4.002,1.156,8.222-1.171,9.377-5.174l14.152-48.984
	C329.3,150.082,323.381,143.457,323.381,143.457z"/>
<rect x="176.796" y="197.753" fill="#009144" width="59.52" height="48.164"/>
<polygon fill="#FFFFFF" points="207.78,133.284 191.155,111.123 194.095,90.975 197.093,91.413 194.335,110.312 207.813,128.279 
	221.673,110.301 218.917,91.413 221.915,90.975 224.856,111.135 "/>
<path fill="#FFFFFF" d="M204.954,246.991h-41.248c0,0-4.547-119.221-4.547-146.701c0-14.359,21.867-12.149,21.867-12.149
	l-13.095,25.831l18.712,0.813l18.311,25.922v79.552V246.991z"/>
<path fill="#FFFFFF" d="M210.521,246.991h41.248c0,0,4.547-119.221,4.547-146.701c0-14.359-21.867-12.149-21.867-12.149
	l13.095,25.831l-18.712,0.813l-18.311,25.922v79.552V246.991z"/>
<rect x="171.108" y="136.242" fill="#009144" width="20.232" height="3.673"/>
<polygon fill="#009144" points="171.108,152.985 181.56,157.64 191.341,152.985 191.341,142.944 171.108,142.944 "/>
<rect x="226.198" y="136.242" fill="#009144" width="20.234" height="3.673"/>
<polygon fill="#009144" points="226.198,152.985 236.649,157.64 246.433,152.985 246.433,142.944 226.198,142.944 "/>
<line fill="#FFFFFF" x1="262.856" y1="103.133" x2="264.976" y2="105.526"/>
<path fill="#009144" d="M201.277,112.293c-2.346-0.31-4.708-0.716-7.062-1.294c11.232-9.106,34.716-15.563,50.688-18.355
	c16.534-2.89,48.595-3.905,54.783-0.746c-2.969,2.112-6.112,3.835-9.292,5.372c-9.784,4.736-20.14,7.756-30.539,10.134
	C240.937,111.729,221.022,114.877,201.277,112.293z"/>
<path fill="#231F20" d="M216.118,113.985c-5.143,0-10.168-0.317-14.939-0.941c-2.633-0.348-4.971-0.776-7.145-1.31l-1.48-0.364
	l1.184-0.96c11.133-9.025,34.45-15.613,51.035-18.512c9.238-1.615,23.674-2.701,35.922-2.701c7.011,0,16.057,0.352,19.336,2.026
	l1.111,0.568l-1.018,0.724c-2.67,1.901-5.658,3.628-9.4,5.437c-8.471,4.1-18.227,7.338-30.701,10.191
	C248.126,110.863,232.384,113.985,216.118,113.985z M195.945,110.62c1.679,0.359,3.47,0.664,5.431,0.921
	c4.705,0.617,9.666,0.929,14.742,0.929c16.113,0,31.747-3.102,43.567-5.804c12.359-2.826,22.013-6.029,30.379-10.079
	c3.12-1.509,5.7-2.955,8.003-4.495c-3.056-0.884-9.211-1.381-17.373-1.381c-12.17,0-26.5,1.077-35.661,2.677
	C229.229,96.152,207.285,102.271,195.945,110.62z"/>
<polygon fill="#009144" points="197.126,159.057 203.337,175.086 267.479,184.741 309.491,161.556 309.718,133.416 "/>
<path fill="#FFFFFF" d="M309.951,136.564c0.627-22.918,1.233-45.625,1.173-45.504c0.07-3.249-0.723-5.206-2.555-6.386
	c-8.27-5.331-39.877-5.692-65.916-1.077c-25.929,4.603-48.666,14.221-56.166,19.553c-2.102,1.491-6.236,4.449-4.523,9.179
	c0.086,0.237,8.527,22.024,16.957,43.781C234.722,171.46,281.136,163.289,309.951,136.564z M201.277,112.293
	c-2.346-0.31-4.708-0.716-7.062-1.294c11.232-9.106,34.716-15.563,50.688-18.355c16.534-2.89,48.595-3.905,54.783-0.746
	c-2.969,2.112-6.112,3.835-9.292,5.372c-9.784,4.736-20.14,7.756-30.539,10.134C240.937,111.729,221.022,114.877,201.277,112.293z"
	/>
<path fill="#009144" d="M237.819,165.321c-0.003,0,0,0-0.002,0c-13.908-0.001-27.564-2.704-39.493-7.818l-0.585-0.251l-0.23-0.593
	c-11.189-28.881-16.887-43.586-16.968-43.812c-2.113-5.833,2.921-9.405,5.07-10.93c7.572-5.384,30.195-15.092,56.776-19.81
	c11.768-2.085,24.982-3.235,37.211-3.235c14.467,0,25.326,1.651,29.791,4.529c3.018,1.943,3.299,5.321,3.249,7.692l-0.089-0.001
	c0.092,1.38,0.003,4.814-0.242,14.222c-0.223,8.516-0.53,19.879-0.843,31.292l-0.017,0.636l-0.467,0.433
	C292.038,155.243,265.368,165.321,237.819,165.321z M200.103,154.966c11.415,4.794,24.439,7.324,37.715,7.326
	c26.572,0,52.276-9.619,70.637-26.407c0.785-28.706,1.064-39.738,1.139-43.309h-0.016l0.033-1.547
	c0.071-3.375-0.9-4.462-1.861-5.081c-3.932-2.534-14.455-4.047-28.15-4.047c-12.057,0-25.084,1.133-36.682,3.188
	c-25.831,4.586-48.42,14.226-55.552,19.297c-2.567,1.821-5.201,4.046-3.977,7.428C183.567,112.292,193.427,137.739,200.103,154.966z
	 M216.118,114.742c-5.176,0-10.234-0.319-15.037-0.948c-2.662-0.35-5.025-0.783-7.229-1.325l-2.959-0.727l2.367-1.92
	c11.246-9.117,34.707-15.756,51.381-18.671c9.277-1.622,23.766-2.711,36.053-2.711c7.094,0,16.266,0.367,19.68,2.109l2.225,1.136
	l-2.035,1.446c-2.707,1.926-5.729,3.674-9.51,5.502c-8.523,4.125-18.33,7.382-30.861,10.247
	C248.256,111.609,232.459,114.742,216.118,114.742z M197.829,110.223c1.152,0.211,2.361,0.399,3.646,0.569
	c4.672,0.61,9.598,0.921,14.643,0.921c16.039,0,31.617-3.091,43.398-5.785c12.303-2.813,21.904-5.997,30.218-10.022
	c2.429-1.173,4.524-2.309,6.414-3.479c-3.321-0.611-8.752-0.959-15.454-0.959c-12.131,0-26.408,1.073-35.53,2.667
	C230.085,96.771,209.401,102.468,197.829,110.223z"/>
<path fill="#FFFFFF" d="M258.132,168.207c-18.887,3.325-38.518,2.066-56.156-4.211c7.322,18.892,13.848,35.727,13.848,35.727
	c2.562,5.01,7.846,8.243,12.888,10.305c7.753,3.167,16.339,4.094,24.655,3.815c10.283-0.344,20.689-2.435,30.216-6.351
	c7.136-2.935,14.099-7.041,19.284-12.848c2.805-3.145,5.254-7.002,5.786-11.263c0,0,0.509-18.15,1.065-38.354
	C295.118,156.98,277.011,164.882,258.132,168.207z"/>
<path fill="#009144" d="M250.599,215.404c-8.448,0-16.006-1.337-22.459-3.974c-6.738-2.756-11.335-6.462-13.666-11.018l-0.063-0.142
	l-15.042-38.81l3.115,1.108c11.023,3.924,22.893,5.912,35.281,5.912c6.685,0,13.449-0.593,20.104-1.765
	c19.146-3.372,36.742-11.278,50.891-22.86l2.563-2.101l-0.091,3.314c-0.556,20.204-1.064,38.355-1.064,38.355
	c-0.511,4.142-2.584,8.206-6.172,12.229c-4.758,5.329-11.432,9.783-19.837,13.239c-9.419,3.872-20.049,6.107-30.741,6.463
	C252.479,215.388,251.54,215.404,250.599,215.404z M217.206,199.1c2.004,3.864,6.066,7.067,12.078,9.525
	c6.09,2.488,13.261,3.75,21.314,3.75c0.908,0,1.813-0.017,2.717-0.046c10.336-0.346,20.604-2.502,29.69-6.239
	c7.979-3.28,14.28-7.471,18.729-12.455c3.17-3.555,4.992-7.067,5.414-10.441c-0.006-0.003,0.447-16.184,0.965-34.964
	c-14.085,10.806-31.203,18.208-49.721,21.467c-6.828,1.203-13.768,1.812-20.629,1.812c-11.588,0-22.742-1.695-33.207-5.043
	L217.206,199.1z"/>
<path fill="#FFFFFF" d="M302.434,155.704l-13.743,47.572c-1.156,4.002,1.172,8.222,5.174,9.377l8.318,2.405
	c4.002,1.156,8.222-1.171,9.377-5.174l14.152-48.984c3.588-10.818-2.331-17.443-2.331-17.443l-13.01-14.707"/>
<rect x="130.257" y="194.721" fill="#009144" width="24.363" height="13.889"/>
<path fill="#FFFFFF" d="M155.377,209.366h-25.878v-15.403h25.878V209.366z M131.014,207.852h22.849v-12.374h-22.849V207.852z"/>
<rect x="292.035" y="185.09" transform="matrix(0.9579 0.287 -0.287 0.9579 67.9175 -79.2365)" fill="#009144" width="24.363" height="13.887"/>
<path fill="#FFFFFF" d="M314.4,203.123l-24.789-7.428l4.421-14.753l24.789,7.429L314.4,203.123z M291.497,194.681l21.888,6.558
	l3.552-11.854l-21.888-6.558L291.497,194.681z"/>
<rect x="163.706" y="244.72" fill="#009144" width="99.15" height="4.543"/>
<path fill="#FFFFFF" d="M308.335,335.396c3.578,2.003,8.815,6.129,11.367,8.868c-2.696-1.797-7.281-4.398-11.059-5.787
	c2.805,2.279,2.92,5.082,1.719,7.875c2.453,1.7,6.639,2.451,13.691,0.842C321.175,329.38,311.378,333.603,308.335,335.396z"/>
<path fill="#FFFFFF" d="M305.067,337.588c0.225,2.646,0.008,5.277-0.637,7.86c0.029-2.567-0.445-5.059-1.311-7.458
	c-2.496,1.521-7.035,5.761,1.779,13.462C313.923,342.373,307.306,338.547,305.067,337.588z"/>
<path fill="#FFFFFF" d="M247.884,302.75c2.926-1.392,7.516-3.985,10.646-6.513c-3.397,1.236-5.857-0.105-7.637-2.572
	c-2.721,1.228-5.514,4.434-7.762,11.31c16.76,6.689,18.176-3.883,18.203-7.415C257.776,299.6,251.544,301.968,247.884,302.75z"/>
<path fill="#FFFFFF" d="M261.134,293.63c-2.387-1.168-4.531-2.708-6.415-4.588c2.187,1.346,4.569,2.219,7.07,2.711
	c-0.02-2.924-1.321-8.997-12.46-5.396C252.476,298.765,259.16,295.056,261.134,293.63z"/>
<polygon fill="#FFFFFF" points="318.798,319.928 317.091,318.135 305.993,328.386 305.837,314.212 317.563,302.667 315.956,300.923 
	305.78,309.104 305.481,282.085 302.602,282.085 302.429,295.643 297.599,291.079 295.645,292.901 302.356,301.151 301.958,332.112 
	284.335,348.392 284.335,313.759 276.784,306.534 278.755,285.793 278.755,285.793 289.175,274.479 287.661,272.879 
	279.323,279.798 280.609,266.255 277.94,265.959 275.255,286.636 261.077,273.856 259.554,275.386 274.625,291.493 273.128,303.036 
	263.183,293.522 261.789,294.867 280.245,315.41 280.245,368.745 284.335,368.745 284.335,354.103 "/>
<path fill="#FFFFFF" d="M312.741,281.905c-1.494,1.357-2.673,2.971-3.59,4.752c2.215,0.622,7.089,0.961,6.793-8.24
	c-10.062-0.323-8.717,5.534-8.066,7.336C309.278,284.206,310.909,282.92,312.741,281.905z"/>
<path fill="#FFFFFF" d="M297.214,283.255c-0.164-2.082,0.018-4.15,0.534-6.18c-0.033,2.02,0.329,3.98,1,5.871
	c1.97-1.188,5.559-4.502-1.345-10.594C290.272,279.456,295.46,282.493,297.214,283.255z"/>
<path fill="#FFFFFF" d="M271.782,275.817c-1.595-1.457-2.92-3.148-3.96-5.047c1.4,1.55,3.06,2.777,4.9,3.73
	c0.652-2.285,1.022-7.327-8.495-7.057C263.853,277.85,269.917,276.479,271.782,275.817z"/>
<path fill="#FFFFFF" d="M264.868,316.384c2.441-1.836,4.443-4.096,6.074-6.654c-3.246-1.246-10.541-2.443-11.389,11.46
	c15.113,1.9,13.905-7.112,13.182-9.919C270.407,313.405,267.769,315.114,264.868,316.384z"/>
<path fill="#FFFFFF" d="M295.81,291.188c0.648-1.803,1.995-7.66-8.067-7.337c-0.294,9.202,4.579,8.862,6.793,8.241
	c-0.917-1.782-2.097-3.395-3.588-4.753C292.777,288.354,294.408,289.641,295.81,291.188z"/>
<path fill="#FFFFFF" d="M285.61,304.85c10.454,5.065,12.566-0.727,12.984-3.597c-2.524,0.139-4.986,0.674-7.318,1.696
	c2.107-1.591,4.428-2.81,6.932-3.631C296.464,297.646,290.403,293.089,285.61,304.85z"/>
<path fill="#FFFFFF" d="M318.157,315.284c2.268-0.652,4.599-0.916,6.959-0.797c-2.24,0.416-4.332,1.257-6.273,2.424
	c1.754,1.915,6.23,5.143,11.428-3.865C320.803,306.743,318.606,313.169,318.157,315.284z"/>
<path fill="#FFFFFF" d="M307.319,294.494c0.936,2.449,3.932,7.142,12.154,0.624c-6.534-9.432-10.983-4.223-12.191-2.406
	c2.367,0.233,4.653,0.854,6.824,1.842C311.849,294.11,309.573,294.124,307.319,294.494z"/>
<path fill="#FFFFFF" d="M395.472,335.396c3.579,2.003,8.816,6.129,11.369,8.868c-2.697-1.797-7.283-4.398-11.06-5.787
	c2.804,2.279,2.921,5.082,1.72,7.875c2.452,1.7,6.639,2.451,13.689,0.842C408.312,329.38,398.515,333.603,395.472,335.396z"/>
<path fill="#FFFFFF" d="M392.206,337.588c0.225,2.646,0.006,5.277-0.637,7.86c0.028-2.567-0.446-5.059-1.311-7.458
	c-2.497,1.521-7.036,5.761,1.779,13.462C401.06,342.373,394.444,338.547,392.206,337.588z"/>
<path fill="#FFFFFF" d="M335.021,302.75c2.928-1.392,7.518-3.985,10.648-6.513c-3.398,1.236-5.859-0.105-7.638-2.572
	c-2.721,1.228-5.515,4.434-7.761,11.31c16.759,6.689,18.174-3.883,18.202-7.415C344.914,299.6,338.683,301.968,335.021,302.75z"/>
<path fill="#FFFFFF" d="M348.271,293.63c-2.386-1.168-4.531-2.708-6.415-4.588c2.187,1.346,4.569,2.219,7.07,2.711
	c-0.02-2.924-1.321-8.997-12.461-5.396C339.614,298.765,346.298,295.056,348.271,293.63z"/>
<polygon fill="#FFFFFF" points="405.935,319.928 404.229,318.135 393.132,328.386 392.975,314.212 404.7,302.667 403.095,300.923 
	392.919,309.104 392.62,282.085 389.739,282.085 389.565,295.643 384.735,291.079 382.782,292.901 389.493,301.151 389.096,332.112 
	371.472,348.392 371.472,313.759 363.922,306.534 365.894,285.793 365.894,285.793 376.313,274.479 374.8,272.879 366.462,279.798 
	367.747,266.255 365.077,265.959 362.394,286.636 348.215,273.856 346.69,275.386 361.763,291.493 360.266,303.036 350.321,293.522 
	348.927,294.867 367.383,315.41 367.383,368.745 371.472,368.745 371.472,354.103 "/>
<path fill="#FFFFFF" d="M399.878,281.905c-1.494,1.357-2.672,2.971-3.589,4.752c2.214,0.622,7.089,0.961,6.792-8.24
	c-10.061-0.323-8.715,5.534-8.066,7.336C396.417,284.206,398.047,282.92,399.878,281.905z"/>
<path fill="#FFFFFF" d="M384.353,283.255c-0.165-2.082,0.016-4.15,0.533-6.18c-0.033,2.02,0.33,3.98,1,5.871
	c1.971-1.188,5.559-4.502-1.346-10.594C377.409,279.456,382.597,282.493,384.353,283.255z"/>
<path fill="#FFFFFF" d="M358.921,275.817c-1.596-1.457-2.92-3.148-3.961-5.047c1.4,1.55,3.06,2.777,4.9,3.73
	c0.652-2.285,1.021-7.327-8.496-7.057C350.991,277.85,357.054,276.479,358.921,275.817z"/>
<path fill="#FFFFFF" d="M352.007,316.384c2.439-1.836,4.441-4.096,6.072-6.654c-3.244-1.246-10.541-2.443-11.389,11.46
	c15.113,1.9,13.906-7.112,13.184-9.919C357.546,313.405,354.907,315.114,352.007,316.384z"/>
<path fill="#FFFFFF" d="M382.948,291.188c0.648-1.803,1.994-7.66-8.068-7.337c-0.295,9.202,4.579,8.862,6.793,8.241
	c-0.916-1.782-2.097-3.395-3.588-4.753C379.915,288.354,381.546,289.641,382.948,291.188z"/>
<path fill="#FFFFFF" d="M372.747,304.85c10.455,5.065,12.566-0.727,12.986-3.597c-2.525,0.139-4.987,0.674-7.32,1.696
	c2.109-1.591,4.428-2.81,6.932-3.631C383.603,297.646,377.541,293.089,372.747,304.85z"/>
<path fill="#FFFFFF" d="M405.294,315.284c2.268-0.652,4.6-0.916,6.961-0.797c-2.242,0.416-4.334,1.257-6.274,2.424
	c1.754,1.915,6.229,5.143,11.428-3.865C407.94,306.743,405.743,313.169,405.294,315.284z"/>
<path fill="#FFFFFF" d="M394.456,294.494c0.936,2.449,3.934,7.142,12.156,0.624c-6.535-9.432-10.984-4.223-12.192-2.406
	c2.368,0.233,4.653,0.854,6.824,1.842C398.986,294.11,396.712,294.124,394.456,294.494z"/>
<path fill="#FFFFFF" d="M109.073,335.396c-3.578,2.003-8.814,6.129-11.369,8.868c2.697-1.797,7.284-4.398,11.061-5.787
	c-2.805,2.279-2.921,5.082-1.72,7.875c-2.452,1.7-6.639,2.451-13.69,0.842C96.233,329.38,106.03,333.603,109.073,335.396z"/>
<path fill="#FFFFFF" d="M112.339,337.588c-0.225,2.646-0.006,5.277,0.638,7.86c-0.028-2.567,0.446-5.059,1.311-7.458
	c2.497,1.521,7.036,5.761-1.778,13.462C103.485,342.373,110.101,338.547,112.339,337.588z"/>
<path fill="#FFFFFF" d="M169.525,302.75c-2.928-1.392-7.518-3.985-10.648-6.513c3.397,1.236,5.858-0.105,7.637-2.572
	c2.722,1.228,5.515,4.434,7.761,11.31c-16.758,6.689-18.174-3.883-18.201-7.415C159.631,299.6,165.863,301.968,169.525,302.75z"/>
<path fill="#FFFFFF" d="M156.274,293.63c2.386-1.168,4.531-2.708,6.414-4.588c-2.186,1.346-4.568,2.219-7.07,2.711
	c0.02-2.924,1.322-8.997,12.461-5.396C164.933,298.765,158.248,295.056,156.274,293.63z"/>
<polygon fill="#FFFFFF" points="98.61,319.928 100.317,318.135 111.413,328.386 111.571,314.212 99.845,302.667 101.45,300.923 
	111.626,309.104 111.925,282.085 114.807,282.085 114.979,295.643 119.809,291.079 121.763,292.901 115.052,301.151 115.45,332.112 
	133.073,348.392 133.073,313.759 140.623,306.534 138.653,285.793 138.653,285.793 128.232,274.479 129.746,272.879 
	138.084,279.798 136.798,266.255 139.468,265.959 142.151,286.636 156.331,273.856 157.854,275.386 142.782,291.493 144.28,303.036 
	154.226,293.522 155.618,294.867 137.162,315.41 137.162,368.745 133.073,368.745 133.073,354.103 "/>
<path fill="#FFFFFF" d="M104.667,281.905c1.494,1.357,2.672,2.971,3.59,4.752c-2.215,0.622-7.089,0.961-6.793-8.24
	c10.062-0.323,8.717,5.534,8.066,7.336C108.128,284.206,106.499,282.92,104.667,281.905z"/>
<path fill="#FFFFFF" d="M120.192,283.255c0.166-2.082-0.016-4.15-0.533-6.18c0.033,2.02-0.33,3.98-1,5.871
	c-1.97-1.188-5.559-4.502,1.346-10.594C127.136,279.456,121.948,282.493,120.192,283.255z"/>
<path fill="#FFFFFF" d="M145.626,275.817c1.594-1.457,2.92-3.148,3.959-5.047c-1.398,1.55-3.06,2.777-4.9,3.73
	c-0.652-2.285-1.021-7.327,8.496-7.057C153.554,277.85,147.491,276.479,145.626,275.817z"/>
<path fill="#FFFFFF" d="M152.538,316.384c-2.439-1.836-4.441-4.096-6.072-6.654c3.246-1.246,10.541-2.443,11.389,11.46
	c-15.112,1.9-13.906-7.112-13.184-9.919C147,313.405,149.638,315.114,152.538,316.384z"/>
<path fill="#FFFFFF" d="M121.597,291.188c-0.648-1.803-1.994-7.66,8.068-7.337c0.296,9.202-4.578,8.862-6.793,8.241
	c0.916-1.782,2.097-3.395,3.59-4.753C124.63,288.354,122.999,289.641,121.597,291.188z"/>
<path fill="#FFFFFF" d="M131.798,304.85c-10.455,5.065-12.566-0.727-12.986-3.597c2.525,0.139,4.987,0.674,7.32,1.696
	c-2.109-1.591-4.428-2.81-6.932-3.631C120.943,297.646,127.004,293.089,131.798,304.85z"/>
<path fill="#FFFFFF" d="M99.251,315.284c-2.268-0.652-4.6-0.916-6.961-0.797c2.242,0.416,4.334,1.257,6.275,2.424
	c-1.755,1.915-6.23,5.143-11.428-3.865C96.604,306.743,98.802,313.169,99.251,315.284z"/>
<path fill="#FFFFFF" d="M110.089,294.494c-0.936,2.449-3.932,7.142-12.155,0.624c6.534-9.432,10.984-4.223,12.192-2.406
	c-2.367,0.233-4.652,0.854-6.824,1.842C105.56,294.11,107.833,294.124,110.089,294.494z"/>
<path fill="#FFFFFF" d="M21.937,335.396c-3.579,2.003-8.816,6.129-11.369,8.868c2.696-1.797,7.283-4.398,11.059-5.787
	c-2.804,2.279-2.92,5.082-1.719,7.875c-2.451,1.7-6.639,2.451-13.691,0.842C9.096,329.38,18.893,333.603,21.937,335.396z"/>
<path fill="#FFFFFF" d="M25.202,337.588c-0.225,2.646-0.007,5.277,0.637,7.86c-0.029-2.567,0.445-5.059,1.311-7.458
	c2.496,1.521,7.037,5.761-1.779,13.462C16.348,342.373,22.964,338.547,25.202,337.588z"/>
<path fill="#FFFFFF" d="M82.388,302.75c-2.928-1.392-7.518-3.985-10.648-6.513c3.398,1.236,5.858-0.105,7.637-2.572
	c2.721,1.228,5.516,4.434,7.762,11.31c-16.759,6.689-18.175-3.883-18.203-7.415C72.493,299.6,78.726,301.968,82.388,302.75z"/>
<path fill="#FFFFFF" d="M69.137,293.63c2.386-1.168,4.53-2.708,6.415-4.588c-2.188,1.346-4.569,2.219-7.071,2.711
	c0.021-2.924,1.322-8.997,12.462-5.396C77.794,298.765,71.11,295.056,69.137,293.63z"/>
<polygon fill="#FFFFFF" points="11.473,319.928 13.179,318.135 24.276,328.386 24.433,314.212 12.706,302.667 14.313,300.923 
	24.489,309.104 24.788,282.085 27.669,282.085 27.841,295.643 32.671,291.079 34.626,292.901 27.914,301.151 28.312,332.112 
	45.936,348.392 45.936,313.759 53.485,306.534 51.516,285.793 51.516,285.793 41.095,274.479 42.608,272.879 50.946,279.798 
	49.661,266.255 52.331,265.959 55.015,286.636 69.192,273.856 70.716,275.386 55.646,291.493 57.143,303.036 67.087,293.522 
	68.48,294.867 50.024,315.41 50.024,368.745 45.936,368.745 45.936,354.103 "/>
<path fill="#FFFFFF" d="M17.529,281.905c1.494,1.357,2.672,2.971,3.589,4.752c-2.214,0.622-7.088,0.961-6.793-8.24
	c10.062-0.323,8.717,5.534,8.068,7.336C20.991,284.206,19.361,282.92,17.529,281.905z"/>
<path fill="#FFFFFF" d="M33.056,283.255c0.166-2.082-0.016-4.15-0.533-6.18c0.033,2.02-0.33,3.98-1.001,5.871
	c-1.97-1.188-5.558-4.502,1.346-10.594C39.998,279.456,34.811,282.493,33.056,283.255z"/>
<path fill="#FFFFFF" d="M58.487,275.817c1.595-1.457,2.92-3.148,3.961-5.047c-1.4,1.55-3.061,2.777-4.901,3.73
	c-0.652-2.285-1.021-7.327,8.497-7.057C66.417,277.85,60.353,276.479,58.487,275.817z"/>
<path fill="#FFFFFF" d="M65.401,316.384c-2.439-1.836-4.443-4.096-6.073-6.654c3.245-1.246,10.542-2.443,11.388,11.46
	c-15.111,1.9-13.904-7.112-13.182-9.919C59.862,313.405,62.501,315.114,65.401,316.384z"/>
<path fill="#FFFFFF" d="M34.46,291.188c-0.648-1.803-1.995-7.66,8.068-7.337c0.295,9.202-4.58,8.862-6.793,8.241
	c0.916-1.782,2.096-3.395,3.588-4.753C37.492,288.354,35.862,289.641,34.46,291.188z"/>
<path fill="#FFFFFF" d="M44.66,304.85c-10.455,5.065-12.565-0.727-12.985-3.597c2.525,0.139,4.986,0.674,7.319,1.696
	c-2.108-1.591-4.428-2.81-6.931-3.631C33.806,297.646,39.866,293.089,44.66,304.85z"/>
<path fill="#FFFFFF" d="M12.113,315.284c-2.268-0.652-4.6-0.916-6.96-0.797c2.241,0.416,4.333,1.257,6.273,2.424
	c-1.754,1.915-6.23,5.143-11.427-3.865C9.467,306.743,11.664,313.169,12.113,315.284z"/>
<path fill="#FFFFFF" d="M22.952,294.494c-0.936,2.449-3.933,7.142-12.156,0.624c6.535-9.432,10.984-4.223,12.191-2.406
	c-2.367,0.233-4.652,0.854-6.824,1.842C18.421,294.11,20.696,294.124,22.952,294.494z"/>
</svg>
