<?xml version="1.0" encoding="utf-8"?>
<!-- Generator: Adobe Illustrator 15.0.0, SVG Export Plug-In  -->
<!DOCTYPE svg PUBLIC "-//W3C//DTD SVG 1.1//EN" "http://www.w3.org/Graphics/SVG/1.1/DTD/svg11.dtd" [
	<!ENTITY ns_flows "http://ns.adobe.com/Flows/1.0/">
]>
<svg version="1.1"
	 xmlns="http://www.w3.org/2000/svg" xmlns:xlink="http://www.w3.org/1999/xlink" xmlns:a="http://ns.adobe.com/AdobeSVGViewerExtensions/3.0/"
	 x="0px" y="0px" width="576px" height="576px" viewBox="-88.084 -74.889 576 576"
	 overflow="visible" enable-background="new -88.084 -74.889 576 576" xml:space="preserve">
<defs>
</defs>
<path fill="#FAF6DD" d="M234.763,31.239l10.334,43.615l0.089-0.025l5.793,24.066c1.035,4.366-1.694,8.779-6.054,9.812l-9.066,2.146
	c-4.365,1.035-8.782-1.691-9.813-6.052l-0.794-3.351l-0.093,0.022l-14.16-59.397l-50.381-17.411
	c-4.238-1.463-6.506-6.128-5.044-10.366l3.044-8.812c1.465-4.235,6.13-6.508,10.368-5.041l51.878,17.925
	C232.607,21.921,234.763,31.239,234.763,31.239z"/>
<path fill="#FAF6DD" d="M207.26,251.997c0,0-54.928-4.924-57.891-23.842c-2.773-17.724,81.85-144.523,81.85-144.523
	s42.213,14.424,46.866,36.286C286.186,157.999,207.26,251.997,207.26,251.997z"/>
<path fill="#FAF6DD" d="M199.734,226.361l-26.625,21.628l52.42,64.525v68.461h32.057c0,0,4.929-67.785,0-83.891
	C253.23,282.856,199.734,226.361,199.734,226.361z"/>
<path fill="#FAF6DD" d="M183.316,221.722l-33.973,4.756l12.054,83.133l-20.081,62.926l32.663,10.467c0,0,21.156-55.729,22.721-70.92
	C198.658,293.038,183.316,221.722,183.316,221.722z"/>
<path fill="#FAF6DD" d="M252.843,81.625c0.144,9.134,6.865,15.46,19.858,21.62c12.856,6.435,21.983,7.829,29.266,2.311
	c2.265-1.714,9.218-10.871,15.604-20.969l-59.473-23.405C254.951,70.66,252.804,79.187,252.843,81.625z"/>
<path fill="#FAF6DD" d="M347.747,87.176L325.37,76.841c3.866-7.163,10.018-19.853,8.789-25.997
	c-1.645-8.193-16.839-19.641-23.315-23.784c2.785,5.38,9.357,18.724,9.472,24.938c0.103,5.453-5.57,19.001-6.843,21.971
	l-3.041-1.182c1.99-4.633,6.703-16.518,6.623-20.728c-0.097-5.301-6.353-18.27-9.546-24.35
	c-11.101,5.595-21.556,11.394-30.115,29.167l-2.936-1.414c8.939-18.567,20.224-24.927,31.289-30.515
	c-7.391-1.264-26.166-1.823-32.344,2.508c-4.611,3.228-10.355,16.104-13.174,22.956l-2.528,6.041c0,0,76.47,32.526,88.456,33.794"/>
<path fill="#FAF6DD" d="M272.881,396.812v-2.924v-0.197c0-4.484-3.668-8.152-8.152-8.152h-34.312c-4.482,0-8.151,3.668-8.151,8.152
	v0.197v2.924v8.15l0,0v4.504h15.479v-4.504h26.984h8.152V396.812z"/>
<path fill="#FAF6DD" d="M181.749,401.712l0.901-2.783l0.061-0.188c1.382-4.266-0.975-8.885-5.242-10.268l-32.644-10.576
	c-4.267-1.381-8.884,0.979-10.267,5.246l-0.063,0.184l-0.901,2.783l-2.512,7.754h0.003l-1.388,4.287l14.727,4.77l1.389-4.283
	l25.67,8.314l7.754,2.514L181.749,401.712z"/>
<circle fill="#FAF6DD" cx="126.792" cy="36.097" r="16.397"/>
<polygon fill="#ED1C24" points="278.457,139.98 241.064,95.109 249.66,89.713 283.788,118.265 "/>
<path fill="#F5F5F5" d="M278.863,141.743l-39.021-46.828l9.884-6.208l34.974,29.258L278.863,141.743z M242.288,95.303l35.761,42.916
	l4.824-19.655L249.59,90.718L242.288,95.303z"/>
<rect x="246.554" y="159.098" transform="matrix(0.9562 0.2928 -0.2928 0.9562 58.4556 -68.3293)" fill="#ED1C24" width="21.781" height="3.953"/>
<polygon fill="#ED1C24" points="242.332,173.229 251.622,181.315 263.159,179.607 266.324,169.271 245.498,162.893 "/>
<path fill="#FAF6DD" d="M131.499,323.987c4.837-24.203,9.617-48.182,9.527-48.062c0.669-3.438,0.185-5.656-1.544-7.246
	c-7.805-7.158-41.273-13.299-69.739-13.146c-28.349,0.162-54.225,6.223-63.15,10.512c-2.5,1.205-7.429,3.588-6.471,8.92
	c0.045,0.266,5.034,24.918,10.012,49.537C45.325,347.31,96.057,347.093,131.499,323.987z M20.62,278.44
	c-2.433-0.754-4.866-1.619-7.261-2.656c13.579-7.621,39.668-10.191,57.123-10.246c18.068-0.055,52.268,4.709,58.258,9.189
	c-3.533,1.697-7.184,2.955-10.836,4.008c-11.244,3.24-22.781,4.559-34.248,5.188C62.799,285.067,41.096,284.776,20.62,278.44z"/>
<path fill="#FAF6DD" d="M70.752,348.116c-20.641,0.09-41.241-4.824-58.812-14.695c4.327,21.381,8.183,40.43,8.183,40.43
	c1.809,5.783,6.822,10.174,11.799,13.275c7.646,4.777,16.588,7.324,25.463,8.545c10.971,1.51,22.393,1.184,33.216-1.236
	c8.104-1.811,16.241-4.9,22.798-10.117c3.551-2.824,6.85-6.473,8.19-10.896c0,0,3.85-19.164,8.117-40.5
	C112.041,342.946,91.387,348.03,70.752,348.116z"/>
<path fill="#FAF6DD" d="M329.213,236.192c-1.362,0-2.684-0.281-3.933-0.834l-50.199-22.192
	c-12.091-4.784-13.677-14.815-13.737-15.24l-6.413-42.714l-0.332-1.58l-3.76-24.466c-0.8-5.344,2.888-10.333,8.221-11.133
	l9.214-1.382c0.486-0.073,0.975-0.108,1.452-0.108c4.805,0,8.967,3.581,9.677,8.33l0.271,1.817l0.334,1.568l9.019,59.488
	l47.931,21.192c4.934,2.18,7.175,7.968,4.994,12.903l-3.768,8.526C336.617,233.907,333.098,236.192,329.213,236.192z"/>
<path fill="#ED1C24" d="M269.726,118.174c3.962,0,7.461,2.913,8.062,6.94l0.513,3.405l0.096-0.016l9.151,60.374l48.75,21.554
	c4.103,1.812,5.975,6.649,4.163,10.752l-3.771,8.526c-1.345,3.036-4.344,4.852-7.478,4.852c-1.098,0-2.21-0.221-3.273-0.692
	l-50.199-22.194c-11.41-4.517-12.782-13.983-12.782-13.983l-6.655-44.327l-0.093,0.019l-3.76-24.465
	c-0.666-4.437,2.42-8.608,6.853-9.273l9.212-1.38C268.923,118.203,269.327,118.174,269.726,118.174 M269.726,114.913
	c-0.563,0-1.135,0.043-1.694,0.127l-9.213,1.379c-6.223,0.933-10.528,6.757-9.595,12.981l3.764,24.48l0.526,3.404l0.075-0.016
	l6.144,40.907c0.063,0.446,1.786,11.343,14.747,16.506l50.143,22.168c1.454,0.646,2.999,0.973,4.591,0.973
	c4.528,0,8.634-2.666,10.461-6.795l3.767-8.526c2.545-5.76-0.069-12.512-5.823-15.053l-47.113-20.831l-8.885-58.603l-0.491-3.246
	l-0.092,0.016l-0.022-0.155C280.186,119.091,275.332,114.913,269.726,114.913L269.726,114.913z"/>
<rect x="302.715" y="207.923" transform="matrix(0.3988 -0.917 0.917 0.3988 -7.663 419.107)" fill="#ED1C24" width="26.228" height="14.95"/>
<path fill="#F5F5F5" d="M317.874,231.479l-15.203-6.615l11.11-25.545l15.206,6.612L317.874,231.479z M304.816,224.021l12.213,5.312
	l9.812-22.558l-12.216-5.31L304.816,224.021z"/>
<rect x="167.806" y="10.598" transform="matrix(0.3185 -0.9479 0.9479 0.3185 106.1678 183.8153)" fill="#ED1C24" width="26.229" height="14.948"/>
<path fill="#F5F5F5" d="M184.341,33.916l-15.715-5.28l8.869-26.407l15.718,5.28L184.341,33.916z M170.689,27.61l12.627,4.242
	l7.834-23.318L178.52,4.292L170.689,27.61z"/>
<rect x="131.314" y="223.916" transform="matrix(0.91 0.4146 -0.4146 0.91 110.4791 -56.1996)" fill="#ED1C24" width="106.735" height="4.892"/>
<path fill="#FAF6DD" d="M388.642,348.136c5.664,3.17,13.953,9.703,17.994,14.037c-4.267-2.844-11.527-6.961-17.508-9.158
	c4.443,3.609,4.624,8.045,2.723,12.467c3.882,2.691,10.509,3.879,21.674,1.332C408.967,338.612,393.459,345.296,388.642,348.136z"/>
<path fill="#FAF6DD" d="M383.47,351.608c0.356,4.188,0.01,8.352-1.01,12.441c0.048-4.064-0.703-8.01-2.073-11.805
	c-3.951,2.404-11.139,9.117,2.815,21.309C397.487,359.181,387.014,353.124,383.47,351.608z"/>
<path fill="#FAF6DD" d="M292.939,296.454c4.637-2.201,11.9-6.309,16.859-10.309c-5.38,1.955-9.277-0.168-12.093-4.074
	c-4.305,1.943-8.728,7.02-12.285,17.904c26.529,10.592,28.771-6.145,28.815-11.736C308.604,291.468,298.738,295.216,292.939,296.454
	z"/>
<path fill="#FAF6DD" d="M313.918,282.019c-3.775-1.85-7.174-4.289-10.154-7.264c3.461,2.129,7.231,3.512,11.192,4.289
	c-0.03-4.625-2.092-14.242-19.728-8.543C300.213,290.146,310.795,284.274,313.918,282.019z"/>
<polygon fill="#FAF6DD" points="405.204,323.647 402.502,320.81 384.934,337.038 384.686,314.599 403.252,296.325 400.707,293.563 
	384.597,306.515 384.126,263.741 379.565,263.741 379.291,285.202 371.646,277.978 368.55,280.862 379.177,293.925 378.546,342.937 
	350.647,368.708 350.647,313.882 338.693,302.446 341.814,269.61 341.814,269.61 358.31,251.7 355.914,249.165 342.715,260.118 
	344.75,238.681 340.524,238.21 336.273,270.944 313.83,250.714 311.415,253.136 335.276,278.634 332.903,296.907 317.164,281.845 
	314.956,283.976 344.174,316.497 344.174,400.931 350.647,400.931 350.647,377.749 "/>
<path fill="#FAF6DD" d="M395.615,263.458c-2.363,2.148-4.229,4.699-5.681,7.521c3.506,0.982,11.221,1.521,10.753-13.047
	c-15.928-0.51-13.798,8.762-12.772,11.615C390.135,267.097,392.717,265.062,395.615,263.458z"/>
<path fill="#FAF6DD" d="M371.038,265.593c-0.262-3.297,0.024-6.572,0.844-9.783c-0.054,3.197,0.522,6.303,1.582,9.295
	c3.118-1.881,8.799-7.129-2.13-16.771C360.045,259.579,368.258,264.386,371.038,265.593z"/>
<path fill="#FAF6DD" d="M330.776,253.817c-2.524-2.305-4.623-4.982-6.27-7.988c2.216,2.453,4.844,4.395,7.757,5.906
	c1.032-3.619,1.618-11.602-13.451-11.172C318.224,257.036,327.822,254.866,330.776,253.817z"/>
<path fill="#FAF6DD" d="M319.832,318.038c3.862-2.906,7.031-6.484,9.613-10.533c-5.139-1.975-16.688-3.869-18.03,18.139
	c23.926,3.01,22.015-11.258,20.871-15.699C328.599,313.323,324.424,316.028,319.832,318.038z"/>
<path fill="#FAF6DD" d="M368.814,278.151c1.026-2.854,3.156-12.125-12.772-11.613c-0.468,14.566,7.248,14.029,10.754,13.047
	c-1.452-2.824-3.317-5.375-5.681-7.525C364.013,273.667,366.595,275.702,368.814,278.151z"/>
<path fill="#FAF6DD" d="M352.667,299.778c16.549,8.02,19.893-1.148,20.555-5.693c-3.996,0.221-7.895,1.066-11.587,2.684
	c3.34-2.516,7.012-4.447,10.973-5.746C369.85,288.376,360.256,281.159,352.667,299.778z"/>
<path fill="#FAF6DD" d="M404.19,316.296c3.589-1.031,7.279-1.449,11.018-1.26c-3.55,0.656-6.858,1.99-9.932,3.838
	c2.777,3.029,9.862,8.141,18.091-6.121C408.378,302.774,404.9,312.948,404.19,316.296z"/>
<path fill="#FAF6DD" d="M387.033,283.386c1.48,3.877,6.225,11.305,19.243,0.986c-10.346-14.93-17.391-6.684-19.3-3.809
	c3.748,0.369,7.365,1.35,10.801,2.916C394.204,282.776,390.604,282.798,387.033,283.386z"/>
<path fill="#FAF6DD" d="M85.977,26.637c5.127,0.169,13.468-0.149,19.706-1.43c-5.675-0.729-8.165-4.404-8.874-9.165
	c-4.721-0.248-10.979,2.232-19.131,10.276c18.723,21.578,28.391,7.732,30.992,2.783C102.183,29.389,91.696,28.196,85.977,26.637z"/>
<path fill="#FAF6DD" d="M111.24,23.427c-2.51-3.375-4.41-7.1-5.694-11.11c2.098,3.479,4.817,6.436,7.98,8.945
	c2.091-4.127,4.671-13.616-13.614-16.639C95.33,24.367,107.428,24,111.24,23.427z"/>
</svg>
