<?xml version="1.0" encoding="utf-8"?>
<!-- Generator: Adobe Illustrator 15.0.0, SVG Export Plug-In . SVG Version: 6.00 Build 0)  -->
<!DOCTYPE svg PUBLIC "-//W3C//DTD SVG 1.1//EN" "http://www.w3.org/Graphics/SVG/1.1/DTD/svg11.dtd" [
	<!ENTITY ns_extend "http://ns.adobe.com/Extensibility/1.0/">
	<!ENTITY ns_ai "http://ns.adobe.com/AdobeIllustrator/10.0/">
	<!ENTITY ns_graphs "http://ns.adobe.com/Graphs/1.0/">
	<!ENTITY ns_vars "http://ns.adobe.com/Variables/1.0/">
	<!ENTITY ns_imrep "http://ns.adobe.com/ImageReplacement/1.0/">
	<!ENTITY ns_sfw "http://ns.adobe.com/SaveForWeb/1.0/">
	<!ENTITY ns_custom "http://ns.adobe.com/GenericCustomNamespace/1.0/">
	<!ENTITY ns_adobe_xpath "http://ns.adobe.com/XPath/1.0/">
]>
<svg version="1.1" id="Layer_1" xmlns:x="&ns_extend;" xmlns:i="&ns_ai;" xmlns:graph="&ns_graphs;"
	 xmlns="http://www.w3.org/2000/svg" xmlns:xlink="http://www.w3.org/1999/xlink" x="0px" y="0px" width="576px" height="576px"
	 viewBox="0 0 576 576" enable-background="new 0 0 576 576" xml:space="preserve">
<metadata>
	<sfw  xmlns="&ns_sfw;">
		<slices></slices>
		<sliceSourceBounds  height="409.467" width="423.367" y="408.356" x="274.809" bottomLeftOrigin="true"></sliceSourceBounds>
	</sfw>
</metadata>
<path fill="#FAF6DD" d="M270.183,300.133l-23.764,18.535l52.419,64.525v68.461h32.058c0,0,4.929-67.785,0-83.893
	C326.539,353.535,270.183,300.133,270.183,300.133z"/>
<path fill="#FAF6DD" d="M256.625,292.401l-33.973,4.756l12.054,83.134l-20.081,62.926l32.663,10.467c0,0,21.156-55.729,22.721-70.92
	C271.968,363.717,256.625,292.401,256.625,292.401z"/>
<path fill="#FAF6DD" d="M326.152,152.304c0.145,9.134,6.865,15.46,19.858,21.62c12.856,6.435,21.982,7.829,29.266,2.311
	c2.266-1.714,8.82-9.616,15.207-19.714l-59.473-23.405C327.863,142.595,326.113,149.866,326.152,152.304z"/>
<path fill="#FAF6DD" d="M421.057,157.855L398.68,147.52c3.866-7.163,10.018-19.853,8.789-25.997
	c-1.646-8.193-16.839-19.641-23.315-23.784c2.785,5.38,9.357,18.724,9.474,24.938c0.103,5.453-5.57,19.001-6.845,21.971
	l-3.041-1.182c1.99-4.633,6.703-16.518,6.623-20.728c-0.097-5.301-6.353-18.27-9.546-24.35
	c-11.101,5.595-21.556,11.394-30.115,29.167l-2.936-1.414c8.939-18.567,20.224-24.927,31.289-30.515
	c-7.392-1.264-26.166-1.823-32.344,2.508c-4.611,3.228-10.355,16.104-13.174,22.956l-2.528,6.041c0,0,76.47,32.526,88.456,33.794"/>
<path fill="#FAF6DD" d="M346.19,467.492v-2.924v-0.197c0-4.484-3.668-8.152-8.151-8.152h-34.312c-4.482,0-8.15,3.668-8.15,8.152
	v0.197v2.924v8.148l0,0v4.504h15.479v-4.504h26.984h8.151V467.492z"/>
<path fill="#FAF6DD" d="M255.059,472.391l0.901-2.783l0.061-0.188c1.382-4.266-0.975-8.885-5.242-10.268l-32.644-10.576
	c-4.267-1.381-8.884,0.979-10.267,5.246l-0.063,0.184l-0.901,2.783l-2.512,7.754h0.003l-1.388,4.287l14.727,4.77l1.389-4.283
	l25.67,8.314l7.754,2.514L255.059,472.391z"/>
<circle fill="#FAF6DD" cx="200.102" cy="106.776" r="16.397"/>
<polygon fill="#FAF6DD" points="352.49,209.065 316.647,166.174 325.084,161.12 357.098,188.944 "/>
<path fill="#FAF6DD" d="M204.809,394.666c4.837-24.203,9.617-48.182,9.527-48.062c0.669-3.438,0.185-5.656-1.544-7.246
	c-7.805-7.158-41.273-13.299-69.739-13.146c-28.349,0.162-54.225,6.223-63.15,10.512c-2.5,1.205-7.429,3.588-6.471,8.92
	c0.045,0.267,5.034,24.918,10.012,49.537C118.635,417.99,169.367,417.771,204.809,394.666z M93.93,349.119
	c-2.433-0.754-4.866-1.619-7.261-2.656c13.579-7.621,39.668-10.191,57.123-10.246c18.068-0.055,52.268,4.709,58.258,9.189
	c-3.533,1.697-7.184,2.955-10.836,4.008c-11.244,3.24-22.781,4.559-34.248,5.188C136.108,355.746,114.406,355.455,93.93,349.119z"/>
<path fill="#FAF6DD" d="M144.062,418.795c-20.641,0.09-41.241-4.824-58.812-14.695c4.327,21.381,8.183,40.432,8.183,40.432
	c1.809,5.781,6.822,10.174,11.799,13.273c7.646,4.777,16.588,7.324,25.463,8.545c10.971,1.51,22.393,1.186,33.216-1.234
	c8.104-1.812,16.241-4.9,22.798-10.117c3.551-2.824,6.85-6.473,8.19-10.896c0,0,3.85-19.164,8.117-40.5
	C185.351,413.625,164.697,418.709,144.062,418.795z"/>
<path fill="#FAF6DD" d="M461.951,418.814c5.664,3.172,13.953,9.703,17.994,14.037c-4.267-2.844-11.525-6.961-17.508-9.156
	c4.443,3.607,4.624,8.045,2.723,12.467c3.884,2.689,10.511,3.879,21.676,1.332C482.276,409.291,466.769,415.975,461.951,418.814z"/>
<path fill="#FAF6DD" d="M456.779,422.287c0.356,4.188,0.011,8.352-1.01,12.439c0.048-4.062-0.703-8.01-2.073-11.805
	c-3.951,2.404-11.139,9.117,2.815,21.309C470.797,429.861,460.323,423.803,456.779,422.287z"/>
<path fill="#FAF6DD" d="M366.249,367.133c4.637-2.201,11.898-6.309,16.857-10.309c-5.38,1.955-9.275-0.168-12.093-4.074
	c-4.306,1.943-8.729,7.02-12.285,17.904c26.529,10.592,28.771-6.146,28.815-11.736C381.913,362.146,372.048,365.895,366.249,367.133
	z"/>
<path fill="#FAF6DD" d="M387.228,352.698c-3.775-1.851-7.174-4.289-10.154-7.265c3.461,2.129,7.231,3.513,11.192,4.289
	c-0.03-4.625-2.092-14.242-19.728-8.543C373.522,360.826,384.104,354.953,387.228,352.698z"/>
<polygon fill="#FAF6DD" points="478.514,394.326 475.812,391.49 458.243,407.717 457.995,385.279 476.562,367.004 474.017,364.242 
	457.906,377.195 457.436,334.42 452.875,334.42 452.601,355.881 444.956,348.657 441.859,351.541 452.486,364.604 451.855,413.617 
	423.956,439.387 423.956,384.561 412.003,373.125 415.124,340.289 415.124,340.289 431.619,322.379 429.224,319.844 
	416.024,330.797 418.06,309.36 413.834,308.889 409.583,341.623 387.14,321.393 384.725,323.814 408.586,349.312 406.213,367.586 
	390.474,352.523 388.266,354.655 417.483,387.176 417.483,471.609 423.956,471.609 423.956,448.428 "/>
<path fill="#FAF6DD" d="M468.925,334.137c-2.363,2.148-4.229,4.699-5.683,7.521c3.507,0.982,11.223,1.521,10.755-13.047
	c-15.93-0.51-13.8,8.762-12.772,11.615C463.444,337.776,466.026,335.741,468.925,334.137z"/>
<path fill="#FAF6DD" d="M444.348,336.271c-0.262-3.297,0.024-6.571,0.844-9.782c-0.054,3.196,0.522,6.303,1.582,9.295
	c3.118-1.881,8.799-7.129-2.13-16.771C433.354,330.258,441.567,335.064,444.348,336.271z"/>
<path fill="#FAF6DD" d="M404.086,324.496c-2.524-2.305-4.623-4.982-6.271-7.988c2.216,2.453,4.844,4.396,7.757,5.906
	c1.032-3.619,1.618-11.602-13.45-11.172C391.533,327.715,401.132,325.545,404.086,324.496z"/>
<path fill="#FAF6DD" d="M393.142,388.717c3.862-2.906,7.031-6.484,9.613-10.533c-5.141-1.975-16.688-3.869-18.03,18.141
	c23.926,3.01,22.015-11.26,20.871-15.699C401.908,384.002,397.733,386.707,393.142,388.717z"/>
<path fill="#FAF6DD" d="M442.124,348.83c1.024-2.854,3.154-12.125-12.772-11.613c-0.468,14.566,7.248,14.029,10.754,13.047
	c-1.452-2.824-3.317-5.375-5.681-7.524C437.322,344.346,439.904,346.381,442.124,348.83z"/>
<path fill="#FAF6DD" d="M425.977,370.457c16.549,8.02,19.893-1.148,20.555-5.693c-3.996,0.223-7.895,1.066-11.587,2.686
	c3.34-2.518,7.012-4.447,10.975-5.746C443.159,359.055,433.565,351.838,425.977,370.457z"/>
<path fill="#FAF6DD" d="M477.5,386.975c3.589-1.029,7.277-1.447,11.018-1.26c-3.55,0.656-6.858,1.99-9.932,3.838
	c2.775,3.029,9.86,8.143,18.091-6.121C481.688,373.453,478.21,383.627,477.5,386.975z"/>
<path fill="#FAF6DD" d="M460.343,354.064c1.479,3.878,6.225,11.307,19.243,0.986c-10.348-14.93-17.393-6.684-19.302-3.809
	c3.748,0.369,7.365,1.35,10.803,2.916C467.514,353.455,463.913,353.477,460.343,354.064z"/>
<path fill="#FAF6DD" d="M159.287,97.316c5.127,0.169,13.468-0.149,19.706-1.43c-5.675-0.729-8.165-4.404-8.874-9.165
	c-4.721-0.248-10.979,2.232-19.131,10.276c18.723,21.578,28.391,7.732,30.992,2.783C175.493,100.068,165.005,98.875,159.287,97.316z
	"/>
<path fill="#FAF6DD" d="M184.55,94.106c-2.51-3.375-4.41-7.1-5.694-11.11c2.098,3.479,4.817,6.436,7.98,8.945
	c2.091-4.127,4.671-13.616-13.614-16.639C168.64,95.046,180.738,94.679,184.55,94.106z"/>
<g>
	<polygon fill="#FAF6DD" points="386.743,269.233 375.015,295.633 385.194,300.133 396.923,273.734 	"/>
	<path fill="#FAF6DD" d="M407.736,278.515l-7.154-3.164l-11.729,26.398l7.205,3.185c1.25,0.554,2.57,0.834,3.934,0.834
		c3.886,0,7.404-2.285,8.972-5.824l3.768-8.526C414.913,286.483,412.67,280.695,407.736,278.515z"/>
	<path fill="#FAF6DD" d="M359.807,257.323l-9.02-59.488l-0.334-1.568l-0.271-1.817c-0.709-4.749-4.871-8.33-9.676-8.33
		c-0.479,0-0.967,0.035-1.453,0.108l-9.215,1.382c-5.332,0.8-9.021,5.789-8.221,11.133l3.76,24.466l0.332,1.58l6.414,42.714
		c0.06,0.425,1.646,10.456,13.736,15.24l25.496,11.271l11.729-26.398L359.807,257.323z"/>
</g>
<g>
	<path fill="#FAF6DD" d="M222.679,298.834c2.963,18.918,57.891,23.842,57.891,23.842s6.024-9.996,10.631-15.816l-59.75-35.392
		C228.795,277.739,222.284,296.309,222.679,298.834z"/>
	<path fill="#FAF6DD" d="M340.556,234.121c8.224-16.77,13.187-32.494,10.839-43.524c-2.561-12.027-16.486-21.802-28.5-28.164
		l-6.246,3.741l16.762,20.113l-2.306,1.921L312.1,165.402l7.65-4.582c-8.433-4.188-15.222-6.509-15.222-6.509
		s-52.518,72.553-71.09,112.687L294.31,302.9c10.535-13.521,23.83-29.111,36.962-51.584l-8.204-0.034l-7.966-9.393l4.688-9.742
		l17.484,8.411c0.514-0.97,1.018-1.937,1.512-2.902l-17.566-8.449l1.713-3.562L340.556,234.121z"/>
</g>
<g>
	<polygon fill="#FAF6DD" points="253.849,75.116 245.384,99.302 255.053,102.644 263.518,78.457 	"/>
	<path fill="#FAF6DD" d="M242.295,71.124c-4.238-1.467-8.903,0.806-10.368,5.041l-3.044,8.812
		c-1.462,4.238,0.806,8.903,5.044,10.366l7.675,2.652l8.465-24.186L242.295,71.124z"/>
	<path fill="#FAF6DD" d="M318.496,145.508l-0.09,0.025l-10.334-43.615c0,0-2.156-9.318-13.898-12.869l-26.875-9.286l-8.465,24.187
		l25.475,8.804l14.16,59.397l0.093-0.022l0.794,3.351c1.031,4.361,5.448,7.087,9.812,6.052l-0.176-14.663l12.517-7.19
		L318.496,145.508z"/>
</g>
</svg>
