<?xml version="1.0" encoding="utf-8"?>
<!-- Generator: Adobe Illustrator 15.0.0, SVG Export Plug-In . SVG Version: 6.00 Build 0)  -->
<!DOCTYPE svg PUBLIC "-//W3C//DTD SVG 1.1//EN" "http://www.w3.org/Graphics/SVG/1.1/DTD/svg11.dtd" [
	<!ENTITY ns_extend "http://ns.adobe.com/Extensibility/1.0/">
	<!ENTITY ns_ai "http://ns.adobe.com/AdobeIllustrator/10.0/">
	<!ENTITY ns_graphs "http://ns.adobe.com/Graphs/1.0/">
	<!ENTITY ns_vars "http://ns.adobe.com/Variables/1.0/">
	<!ENTITY ns_imrep "http://ns.adobe.com/ImageReplacement/1.0/">
	<!ENTITY ns_sfw "http://ns.adobe.com/SaveForWeb/1.0/">
	<!ENTITY ns_custom "http://ns.adobe.com/GenericCustomNamespace/1.0/">
	<!ENTITY ns_adobe_xpath "http://ns.adobe.com/XPath/1.0/">
]>
<svg version="1.1" id="Layer_1" xmlns:x="&ns_extend;" xmlns:i="&ns_ai;" xmlns:graph="&ns_graphs;"
	 xmlns="http://www.w3.org/2000/svg" xmlns:xlink="http://www.w3.org/1999/xlink" x="0px" y="0px" width="576px" height="576px"
	 viewBox="0 0 576 576" enable-background="new 0 0 576 576" xml:space="preserve">
<metadata>
	<sfw  xmlns="&ns_sfw;">
		<slices></slices>
		<sliceSourceBounds  height="420.447" width="417.411" y="408.315" x="278.404" bottomLeftOrigin="true"></sliceSourceBounds>
	</sfw>
</metadata>
<rect x="290.363" y="475.49" fill="#FAF6DD" width="31.242" height="4.695"/>
<g>
	<path fill="#FAF6DD" d="M321.604,468.611c-1.8-7.256-7.756-12.648-15.141-12.941c-7.405-0.297-13.783,4.709-16.098,11.838v5.188
		h31.238V468.611z"/>
</g>
<rect x="246.744" y="475.49" fill="#FAF6DD" width="31.242" height="4.695"/>
<g>
	<path fill="#FAF6DD" d="M277.985,468.611c-1.799-7.256-7.755-12.648-15.14-12.941c-7.405-0.297-13.783,4.709-16.098,11.838v5.188
		h31.238V468.611z"/>
</g>
<polyline fill="#FAF6DD" points="296.703,176.339 284.694,192.349 268.855,170.653 271.749,150.823 273.248,151.043 270.444,170.26 
	284.711,189.801 295.556,175.345 "/>
<path fill="#FAF6DD" d="M322.451,106.139c-0.348-2.621-3.656-5.693-7.109-7.491c0.043-0.583,0.041-0.783,0.041-0.783
	c0.26-6.283,0.531-23.081-3.68-28.367c-4.834-6.073-22.248-9.083-29.358-9.759c4.584,3.266,15.681,11.5,18.413,16.588
	c2.546,4.74,3.589,19.796,3.699,21.497l-3.022,0.196c-0.288-4.44-1.452-16.737-3.346-20.26
	c-2.329-4.338-13.005-12.399-18.225-16.069c-6.799,9.337-12.977,18.568-12.505,36.885l-3.028,0.079
	c-0.492-19.138,6.135-29.184,12.904-38.498c-6.643,2.093-22.394,9.599-25.662,15.801c-2.849,5.403-1.389,22.352-0.873,27.428
	c-2.746,2.365-4.422,5.215-4.629,8.574C252.445,107.797,284.244,102.721,322.451,106.139z"/>
<path fill="#FAF6DD" d="M254.537,114.059c1.261,9.004,2.918,14.703,3.942,16.703c3.979,7.75,12.475,10.362,26.33,10.217
	c13.855,0.145,22.352-2.467,26.33-10.217c1.153-2.249,3.104-9.704,4.393-20.116C287.597,108.803,265.371,111.462,254.537,114.059z"
	/>
<polyline fill="#FAF6DD" points="297.89,175.895 284.685,193.023 268.06,170.862 271,150.714 273.998,151.152 271.24,170.051 
	284.718,188.018 294.08,175.873 "/>
<rect x="303.104" y="195.981" fill="#009144" width="20.233" height="3.673"/>
<polygon fill="#009144" points="303.104,212.724 313.554,217.379 323.338,212.724 323.338,202.683 303.104,202.683 "/>
<line fill="none" x1="339.761" y1="162.872" x2="341.881" y2="165.265"/>
<g>
	<path fill="#FAF6DD" d="M281.859,216.567v-16.121l-18.311-25.922l-2.142-0.093c2.785,7.198,10.225,26.398,15.602,40.274
		C278.594,215.371,280.215,215.989,281.859,216.567z"/>
	<path fill="#FAF6DD" d="M265.925,199.654h-17.912v-3.673h16.489c-4.404-11.367-7.212-18.617-8.402-21.694l-11.264-0.576
		l13.095-25.831c0,0-21.867-2.21-21.867,12.149c0,27.48,4.547,136.691,4.547,136.691h41.248v-16.723l-2.002-44.389
		C279.857,235.609,267.83,204.571,265.925,199.654z M268.246,212.724l-9.781,4.655l-10.452-4.655v-10.041h19.085l1.148,2.96V212.724
		z"/>
	<path fill="#FAF6DD" d="M323.314,171.473l1.135,2.238l-18.713,0.813l-18.311,25.922v17.877c8.654,2.435,17.911,3.706,27.297,3.708
		c5.688,0,11.329-0.467,16.873-1.324c0.684-19.462,1.28-38.45,1.518-51.199C330.035,170.179,326.754,170.849,323.314,171.473z"/>
	<path fill="#FAF6DD" d="M314.668,231.248c-9.416,0-18.537-1.138-27.242-3.354v13.699l6.686,17.246
		c2.004,3.864,6.065,7.067,12.078,9.525c6.09,2.488,13.26,3.75,21.313,3.75c0.724,0,1.444-0.018,2.166-0.037
		c0.468-11.858,1.043-26.787,1.594-42.008C325.746,230.848,320.182,231.248,314.668,231.248z"/>
	<path fill="#FAF6DD" d="M305.045,273.171c-6.738-2.756-11.486-6.347-13.729-10.159c-1.365-2.319-3.891-10.037-3.891-10.037V282
		v14.721h41.248c0,0,0.359-6.618,0.875-19.612c-0.682,0.018-1.361,0.036-2.044,0.036
		C319.056,277.145,311.498,275.808,305.045,273.171z"/>
</g>
<g>
	<path fill="#FAF6DD" d="M244.236,301.994c-0.013,23.529,2.952,75.324,3.004,78.525c0.003,0.277,0.119,0.551,0.135,0.826
		c-0.164,0.895-0.268,1.814-0.271,2.748v74.736c3.717-5.094,9.595-8.377,16.099-8.117c6.302,0.248,11.729,3.801,15.139,8.945
		v-75.564c0-0.555-0.074-1.098-0.135-1.646c0.102-0.732,0.274-1.445,0.274-2.201c-0.042-4.178,0.024-50.906,0-55.109h11.972
		c0.023,4.299-0.066,51.115,0,55.383c0.008,0.275,0.121,0.551,0.14,0.826c-0.165,0.895-0.267,1.814-0.276,2.748v75.979
		c3.639-5.818,9.918-9.639,16.932-9.357c5.836,0.23,10.873,3.316,14.312,7.85v-74.469c0-0.379-0.105-0.729-0.14-1.098
		c0.164-0.904,0.278-1.807,0.278-2.75c-0.035-3.129,2.998-54.777,3.004-78.254H244.236z"/>
</g>
<path fill="#FAF6DD" d="M385.24,395.135c3.578,2.002,8.814,6.129,11.367,8.867c-2.697-1.797-7.281-4.396-11.061-5.787
	c2.807,2.279,2.92,5.082,1.721,7.875c2.453,1.699,6.639,2.451,13.689,0.842C398.08,389.119,388.283,393.342,385.24,395.135z"/>
<path fill="#FAF6DD" d="M381.971,397.326c0.227,2.646,0.01,5.277-0.637,7.861c0.029-2.568-0.445-5.061-1.311-7.459
	c-2.496,1.521-7.035,5.762,1.777,13.463C390.828,402.111,384.211,398.285,381.971,397.326z"/>
<path fill="#FAF6DD" d="M324.789,362.488c2.926-1.393,7.516-3.984,10.646-6.514c-3.397,1.236-5.856-0.104-7.637-2.57
	c-2.722,1.227-5.515,4.434-7.763,11.309c16.761,6.689,18.177-3.883,18.203-7.414C334.681,359.338,328.449,361.707,324.789,362.488z"
	/>
<path fill="#FAF6DD" d="M338.039,353.369c-2.387-1.168-4.531-2.709-6.416-4.588c2.189,1.346,4.57,2.219,7.07,2.711
	c-0.02-2.924-1.32-8.998-12.459-5.396C329.381,358.504,336.064,354.795,338.039,353.369z"/>
<polygon fill="#FAF6DD" points="395.703,379.666 393.996,377.873 382.898,388.125 382.742,373.951 394.467,362.406 392.861,360.662 
	382.684,368.842 382.385,341.824 379.506,341.824 379.334,355.381 374.504,350.818 372.549,352.639 379.26,360.889 378.863,391.85 
	361.24,408.131 361.24,373.498 353.689,366.273 355.66,345.531 355.66,345.531 366.08,334.218 364.566,332.617 356.229,339.537 
	357.514,325.994 354.845,325.697 352.16,346.375 337.982,333.595 336.459,335.125 351.529,351.232 350.033,362.775 340.088,353.26 
	338.693,354.605 357.15,375.148 357.15,428.484 361.24,428.484 361.24,413.842 "/>
<path fill="#FAF6DD" d="M389.646,341.645c-1.494,1.355-2.674,2.971-3.59,4.752c2.215,0.621,7.088,0.961,6.793-8.24
	c-10.062-0.324-8.719,5.533-8.066,7.336C386.184,343.945,387.814,342.658,389.646,341.645z"/>
<path fill="#FAF6DD" d="M374.119,342.994c-0.164-2.082,0.018-4.15,0.533-6.18c-0.033,2.02,0.33,3.979,1,5.871
	c1.971-1.189,5.559-4.503-1.346-10.595C367.176,339.195,372.365,342.232,374.119,342.994z"/>
<path fill="#FAF6DD" d="M348.688,335.556c-1.596-1.457-2.921-3.147-3.961-5.047c1.4,1.55,3.061,2.776,4.9,3.729
	c0.652-2.285,1.021-7.326-8.495-7.057C340.758,337.589,346.822,336.218,348.688,335.556z"/>
<path fill="#FAF6DD" d="M341.773,376.123c2.44-1.836,4.442-4.096,6.073-6.654c-3.246-1.246-10.541-2.441-11.389,11.459
	c15.112,1.9,13.905-7.109,13.182-9.918C347.312,373.145,344.674,374.854,341.773,376.123z"/>
<path fill="#FAF6DD" d="M372.715,350.926c0.648-1.803,1.994-7.659-8.066-7.335c-0.293,9.202,4.58,8.862,6.793,8.241
	c-0.916-1.781-2.098-3.395-3.588-4.754C369.682,348.093,371.312,349.379,372.715,350.926z"/>
<path fill="#FAF6DD" d="M362.515,364.588c10.454,5.066,12.565-0.727,12.983-3.596c-2.523,0.139-4.986,0.674-7.318,1.695
	c2.107-1.592,4.43-2.811,6.934-3.631C373.369,357.385,367.307,352.828,362.515,364.588z"/>
<path fill="#FAF6DD" d="M395.062,375.023c2.268-0.652,4.598-0.916,6.959-0.799c-2.24,0.416-4.332,1.258-6.273,2.426
	c1.754,1.914,6.23,5.143,11.428-3.865C397.707,366.482,395.512,372.908,395.062,375.023z"/>
<path fill="#FAF6DD" d="M384.225,354.232c0.936,2.449,3.932,7.143,12.152,0.625c-6.533-9.433-10.982-4.225-12.189-2.406
	c2.367,0.232,4.65,0.854,6.824,1.842C388.754,353.848,386.479,353.863,384.225,354.232z"/>
<path fill="#FAF6DD" d="M472.377,395.135c3.578,2.002,8.816,6.129,11.369,8.867c-2.697-1.797-7.283-4.396-11.061-5.787
	c2.805,2.279,2.922,5.082,1.721,7.875c2.451,1.699,6.639,2.451,13.688,0.842C485.217,389.119,475.42,393.342,472.377,395.135z"/>
<path fill="#FAF6DD" d="M469.111,397.326c0.225,2.646,0.006,5.277-0.637,7.861c0.025-2.568-0.447-5.061-1.312-7.459
	c-2.498,1.521-7.037,5.762,1.779,13.463C477.965,402.111,471.35,398.285,469.111,397.326z"/>
<path fill="#FAF6DD" d="M411.926,362.488c2.928-1.393,7.518-3.984,10.646-6.514c-3.396,1.236-5.859-0.104-7.637-2.57
	c-2.723,1.227-5.518,4.434-7.764,11.309c16.762,6.689,18.176-3.883,18.203-7.414C421.818,359.338,415.588,361.707,411.926,362.488z"
	/>
<path fill="#FAF6DD" d="M425.176,353.369c-2.387-1.168-4.531-2.709-6.416-4.588c2.188,1.346,4.568,2.219,7.07,2.711
	c-0.02-2.924-1.32-8.998-12.461-5.396C416.52,358.504,423.203,354.795,425.176,353.369z"/>
<polygon fill="#FAF6DD" points="482.84,379.666 481.133,377.873 470.037,388.125 469.879,373.951 481.605,362.406 480,360.662 
	469.824,368.842 469.525,341.824 466.645,341.824 466.471,355.381 461.641,350.818 459.688,352.639 466.398,360.889 466,391.85 
	448.377,408.131 448.377,373.498 440.826,366.273 442.799,345.531 442.799,345.531 453.217,334.218 451.705,332.617 
	443.367,339.537 444.652,325.994 441.982,325.697 439.299,346.375 425.119,333.595 423.596,335.125 438.668,351.232 437.17,362.775 
	427.227,353.26 425.832,354.605 444.287,375.148 444.287,428.484 448.377,428.484 448.377,413.842 "/>
<path fill="#FAF6DD" d="M476.783,341.645c-1.494,1.355-2.672,2.971-3.59,4.752c2.215,0.621,7.09,0.961,6.793-8.24
	c-10.062-0.324-8.715,5.533-8.066,7.336C473.322,343.945,474.951,342.658,476.783,341.645z"/>
<path fill="#FAF6DD" d="M461.258,342.994c-0.166-2.082,0.018-4.15,0.533-6.18c-0.033,2.02,0.33,3.979,1,5.871
	c1.973-1.189,5.561-4.503-1.346-10.595C454.314,339.195,459.502,342.232,461.258,342.994z"/>
<path fill="#FAF6DD" d="M435.826,335.556c-1.596-1.457-2.92-3.147-3.961-5.047c1.4,1.55,3.059,2.776,4.9,3.729
	c0.65-2.285,1.02-7.326-8.496-7.057C427.896,337.589,433.959,336.218,435.826,335.556z"/>
<path fill="#FAF6DD" d="M428.912,376.123c2.439-1.836,4.441-4.096,6.072-6.654c-3.244-1.246-10.541-2.441-11.391,11.459
	c15.113,1.9,13.906-7.109,13.186-9.918C434.451,373.145,431.812,374.854,428.912,376.123z"/>
<path fill="#FAF6DD" d="M459.854,350.926c0.646-1.803,1.994-7.659-8.068-7.335c-0.295,9.202,4.578,8.862,6.793,8.241
	c-0.916-1.781-2.098-3.395-3.588-4.754C456.82,348.093,458.451,349.379,459.854,350.926z"/>
<path fill="#FAF6DD" d="M449.652,364.588c10.455,5.066,12.564-0.727,12.986-3.596c-2.525,0.139-4.988,0.674-7.32,1.695
	c2.107-1.592,4.428-2.811,6.932-3.631C460.508,357.385,454.445,352.828,449.652,364.588z"/>
<path fill="#FAF6DD" d="M482.199,375.023c2.268-0.652,4.6-0.916,6.961-0.799c-2.242,0.416-4.334,1.258-6.273,2.426
	c1.754,1.914,6.229,5.143,11.428-3.865C484.846,366.482,482.648,372.908,482.199,375.023z"/>
<path fill="#FAF6DD" d="M471.361,354.232c0.936,2.449,3.934,7.143,12.156,0.625c-6.535-9.433-10.984-4.225-12.193-2.406
	c2.369,0.232,4.654,0.854,6.824,1.842C475.891,353.848,473.617,353.863,471.361,354.232z"/>
<path fill="#FAF6DD" d="M185.978,395.135c-3.578,2.002-8.814,6.129-11.369,8.867c2.697-1.797,7.284-4.396,11.061-5.787
	c-2.805,2.279-2.921,5.082-1.72,7.875c-2.452,1.699-6.639,2.451-13.69,0.842C173.138,389.119,182.935,393.342,185.978,395.135z"/>
<path fill="#FAF6DD" d="M189.244,397.326c-0.225,2.646-0.006,5.277,0.638,7.861c-0.028-2.568,0.446-5.061,1.311-7.459
	c2.497,1.521,7.036,5.762-1.778,13.463C180.39,402.111,187.006,398.285,189.244,397.326z"/>
<path fill="#FAF6DD" d="M246.43,362.488c-2.928-1.393-7.518-3.984-10.648-6.514c3.397,1.236,5.858-0.104,7.637-2.57
	c2.722,1.227,5.515,4.434,7.761,11.309c-16.758,6.689-18.174-3.883-18.201-7.414C236.536,359.338,242.768,361.707,246.43,362.488z"
	/>
<path fill="#FAF6DD" d="M233.179,353.369c2.386-1.168,4.531-2.709,6.414-4.588c-2.186,1.346-4.568,2.219-7.07,2.711
	c0.02-2.924,1.322-8.998,12.461-5.396C241.838,358.504,235.153,354.795,233.179,353.369z"/>
<polygon fill="#FAF6DD" points="175.515,379.666 177.222,377.873 188.318,388.125 188.476,373.951 176.75,362.406 178.355,360.662 
	188.531,368.842 188.83,341.824 191.712,341.824 191.884,355.381 196.714,350.818 198.668,352.639 191.957,360.889 192.355,391.85 
	209.978,408.131 209.978,373.498 217.528,366.273 215.558,345.531 215.558,345.531 205.137,334.218 206.651,332.617 
	214.989,339.537 213.703,325.994 216.373,325.697 219.056,346.375 233.236,333.595 234.759,335.125 219.687,351.232 
	221.185,362.775 231.131,353.26 232.523,354.605 214.067,375.148 214.067,428.484 209.978,428.484 209.978,413.842 "/>
<path fill="#FAF6DD" d="M181.572,341.645c1.494,1.355,2.672,2.971,3.59,4.752c-2.215,0.621-7.089,0.961-6.793-8.24
	c10.062-0.324,8.717,5.533,8.066,7.336C185.033,343.945,183.404,342.658,181.572,341.645z"/>
<path fill="#FAF6DD" d="M197.097,342.994c0.166-2.082-0.016-4.15-0.533-6.18c0.033,2.02-0.33,3.979-1,5.871
	c-1.97-1.189-5.559-4.503,1.346-10.595C204.041,339.195,198.853,342.232,197.097,342.994z"/>
<path fill="#FAF6DD" d="M222.531,335.556c1.594-1.457,2.92-3.147,3.959-5.047c-1.398,1.55-3.06,2.776-4.9,3.729
	c-0.652-2.285-1.021-7.326,8.496-7.057C230.459,337.589,224.396,336.218,222.531,335.556z"/>
<path fill="#FAF6DD" d="M229.443,376.123c-2.439-1.836-4.441-4.096-6.072-6.654c3.246-1.246,10.541-2.441,11.389,11.459
	c-15.112,1.9-13.906-7.109-13.184-9.918C223.905,373.145,226.543,374.854,229.443,376.123z"/>
<path fill="#FAF6DD" d="M198.502,350.926c-0.648-1.803-1.994-7.659,8.068-7.335c0.296,9.202-4.578,8.862-6.793,8.241
	c0.916-1.781,2.097-3.395,3.59-4.754C201.535,348.093,199.904,349.379,198.502,350.926z"/>
<path fill="#FAF6DD" d="M208.703,364.588c-10.455,5.066-12.566-0.727-12.986-3.596c2.525,0.139,4.987,0.674,7.32,1.695
	c-2.109-1.592-4.428-2.811-6.932-3.631C197.848,357.385,203.909,352.828,208.703,364.588z"/>
<path fill="#FAF6DD" d="M176.156,375.023c-2.268-0.652-4.6-0.916-6.961-0.799c2.242,0.416,4.334,1.258,6.275,2.426
	c-1.755,1.914-6.23,5.143-11.428-3.865C173.509,366.482,175.707,372.908,176.156,375.023z"/>
<path fill="#FAF6DD" d="M186.994,354.232c-0.936,2.449-3.932,7.143-12.155,0.625c6.534-9.433,10.984-4.225,12.192-2.406
	c-2.367,0.232-4.652,0.854-6.824,1.842C182.465,353.848,184.738,353.863,186.994,354.232z"/>
<path fill="#FAF6DD" d="M98.842,395.135c-3.579,2.002-8.816,6.129-11.369,8.867c2.696-1.797,7.283-4.396,11.059-5.787
	c-2.804,2.279-2.92,5.082-1.719,7.875c-2.451,1.699-6.639,2.451-13.691,0.842C86.001,389.119,95.798,393.342,98.842,395.135z"/>
<path fill="#FAF6DD" d="M102.107,397.326c-0.225,2.646-0.007,5.277,0.637,7.861c-0.029-2.568,0.445-5.061,1.311-7.459
	c2.496,1.521,7.037,5.762-1.779,13.463C93.253,402.111,99.869,398.285,102.107,397.326z"/>
<path fill="#FAF6DD" d="M159.293,362.488c-2.928-1.393-7.518-3.984-10.648-6.514c3.398,1.236,5.858-0.104,7.637-2.57
	c2.721,1.227,5.516,4.434,7.762,11.309c-16.759,6.689-18.175-3.883-18.203-7.414C149.398,359.338,155.631,361.707,159.293,362.488z"
	/>
<path fill="#FAF6DD" d="M146.042,353.369c2.386-1.168,4.53-2.709,6.415-4.588c-2.188,1.346-4.569,2.219-7.071,2.711
	c0.021-2.924,1.322-8.998,12.462-5.396C154.699,358.504,148.015,354.795,146.042,353.369z"/>
<polygon fill="#FAF6DD" points="88.378,379.666 90.084,377.873 101.181,388.125 101.338,373.951 89.611,362.406 91.218,360.662 
	101.394,368.842 101.693,341.824 104.574,341.824 104.746,355.381 109.576,350.818 111.531,352.639 104.819,360.889 105.217,391.85 
	122.841,408.131 122.841,373.498 130.39,366.273 128.421,345.531 128.421,345.531 118,334.218 119.513,332.617 127.851,339.537 
	126.566,325.994 129.236,325.697 131.92,346.375 146.097,333.595 147.621,335.125 132.551,351.232 134.048,362.775 143.992,353.26 
	145.385,354.605 126.929,375.148 126.929,428.484 122.841,428.484 122.841,413.842 "/>
<path fill="#FAF6DD" d="M94.434,341.645c1.494,1.355,2.672,2.971,3.589,4.752c-2.214,0.621-7.088,0.961-6.793-8.24
	c10.062-0.324,8.717,5.533,8.068,7.336C97.896,343.945,96.266,342.658,94.434,341.645z"/>
<path fill="#FAF6DD" d="M109.961,342.994c0.166-2.082-0.016-4.15-0.533-6.18c0.033,2.02-0.33,3.979-1.001,5.871
	c-1.97-1.189-5.558-4.503,1.346-10.595C116.903,339.195,111.716,342.232,109.961,342.994z"/>
<path fill="#FAF6DD" d="M135.392,335.556c1.595-1.457,2.92-3.147,3.961-5.047c-1.4,1.55-3.061,2.776-4.901,3.729
	c-0.652-2.285-1.021-7.326,8.497-7.057C143.322,337.589,137.258,336.218,135.392,335.556z"/>
<path fill="#FAF6DD" d="M142.306,376.123c-2.439-1.836-4.443-4.096-6.073-6.654c3.245-1.246,10.542-2.441,11.388,11.459
	c-15.111,1.9-13.904-7.109-13.182-9.918C136.767,373.145,139.406,374.854,142.306,376.123z"/>
<path fill="#FAF6DD" d="M111.365,350.926c-0.648-1.803-1.995-7.659,8.068-7.335c0.295,9.202-4.58,8.862-6.793,8.241
	c0.916-1.781,2.096-3.395,3.588-4.754C114.397,348.093,112.767,349.379,111.365,350.926z"/>
<path fill="#FAF6DD" d="M121.565,364.588c-10.455,5.066-12.565-0.727-12.985-3.596c2.525,0.139,4.986,0.674,7.319,1.695
	c-2.108-1.592-4.428-2.811-6.931-3.631C110.711,357.385,116.771,352.828,121.565,364.588z"/>
<path fill="#FAF6DD" d="M89.018,375.023c-2.268-0.652-4.6-0.916-6.96-0.799c2.241,0.416,4.333,1.258,6.273,2.426
	c-1.754,1.914-6.23,5.143-11.427-3.865C86.372,366.482,88.569,372.908,89.018,375.023z"/>
<path fill="#FAF6DD" d="M99.857,354.232c-0.936,2.449-3.933,7.143-12.156,0.625c6.535-9.433,10.984-4.225,12.191-2.406
	c-2.367,0.232-4.652,0.854-6.824,1.842C95.326,353.848,97.601,353.863,99.857,354.232z"/>
<g>
	<path fill="#FAF6DD" d="M231.525,159.18c0-4.165-3.408-7.573-7.573-7.573h-9.218c-4.165,0-7.572,3.408-7.572,7.573v92.522h24.363
		V159.18z"/>
	<path fill="#FAF6DD" d="M207.162,276.3c0,4.165,3.407,7.573,7.572,7.573h9.218c4.165,0,7.573-3.408,7.573-7.573v-6.617h-24.363
		V276.3z"/>
	<rect x="207.162" y="255.702" fill="#FAF6DD" width="24.363" height="9.981"/>
</g>
<g>
	<path fill="#FAF6DD" d="M365.596,263.015c-1.156,4.002,1.172,8.222,5.174,9.377l8.318,2.405c4,1.156,8.223-1.171,9.375-5.174
		l2.354-8.139l-22.873-6.592L365.596,263.015z"/>
	<polygon fill="#FAF6DD" points="369.051,251.05 391.926,257.641 394.697,248.051 371.822,241.458 	"/>
	<path fill="#FAF6DD" d="M400.285,203.196l-13.01-14.707l-7.938,26.954l-6.406,22.174l22.875,6.591l6.811-23.57
		C406.205,209.821,400.285,203.196,400.285,203.196z"/>
</g>
<g>
	<path fill="#FAF6DD" d="M335.037,227.946c-18.887,3.325-38.519,2.066-56.156-4.211c7.322,18.892,13.848,35.727,13.848,35.727
		c2.562,5.01,7.846,8.243,12.889,10.305c7.752,3.167,16.338,4.094,24.654,3.815c10.231-0.342,20.584-2.417,30.071-6.295
		l15.593-54.881C363.583,220.125,349.541,225.391,335.037,227.946z"/>
	<g>
		<path fill="#FAF6DD" d="M400.285,203.196l-13.324-15.061l-7.623,27.306l-13.742,47.572c-1.154,4.002,1.174,8.222,5.176,9.377
			l8.316,2.405c4.002,1.156,8.223-1.171,9.377-5.174l14.152-48.984C406.205,209.821,400.285,203.196,400.285,203.196z"/>
	</g>
</g>
<g>
	<path fill="#FAF6DD" d="M387.51,172.093c0.33-12.386,0.557-21.371,0.52-21.294c0.07-3.249-0.723-5.206-2.555-6.386
		c-8.271-5.331-39.878-5.692-65.918-1.077c-25.929,4.603-48.666,14.221-56.166,19.553c-2.102,1.491-6.236,4.449-4.523,9.179
		c0.086,0.237,8.527,22.024,16.957,43.781c32.544,13.954,73.855,8.467,102.748-12.722l8.826-31.065L387.51,172.093z
		 M367.299,157.009c-9.784,4.736-20.141,7.756-30.539,10.134c-18.918,4.325-38.833,7.473-58.578,4.889
		c-2.346-0.31-4.708-0.716-7.062-1.294c11.232-9.106,34.716-15.563,50.688-18.355c16.534-2.89,48.595-3.905,54.782-0.746
		C373.621,153.749,370.479,155.472,367.299,157.009z"/>
	<path fill="#FAF6DD" d="M387.092,187.685l-3.193,11.238c1.004-0.854,1.992-1.725,2.959-2.62
		C386.936,193.412,387.014,190.524,387.092,187.685z"/>
</g>
</svg>
