<?xml version="1.0" encoding="utf-8"?>
<!-- Generator: Adobe Illustrator 15.0.0, SVG Export Plug-In . SVG Version: 6.00 Build 0)  -->
<!DOCTYPE svg PUBLIC "-//W3C//DTD SVG 1.1//EN" "http://www.w3.org/Graphics/SVG/1.1/DTD/svg11.dtd" [
	<!ENTITY ns_extend "http://ns.adobe.com/Extensibility/1.0/">
	<!ENTITY ns_ai "http://ns.adobe.com/AdobeIllustrator/10.0/">
	<!ENTITY ns_graphs "http://ns.adobe.com/Graphs/1.0/">
	<!ENTITY ns_vars "http://ns.adobe.com/Variables/1.0/">
	<!ENTITY ns_imrep "http://ns.adobe.com/ImageReplacement/1.0/">
	<!ENTITY ns_sfw "http://ns.adobe.com/SaveForWeb/1.0/">
	<!ENTITY ns_custom "http://ns.adobe.com/GenericCustomNamespace/1.0/">
	<!ENTITY ns_adobe_xpath "http://ns.adobe.com/XPath/1.0/">
]>
<svg version="1.1" id="Layer_1" xmlns:x="&ns_extend;" xmlns:i="&ns_ai;" xmlns:graph="&ns_graphs;"
	 xmlns="http://www.w3.org/2000/svg" xmlns:xlink="http://www.w3.org/1999/xlink" x="0px" y="0px" width="124px" height="124px"
	 viewBox="13 13 124 124" enable-background="new 13 13 124 124" xml:space="preserve">
<metadata>
	<sfw  xmlns="&ns_sfw;">
		<slices></slices>
		<sliceSourceBounds  height="115.87" width="119.799" y="581.564" x="300.241" bottomLeftOrigin="true"></sliceSourceBounds>
	</sfw>
</metadata>
<path fill="#F7F1E0" d="M82.173,26.904l2.924,12.343l0.024-0.008l1.641,6.811c0.292,1.236-0.481,2.484-1.715,2.777l-2.565,0.606
	c-1.236,0.294-2.484-0.479-2.777-1.71l-0.225-0.949l-0.025,0.005l-4.006-16.807l-14.256-4.925c-1.201-0.416-1.843-1.736-1.429-2.936
	l0.865-2.494c0.411-1.198,1.731-1.839,2.931-1.425l14.68,5.073C81.563,24.269,82.173,26.904,82.173,26.904z"/>
<path fill="#F7F1E0" d="M74.39,89.374c0,0-15.545-1.393-16.381-6.746c-0.786-5.016,23.16-40.897,23.16-40.897
	S93.114,45.813,94.431,52C96.723,62.775,74.39,89.374,74.39,89.374z"/>
<path fill="#F7F1E0" d="M72.261,82.12l-7.537,6.121l14.834,18.26v19.371h9.071c0,0,1.397-19.184,0-23.738
	C87.397,98.106,72.261,82.12,72.261,82.12z"/>
<path fill="#F7F1E0" d="M67.614,80.808l-9.612,1.346l3.409,23.523l-5.683,17.807l9.244,2.965c0,0,5.985-15.771,6.429-20.068
	C71.955,100.987,67.614,80.808,67.614,80.808z"/>
<path fill="#F7F1E0" d="M87.286,41.164c0.043,2.583,1.947,4.374,5.623,6.117c3.637,1.821,6.221,2.215,8.281,0.654
	c0.639-0.486,2.609-3.075,4.414-5.935l-16.828-6.623C87.887,38.061,87.278,40.473,87.286,41.164z"/>
<path fill="#F7F1E0" d="M114.145,42.735l-6.331-2.924c1.092-2.028,2.834-5.618,2.486-7.357c-0.465-2.318-4.766-5.559-6.598-6.732
	c0.787,1.523,2.646,5.3,2.678,7.059c0.03,1.543-1.576,5.376-1.936,6.217l-0.861-0.333c0.566-1.312,1.897-4.674,1.877-5.866
	c-0.027-1.499-1.8-5.17-2.701-6.889c-3.145,1.583-6.102,3.223-8.523,8.252l-0.829-0.4c2.53-5.256,5.722-7.055,8.853-8.637
	c-2.09-0.356-7.403-0.515-9.15,0.71c-1.307,0.914-2.934,4.557-3.73,6.496l-0.715,1.709c0,0,21.639,9.205,25.029,9.562"/>
<path fill="#F7F1E0" d="M92.958,130.353v-0.824v-0.059c0-1.268-1.037-2.305-2.307-2.305h-9.709c-1.268,0-2.307,1.037-2.307,2.305
	v0.059v0.824v2.309l0,0v1.275h4.38v-1.275h7.636h2.307V130.353z"/>
<path fill="#F7F1E0" d="M67.171,131.743l0.255-0.787l0.017-0.057c0.392-1.205-0.277-2.512-1.485-2.904l-9.235-2.992
	c-1.208-0.393-2.515,0.275-2.906,1.486l-0.018,0.051l-0.255,0.787l-0.709,2.193h0.001l-0.396,1.213l4.167,1.35l0.396-1.213
	l7.262,2.355l2.195,0.711L67.171,131.743z"/>
<path fill="#F7F1E0" d="M56.252,28.024c0.144,2.558-1.816,4.748-4.375,4.889c-2.559,0.14-4.748-1.817-4.889-4.375
	c-0.142-2.559,1.819-4.748,4.375-4.889C53.922,23.504,56.11,25.465,56.252,28.024z"/>
<polygon fill="#F7F1E0" points="94.536,57.677 83.956,44.979 86.388,43.453 96.046,51.531 "/>
<path fill="#F7F1E0" d="M94.653,58.175l-11.044-13.25l2.797-1.759l9.897,8.279L94.653,58.175z M84.302,45.034l10.117,12.144
	l1.366-5.562l-9.417-7.88L84.302,45.034z"/>
<rect x="85.51" y="63.087" transform="matrix(0.9561 0.2932 -0.2932 0.9561 22.5549 -23.1779)" fill="#F7F1E0" width="6.163" height="1.119"/>
<polygon fill="#F7F1E0" points="84.313,67.084 86.942,69.372 90.208,68.89 91.104,65.965 85.211,64.162 "/>
<path fill="#F7F1E0" d="M52.952,109.747c1.366-6.85,2.72-13.635,2.695-13.602c0.188-0.969,0.051-1.6-0.438-2.049
	c-2.206-2.025-11.678-3.764-19.732-3.719c-8.023,0.045-15.348,1.76-17.872,2.973c-0.708,0.342-2.102,1.014-1.832,2.521
	c0.014,0.078,1.425,7.055,2.833,14.021C28.567,116.347,42.922,116.284,52.952,109.747z M21.575,96.858
	c-0.689-0.215-1.377-0.459-2.056-0.752c3.844-2.156,11.228-2.885,16.167-2.902c5.111-0.012,14.789,1.334,16.484,2.602
	c-1,0.482-2.033,0.84-3.068,1.133c-3.18,0.918-6.446,1.293-9.689,1.473C33.512,98.733,27.369,98.649,21.575,96.858z"/>
<path fill="#F7F1E0" d="M35.761,116.575c-5.841,0.025-11.67-1.365-16.642-4.16c1.224,6.051,2.312,11.441,2.312,11.441
	c0.513,1.635,1.932,2.881,3.341,3.758c2.164,1.352,4.694,2.072,7.205,2.418c3.104,0.428,6.336,0.334,9.4-0.352
	c2.292-0.512,4.592-1.387,6.451-2.863c1.002-0.797,1.936-1.83,2.316-3.084c0,0,1.09-5.42,2.297-11.457
	C47.442,115.112,41.599,116.552,35.761,116.575z"/>
<path fill="#F7F1E0" d="M105.229,83.696c-0.387,0-0.76-0.078-1.113-0.236l-14.205-6.281c-3.421-1.354-3.871-4.191-3.89-4.313
	L84.21,60.78l-0.094-0.448l-1.063-6.923c-0.227-1.512,0.816-2.923,2.325-3.149l2.609-0.392c0.136-0.021,0.275-0.031,0.412-0.031
	c1.355,0,2.536,1.014,2.736,2.359l0.074,0.513l0.098,0.443l2.551,16.833l13.564,5.998c1.395,0.617,2.027,2.254,1.412,3.652
	l-1.064,2.412C107.326,83.05,106.327,83.696,105.229,83.696z"/>
<path fill="#F7F1E0" d="M92.067,51.504c1.121,0,2.108,0.825,2.279,1.966l0.145,0.963l0.027-0.005l2.594,17.085l13.793,6.099
	c1.16,0.514,1.691,1.883,1.176,3.041l-1.066,2.416c-0.379,0.857-1.229,1.373-2.115,1.373c-0.311,0-0.625-0.062-0.928-0.195
	L93.77,77.966c-3.23-1.279-3.617-3.958-3.617-3.958l-1.884-12.543l-0.027,0.004l-1.064-6.924c-0.188-1.254,0.686-2.435,1.939-2.622
	l2.609-0.393C91.839,51.514,91.952,51.504,92.067,51.504 M92.067,50.584c-0.162,0-0.322,0.01-0.48,0.033l-2.607,0.391
	c-1.762,0.263-2.979,1.912-2.717,3.674l1.066,6.925l0.147,0.965l0.022-0.005l1.739,11.577c0.017,0.127,0.504,3.211,4.173,4.67
	l14.187,6.273c0.413,0.184,0.848,0.275,1.298,0.275c1.284,0,2.445-0.756,2.963-1.922l1.067-2.412
	c0.718-1.629-0.022-3.539-1.651-4.26l-13.33-5.897L95.431,54.29l-0.141-0.918l-0.027,0.003l-0.006-0.043
	C95.024,51.765,93.653,50.584,92.067,50.584L92.067,50.584z"/>
<rect x="101.407" y="76.901" transform="matrix(0.3987 -0.9171 0.9171 0.3987 -9.2591 143.9102)" fill="#F7F1E0" width="7.421" height="4.23"/>
<path fill="#F7F1E0" d="M105.69,83.567l-4.299-1.871l3.141-7.229l4.304,1.871L105.69,83.567z M101.996,81.458l3.454,1.504
	l2.777-6.383l-3.457-1.503L101.996,81.458z"/>
<rect x="63.225" y="21.066" transform="matrix(0.3188 -0.9478 0.9478 0.3188 23.6286 79.2354)" fill="#F7F1E0" width="7.42" height="4.228"/>
<path fill="#F7F1E0" d="M67.904,27.662l-4.448-1.493l2.508-7.474l4.452,1.495L67.904,27.662z M64.041,25.877l3.574,1.201
	l2.217-6.598l-3.574-1.2L64.041,25.877z"/>
<path fill="#F7F1E0" d="M125.716,116.581c1.604,0.896,3.951,2.744,5.092,3.971c-1.207-0.805-3.26-1.971-4.952-2.59
	c1.257,1.02,1.306,2.277,0.769,3.527c1.098,0.762,2.975,1.098,6.133,0.375C131.466,113.884,127.077,115.778,125.716,116.581z"/>
<path fill="#F7F1E0" d="M124.254,117.562c0.102,1.184,0.001,2.363-0.286,3.521c0.014-1.148-0.201-2.268-0.586-3.342
	c-1.119,0.68-3.152,2.582,0.795,6.029C128.222,119.704,125.255,117.991,124.254,117.562z"/>
<path fill="#F7F1E0" d="M98.636,101.954c1.312-0.625,3.367-1.785,4.771-2.916c-1.523,0.553-2.627-0.049-3.422-1.152
	c-1.219,0.549-2.473,1.984-3.479,5.064c7.508,2.998,8.143-1.74,8.153-3.318C103.066,100.544,100.274,101.604,98.636,101.954z"/>
<path fill="#F7F1E0" d="M104.573,97.868c-1.068-0.52-2.033-1.211-2.874-2.051c0.977,0.602,2.046,0.988,3.167,1.211
	c-0.011-1.309-0.594-4.029-5.584-2.416C100.692,100.169,103.687,98.509,104.573,97.868z"/>
<polygon fill="#F7F1E0" points="130.402,109.649 129.64,108.849 124.668,113.438 124.598,107.089 129.851,101.917 129.132,101.138 
	124.573,104.804 124.437,92.7 123.149,92.7 123.069,98.771 120.907,96.728 120.032,97.544 123.036,101.239 122.862,115.108 
	114.965,122.399 114.965,106.886 111.582,103.651 112.466,94.356 112.466,94.356 117.136,89.29 116.457,88.575 112.722,91.673 
	113.298,85.604 112.103,85.474 110.896,94.735 104.546,89.011 103.862,89.698 110.616,96.911 109.946,102.083 105.488,97.819 
	104.866,98.423 113.134,107.628 113.134,131.521 114.965,131.521 114.965,124.96 "/>
<path fill="#F7F1E0" d="M127.69,92.616c-0.671,0.609-1.197,1.332-1.607,2.131c0.991,0.279,3.176,0.43,3.041-3.691
	c-4.508-0.145-3.904,2.479-3.612,3.285C126.138,93.647,126.87,93.069,127.69,92.616z"/>
<path fill="#F7F1E0" d="M120.735,93.222c-0.074-0.932,0.006-1.857,0.238-2.766c-0.017,0.904,0.147,1.781,0.445,2.627
	c0.885-0.531,2.491-2.016-0.602-4.742C117.624,91.521,119.948,92.88,120.735,93.222z"/>
<path fill="#F7F1E0" d="M109.341,89.892c-0.712-0.652-1.307-1.41-1.773-2.262c0.627,0.693,1.373,1.242,2.195,1.672
	c0.291-1.025,0.459-3.283-3.806-3.162C105.79,90.802,108.505,90.187,109.341,89.892z"/>
<path fill="#F7F1E0" d="M106.245,108.063c1.094-0.822,1.988-1.836,2.721-2.984c-1.455-0.559-4.725-1.092-5.104,5.135
	c6.77,0.854,6.23-3.184,5.906-4.441C108.726,106.729,107.542,107.495,106.245,108.063z"/>
<path fill="#F7F1E0" d="M120.104,96.778c0.291-0.809,0.895-3.434-3.615-3.289c-0.131,4.125,2.053,3.969,3.045,3.695
	c-0.41-0.803-0.939-1.521-1.607-2.131C118.746,95.507,119.476,96.083,120.104,96.778z"/>
<path fill="#F7F1E0" d="M115.535,102.896c4.685,2.27,5.63-0.324,5.819-1.611c-1.133,0.062-2.234,0.301-3.281,0.758
	c0.943-0.713,1.984-1.258,3.107-1.623C120.399,99.669,117.684,97.628,115.535,102.896z"/>
<path fill="#F7F1E0" d="M130.114,107.571c1.02-0.293,2.064-0.41,3.119-0.355c-1.006,0.184-1.939,0.562-2.811,1.084
	c0.785,0.857,2.789,2.303,5.117-1.732C131.302,103.743,130.317,106.622,130.114,107.571z"/>
<path fill="#F7F1E0" d="M125.259,98.255c0.422,1.098,1.762,3.199,5.447,0.281c-2.926-4.225-4.92-1.891-5.463-1.078
	c1.062,0.105,2.088,0.383,3.061,0.824C127.292,98.085,126.27,98.089,125.259,98.255z"/>
<path fill="#F7F1E0" d="M40.07,25.604c1.45,0.047,3.81-0.043,5.575-0.405c-1.606-0.206-2.311-1.246-2.508-2.593
	c-1.338-0.071-3.106,0.632-5.415,2.908c5.295,6.105,8.032,2.187,8.767,0.787C44.655,26.381,41.687,26.044,40.07,25.604z"/>
<path fill="#F7F1E0" d="M47.217,24.693c-0.708-0.953-1.25-2.008-1.613-3.144c0.594,0.985,1.364,1.822,2.26,2.534
	c0.592-1.168,1.323-3.854-3.853-4.709C42.715,24.962,46.14,24.857,47.217,24.693z"/>
</svg>
